# This file uses centimeters as units for non-parametric coordinates.

mtllib Bridge_Collider.mtl
g default
v -10.327333 4.979763 32.878479
v 9.128342 4.979763 32.878479
v -10.327333 5.979763 32.878479
v 9.128342 5.979763 32.878479
v -10.327333 6.504859 -31.193073
v 9.128342 6.504859 -31.193073
v -10.327333 5.504859 -31.193073
v 9.128342 5.504859 -31.193073
v 9.128342 0.963028 9.552495
v -10.327333 0.963028 9.552495
v -10.327333 -0.036972 9.552495
v 9.128342 -0.036972 9.552495
v 9.128342 1.726122 -3.636809
v -10.327333 1.726122 -3.636809
v -10.327333 0.726122 -3.636809
v 9.128342 0.726122 -3.636809
v 9.128343 5.295332 24.050167
v -10.327334 5.295332 24.050167
v -10.327333 4.295332 24.050167
v 9.128342 4.295332 24.050167
v 9.128341 4.664719 -16.397409
v -10.327332 4.664719 -16.397409
v -10.327333 3.664719 -16.397411
v 9.128342 3.664719 -16.397411
vt 0.375000 0.000000
vt 0.625000 0.000000
vt 0.375000 0.250000
vt 0.625000 0.250000
vt 0.375000 0.500000
vt 0.625000 0.500000
vt 0.375000 0.750000
vt 0.625000 0.750000
vt 0.375000 1.000000
vt 0.625000 1.000000
vt 0.875000 0.000000
vt 0.875000 0.250000
vt 0.125000 0.000000
vt 0.125000 0.250000
vt 0.625000 0.341015
vt 0.716015 0.250000
vt 0.283985 0.250000
vt 0.375000 0.341015
vt 0.283985 0.000000
vt 0.375000 0.908985
vt 0.625000 0.908985
vt 0.716015 0.000000
vt 0.625000 0.392479
vt 0.767479 0.250000
vt 0.232521 0.250000
vt 0.375000 0.392479
vt 0.232521 0.000000
vt 0.375000 0.857521
vt 0.625000 0.857521
vt 0.767479 0.000000
vt 0.625000 0.287479
vt 0.662479 0.250000
vt 0.337521 0.250000
vt 0.375000 0.287479
vt 0.337521 0.000000
vt 0.375000 0.962521
vt 0.625000 0.962521
vt 0.662479 0.000000
vt 0.625000 0.442269
vt 0.817269 0.250000
vt 0.182731 0.250000
vt 0.375000 0.442269
vt 0.182731 0.000000
vt 0.375000 0.807731
vt 0.625000 0.807731
vt 0.817269 0.000000
vn 0.000000 0.000000 1.000000
vn 0.000000 0.000000 1.000000
vn 0.000000 0.000000 1.000000
vn 0.000000 0.000000 1.000000
vn 0.000000 0.997008 -0.077295
vn 0.000000 0.997008 -0.077295
vn 0.000000 0.977645 -0.210263
vn 0.000000 0.977645 -0.210263
vn 0.000000 0.000000 -1.000000
vn 0.000000 0.000000 -1.000000
vn 0.000000 0.000000 -1.000000
vn 0.000000 0.000000 -1.000000
vn 0.000000 -0.977645 0.210263
vn 0.000000 -0.977645 0.210263
vn 0.000000 -0.997008 0.077295
vn 0.000000 -0.997008 0.077295
vn 1.000000 0.000000 0.000000
vn 1.000000 0.000000 0.000000
vn 1.000000 0.000000 0.000000
vn 1.000000 0.000000 0.000000
vn -1.000000 0.000000 0.000000
vn -1.000000 0.000000 0.000000
vn -1.000000 0.000000 0.000000
vn -1.000000 0.000000 0.000000
vn 0.000000 0.991793 -0.127855
vn 0.000000 0.991793 -0.127855
vn 0.000000 0.989979 0.141218
vn 0.000000 0.989979 0.141218
vn -1.000000 -0.000000 0.000000
vn -1.000000 0.000000 0.000000
vn -1.000000 0.000000 0.000000
vn -1.000000 -0.000000 0.000000
vn 0.000000 -0.989979 -0.141218
vn 0.000000 -0.989979 -0.141218
vn 0.000000 -0.991793 0.127855
vn 0.000000 -0.991793 0.127855
vn 1.000000 0.000000 0.000000
vn 1.000000 0.000000 0.000000
vn 1.000000 0.000000 0.000000
vn 1.000000 0.000000 0.000000
vn 0.000000 0.985294 0.170867
vn 0.000000 0.985294 0.170867
vn -1.000000 -0.000001 0.000000
vn -1.000000 -0.000001 0.000000
vn 0.000000 -0.985294 -0.170867
vn 0.000000 -0.985294 -0.170867
vn 1.000000 0.000000 0.000000
vn 1.000000 0.000000 0.000000
vn 0.000000 0.992355 0.123419
vn 0.000000 0.992355 0.123419
vn -1.000000 -0.000001 0.000000
vn -1.000000 -0.000001 0.000000
vn 0.000000 -0.992355 -0.123419
vn 0.000000 -0.992355 -0.123419
vn 1.000000 0.000000 0.000000
vn 1.000000 0.000000 0.000000
s off
g pCube1
usemtl initialShadingGroup
f 1/1/1 2/2/2 4/4/3 3/3/4
s 1
f 3/3/5 4/4/6 17/31/7 18/34/8
s off
f 5/5/9 6/6/10 8/8/11 7/7/12
s 2
f 19/36/13 20/37/14 2/10/15 1/9/16
s 3
f 2/2/17 20/38/18 17/32/19 4/4/20
s 4
f 19/35/21 1/1/22 3/3/23 18/33/24
s 1
f 10/18/25 9/15/26 13/23/27 14/26/28
s 4
f 15/27/29 11/19/30 10/17/31 14/25/32
s 2
f 15/28/33 16/29/34 12/21/35 11/20/36
s 3
f 9/16/37 12/22/38 16/30/39 13/24/40
s 1
f 14/26/28 13/23/27 21/39/41 22/42/42
s 4
f 23/43/43 15/27/29 14/25/32 22/41/44
s 2
f 23/44/45 24/45/46 16/29/34 15/28/33
s 3
f 13/24/40 16/30/39 24/46/47 21/40/48
s 1
f 18/34/8 17/31/7 9/15/26 10/18/25
s 4
f 11/19/30 19/35/21 18/33/24 10/17/31
s 2
f 11/20/36 12/21/35 20/37/14 19/36/13
s 3
f 17/32/19 20/38/18 12/22/38 9/16/37
s 1
f 22/42/42 21/39/41 6/6/49 5/5/50
s 4
f 7/13/51 23/43/43 22/41/44 5/14/52
s 2
f 7/7/53 8/8/54 24/45/46 23/44/45
s 3
f 21/40/48 24/46/47 8/11/55 6/12/56
