# This file uses centimeters as units for non-parametric coordinates.

mtllib Crate_Open.mtl
g default
v -3.076018 0.128148 3.932746
v 3.076018 0.128148 3.932746
v -3.076018 5.742746 3.932746
v 3.076018 5.742746 3.932746
v -3.076018 5.742746 -4.014815
v 3.076018 5.742746 -4.014815
v -3.076018 0.128148 -4.014815
v 3.076018 0.128148 -4.014815
v 3.076018 0.642819 -3.286285
v 3.076018 0.642819 3.204220
v 3.076018 5.228073 -3.286285
v 3.076018 5.228073 3.204220
v -3.076018 0.642819 -3.286285
v -3.076018 0.642819 3.204220
v -3.076018 5.228073 3.204220
v -3.076018 5.228073 -3.286285
v -2.563349 0.596031 3.932746
v 2.563349 0.596031 3.932746
v 2.563349 5.274864 3.932746
v -2.563349 5.274864 3.932746
v -2.563349 5.274864 -4.014815
v 2.563349 5.274864 -4.014815
v 2.563349 0.596031 -4.014815
v -2.563349 0.596031 -4.014815
v -2.512082 5.742746 3.204220
v 2.512082 5.742746 3.204220
v 2.512082 5.742746 -3.286287
v -2.512082 5.742746 -3.286287
v -2.512082 0.128148 -3.286287
v 2.512082 0.128148 -3.286287
v 2.512082 0.128148 3.204220
v -2.512082 0.128148 3.204220
v -2.563349 0.596031 3.720516
v 2.563349 0.596031 3.720516
v 2.563349 5.274864 3.720516
v -2.563349 5.274864 3.720516
v -2.512082 5.557328 3.204220
v 2.512082 5.557328 3.204220
v 2.512082 5.557328 -3.286287
v -2.512082 5.557328 -3.286287
v -2.563349 5.274864 -3.802582
v 2.563349 5.274864 -3.802582
v 2.563349 0.596031 -3.802582
v -2.563349 0.596031 -3.802582
v -2.512082 0.313565 -3.286287
v 2.512082 0.313565 -3.286287
v 2.512082 0.313565 3.204220
v -2.512082 0.313565 3.204220
v 2.890602 0.642819 -3.286285
v 2.890602 0.642819 3.204220
v 2.890602 5.228073 -3.286285
v 2.890602 5.228073 3.204220
v -2.890602 0.642819 -3.286285
v -2.890602 0.642819 3.204220
v -2.890602 5.228073 3.204220
v -2.890602 5.228073 -3.286285
vt 0.513552 0.057711
vt 0.912018 0.055654
vt 0.106369 0.070390
vt 0.406804 0.069592
vt 0.406784 0.428756
vt 0.106348 0.427923
vt 0.407217 0.426339
vt 0.106783 0.427082
vt 0.106802 0.067827
vt 0.407239 0.068614
vt 0.389109 0.547221
vt 0.892407 0.550310
vt 0.892356 0.924636
vt 0.389066 0.927614
vt 0.390007 0.546587
vt 0.892531 0.549955
vt 0.892527 0.924504
vt 0.389992 0.927842
vt 0.320916 0.490654
vt 0.961703 0.495697
vt 0.900999 0.538552
vt 0.380748 0.535078
vt 0.911988 0.429100
vt 0.513529 0.426985
vt 0.911922 0.427893
vt 0.513421 0.430114
vt 0.513446 0.056480
vt 0.911966 0.058762
vt 0.462388 0.009846
vt 0.962839 0.007088
vt 0.062776 0.020333
vt 0.449856 0.019194
vt 0.415811 0.062414
vt 0.097077 0.063277
vt 0.449888 0.479117
vt 0.415791 0.435920
vt 0.062804 0.478016
vt 0.097063 0.435044
vt 0.920537 0.046293
vt 0.504988 0.048404
vt 0.962884 0.477587
vt 0.920511 0.438457
vt 0.450784 0.476381
vt 0.063770 0.477459
vt 0.097850 0.434253
vt 0.416438 0.433385
vt 0.462432 0.474925
vt 0.504956 0.436283
vt 0.963032 0.475738
vt 0.462630 0.478638
vt 0.063738 0.017491
vt 0.097871 0.060681
vt 0.450757 0.018533
vt 0.416451 0.061550
vt 0.961762 0.979119
vt 0.900976 0.936401
vt 0.320981 0.984322
vt 0.380710 0.939786
vt 0.321259 0.491531
vt 0.961009 0.495590
vt 0.901011 0.538158
vt 0.381592 0.534828
vt 0.961033 0.978818
vt 0.900986 0.936293
vt 0.321282 0.982938
vt 0.381578 0.939578
vt 0.504922 0.439441
vt 0.920583 0.437133
vt 0.462578 0.008036
vt 0.504960 0.047134
vt 0.962988 0.010831
vt 0.920594 0.049510
vn 0.000000 0.000000 1.000000
vn 0.000000 0.000000 1.000000
vn 0.000000 0.000000 1.000000
vn 0.000000 0.000000 1.000000
vn 0.000000 1.000000 0.000000
vn 0.000000 1.000000 0.000000
vn 0.000000 1.000000 0.000000
vn 0.000000 1.000000 0.000000
vn 0.000000 0.000000 -1.000000
vn 0.000000 0.000000 -1.000000
vn 0.000000 0.000000 -1.000000
vn 0.000000 0.000000 -1.000000
vn 0.000000 -1.000000 0.000000
vn 0.000000 -1.000000 0.000000
vn 0.000000 -1.000000 0.000000
vn 0.000000 -1.000000 0.000000
vn 1.000000 0.000000 0.000000
vn 1.000000 0.000000 0.000000
vn 1.000000 0.000000 0.000000
vn 1.000000 0.000000 0.000000
vn -1.000000 0.000000 0.000000
vn -1.000000 0.000000 0.000000
vn -1.000000 0.000000 0.000000
vn -1.000000 0.000000 0.000000
vn 1.000000 0.000000 0.000000
vn 1.000000 0.000000 0.000000
vn 1.000000 0.000000 0.000000
vn 1.000000 0.000000 0.000000
vn 1.000000 0.000000 0.000000
vn 1.000000 0.000000 0.000000
vn 1.000000 0.000000 0.000000
vn 1.000000 0.000000 0.000000
vn -1.000000 0.000000 0.000000
vn -1.000000 0.000000 0.000000
vn -1.000000 0.000000 0.000000
vn -1.000000 0.000000 0.000000
vn -1.000000 0.000000 0.000000
vn -1.000000 0.000000 0.000000
vn -1.000000 0.000000 0.000000
vn -1.000000 0.000000 0.000000
vn -0.000000 0.000000 1.000000
vn 0.000000 0.000000 1.000000
vn 0.000000 0.000000 1.000000
vn -0.000000 0.000000 1.000000
vn 0.000000 0.000000 1.000000
vn 0.000000 0.000000 1.000000
vn -0.000000 0.000000 1.000000
vn -0.000000 0.000000 1.000000
vn 0.000000 0.000000 -1.000000
vn -0.000000 0.000000 -1.000000
vn -0.000000 0.000000 -1.000000
vn 0.000000 0.000000 -1.000000
vn -0.000000 0.000000 -1.000000
vn -0.000000 0.000000 -1.000000
vn 0.000000 0.000000 -1.000000
vn 0.000000 0.000000 -1.000000
vn 0.000000 1.000000 -0.000000
vn 0.000000 1.000000 -0.000000
vn 0.000000 1.000000 -0.000000
vn 0.000000 1.000000 -0.000000
vn 0.000000 1.000000 0.000000
vn 0.000000 1.000000 0.000000
vn 0.000000 1.000000 0.000000
vn 0.000000 1.000000 0.000000
vn 0.000000 -1.000000 0.000000
vn 0.000000 -1.000000 0.000000
vn 0.000000 -1.000000 0.000000
vn 0.000000 -1.000000 0.000000
vn 0.000000 -1.000000 -0.000000
vn 0.000000 -1.000000 -0.000000
vn 0.000000 -1.000000 -0.000000
vn 0.000000 -1.000000 -0.000000
vn 0.000000 1.000000 0.000000
vn 0.000000 1.000000 0.000000
vn 0.000000 1.000000 0.000000
vn 0.000000 1.000000 0.000000
vn -1.000000 0.000000 0.000000
vn -1.000000 0.000000 0.000000
vn -1.000000 0.000000 0.000000
vn -1.000000 0.000000 0.000000
vn 0.000000 -1.000000 0.000000
vn 0.000000 -1.000000 0.000000
vn 0.000000 -1.000000 0.000000
vn 0.000000 -1.000000 0.000000
vn 1.000000 0.000000 0.000000
vn 1.000000 0.000000 0.000000
vn 1.000000 0.000000 0.000000
vn 1.000000 0.000000 0.000000
vn 0.000000 0.000000 -1.000000
vn 0.000000 0.000000 -1.000000
vn 0.000000 0.000000 -1.000000
vn 0.000000 0.000000 -1.000000
vn -1.000000 0.000000 0.000000
vn -1.000000 0.000000 0.000000
vn -1.000000 0.000000 0.000000
vn -1.000000 0.000000 0.000000
vn 0.000000 0.000000 1.000000
vn 0.000000 0.000000 1.000000
vn 0.000000 0.000000 1.000000
vn 0.000000 0.000000 1.000000
vn 1.000000 0.000000 0.000000
vn 1.000000 0.000000 0.000000
vn 1.000000 0.000000 0.000000
vn 1.000000 0.000000 0.000000
vn 0.000000 -1.000000 0.000000
vn 0.000000 -1.000000 0.000000
vn 0.000000 -1.000000 0.000000
vn 0.000000 -1.000000 0.000000
vn -1.000000 0.000000 0.000000
vn -1.000000 0.000000 0.000000
vn -1.000000 0.000000 0.000000
vn -1.000000 0.000000 0.000000
vn 0.000000 1.000000 0.000000
vn 0.000000 1.000000 0.000000
vn 0.000000 1.000000 0.000000
vn 0.000000 1.000000 0.000000
vn 1.000000 0.000000 0.000000
vn 1.000000 0.000000 0.000000
vn 1.000000 0.000000 0.000000
vn 1.000000 0.000000 0.000000
vn 0.000000 0.000000 1.000000
vn 0.000000 0.000000 1.000000
vn 0.000000 0.000000 1.000000
vn 0.000000 0.000000 1.000000
vn -1.000000 0.000000 0.000000
vn -1.000000 0.000000 0.000000
vn -1.000000 0.000000 0.000000
vn -1.000000 0.000000 0.000000
vn 0.000000 0.000000 -1.000000
vn 0.000000 0.000000 -1.000000
vn 0.000000 0.000000 -1.000000
vn 0.000000 0.000000 -1.000000
vn 1.000000 0.000000 0.000000
vn 1.000000 0.000000 0.000000
vn 1.000000 0.000000 0.000000
vn 1.000000 0.000000 0.000000
vn 0.000000 1.000000 0.000000
vn 0.000000 1.000000 0.000000
vn 0.000000 1.000000 0.000000
vn 0.000000 1.000000 0.000000
vn 0.000000 0.000000 1.000000
vn 0.000000 0.000000 1.000000
vn 0.000000 0.000000 1.000000
vn 0.000000 0.000000 1.000000
vn 0.000000 -1.000000 0.000000
vn 0.000000 -1.000000 0.000000
vn 0.000000 -1.000000 0.000000
vn 0.000000 -1.000000 0.000000
vn 0.000000 0.000000 -1.000000
vn 0.000000 0.000000 -1.000000
vn 0.000000 0.000000 -1.000000
vn 0.000000 0.000000 -1.000000
vn 0.000000 1.000000 0.000000
vn 0.000000 1.000000 0.000000
vn 0.000000 1.000000 0.000000
vn 0.000000 1.000000 0.000000
vn 0.000000 0.000000 -1.000000
vn 0.000000 0.000000 -1.000000
vn 0.000000 0.000000 -1.000000
vn 0.000000 0.000000 -1.000000
vn 0.000000 -1.000000 0.000000
vn 0.000000 -1.000000 0.000000
vn 0.000000 -1.000000 0.000000
vn 0.000000 -1.000000 0.000000
vn 0.000000 0.000000 1.000000
vn 0.000000 0.000000 1.000000
vn 0.000000 0.000000 1.000000
vn 0.000000 0.000000 1.000000
s off
g pCube4
usemtl initialShadingGroup
f 33/1/1 34/2/2 35/23/3 36/24/4
f 37/3/5 38/4/6 39/5/7 40/6/8
f 41/25/9 42/26/10 43/27/11 44/28/12
f 45/7/13 46/8/14 47/9/15 48/10/16
f 50/11/17 49/12/18 51/13/19 52/14/20
f 53/15/21 54/16/22 55/17/23 56/18/24
s 1
f 2/19/25 8/20/26 9/21/27 10/22/28
f 8/20/26 6/55/29 11/56/30 9/21/27
f 6/55/29 4/57/31 12/58/32 11/56/30
f 4/57/31 2/19/25 10/22/28 12/58/32
s 2
f 7/59/33 1/60/34 14/61/35 13/62/36
f 1/60/34 3/63/37 15/64/38 14/61/35
f 3/63/37 5/65/39 16/66/40 15/64/38
f 5/65/39 7/59/33 13/62/36 16/66/40
s 3
f 1/29/41 2/30/42 18/39/43 17/40/44
f 2/30/42 4/41/45 19/42/46 18/39/43
f 4/41/45 3/47/47 20/48/48 19/42/46
f 3/47/47 1/29/41 17/40/44 20/48/48
s 4
f 5/49/49 6/50/50 22/67/51 21/68/52
f 6/50/50 8/69/53 23/70/54 22/67/51
f 8/69/53 7/71/55 24/72/56 23/70/54
f 7/71/55 5/49/49 21/68/52 24/72/56
s 5
f 3/31/57 4/32/58 26/33/59 25/34/60
f 4/32/58 6/35/61 27/36/62 26/33/59
f 6/35/61 5/37/63 28/38/64 27/36/62
f 5/37/63 3/31/57 25/34/60 28/38/64
s 6
f 7/43/65 8/44/66 30/45/67 29/46/68
f 8/44/66 2/51/69 31/52/70 30/45/67
f 2/51/69 1/53/71 32/54/72 31/52/70
f 1/53/71 7/43/65 29/46/68 32/54/72
s off
f 17/40/73 18/39/74 34/2/75 33/1/76
f 18/39/77 19/42/78 35/23/79 34/2/80
f 19/42/81 20/48/82 36/24/83 35/23/84
f 20/48/85 17/40/86 33/1/87 36/24/88
f 25/34/89 26/33/90 38/4/91 37/3/92
f 26/33/93 27/36/94 39/5/95 38/4/96
f 27/36/97 28/38/98 40/6/99 39/5/100
f 28/38/101 25/34/102 37/3/103 40/6/104
f 21/68/105 22/67/106 42/26/107 41/25/108
f 22/67/109 23/70/110 43/27/111 42/26/112
f 23/70/113 24/72/114 44/28/115 43/27/116
f 24/72/117 21/68/118 41/25/119 44/28/120
f 29/46/121 30/45/122 46/8/123 45/7/124
f 30/45/125 31/52/126 47/9/127 46/8/128
f 31/52/129 32/54/130 48/10/131 47/9/132
f 32/54/133 29/46/134 45/7/135 48/10/136
f 10/22/137 9/21/138 49/12/139 50/11/140
f 9/21/141 11/56/142 51/13/143 49/12/144
f 11/56/145 12/58/146 52/14/147 51/13/148
f 12/58/149 10/22/150 50/11/151 52/14/152
f 13/62/153 14/61/154 54/16/155 53/15/156
f 14/61/157 15/64/158 55/17/159 54/16/160
f 15/64/161 16/66/162 56/18/163 55/17/164
f 16/66/165 13/62/166 53/15/167 56/18/168
