# This file uses centimeters as units for non-parametric coordinates.

mtllib Crate_Open2.mtl
g default
v -4.026785 0.128148 4.149855
v 2.125251 0.128148 4.149855
v -4.026785 5.742746 4.149855
v 2.125251 5.742746 4.149855
v -4.026785 5.742746 -3.797705
v 2.125251 5.742746 -3.797705
v -4.026785 0.128148 -3.797705
v 2.125251 0.128148 -3.797705
v 2.125251 0.642819 -3.069177
v 2.125251 0.642819 3.421329
v 2.125251 5.228073 -3.069177
v 2.125251 5.228073 3.421329
v -4.026785 0.642819 -3.069177
v -4.026785 0.642819 3.421329
v -4.026785 5.228073 3.421329
v -4.026785 5.228073 -3.069177
v -3.514116 0.596031 4.149855
v 1.612582 0.596031 4.149855
v 1.612582 5.274865 4.149855
v -3.514116 5.274865 4.149855
v -3.514116 5.274865 -3.797705
v 1.612582 5.274865 -3.797705
v 1.612582 0.596031 -3.797705
v -3.514116 0.596031 -3.797705
v -3.462849 5.742746 3.421329
v 1.561315 5.742746 3.421329
v 1.561315 5.742746 -3.069179
v -3.462849 5.742746 -3.069179
v -3.462849 0.128148 -3.069179
v 1.561315 0.128148 -3.069179
v 1.561315 0.128148 3.421329
v -3.462849 0.128148 3.421329
v -3.514116 0.596031 3.937625
v 1.612582 0.596031 3.937625
v 1.612582 5.274865 3.937625
v -3.514116 5.274865 3.937625
v -3.514116 5.274865 -3.585473
v 1.612582 5.274865 -3.585473
v 1.612582 0.596031 -3.585473
v -3.514116 0.596031 -3.585473
v -3.462849 0.313565 -3.069179
v 1.561315 0.313565 -3.069179
v 1.561315 0.313565 3.421329
v -3.462849 0.313565 3.421329
v 1.939835 0.642819 -3.069177
v 1.939835 0.642819 3.421329
v 1.939835 5.228073 -3.069177
v 1.939835 5.228073 3.421329
v -3.841369 0.642819 -3.069177
v -3.841369 0.642819 3.421329
v -3.841369 5.228073 3.421329
v -3.841369 5.228073 -3.069177
v 1.561315 4.732444 -3.069179
v 1.561315 4.732444 3.421329
v -3.462849 4.732444 3.421329
v -3.462849 4.732444 -3.069179
v -3.695472 1.503157 3.653952
v 1.793938 1.503157 3.653952
v 1.793938 1.503157 -3.301802
v -3.695472 1.503157 -3.301802
v 1.762773 4.732444 -3.270636
v 1.762773 4.732444 3.622787
v -3.664307 4.732444 3.622787
v -3.664307 4.732444 -3.270636
vt 0.513552 0.057711
vt 0.912018 0.055654
vt 0.226369 0.876649
vt 0.095203 0.876798
vt 0.095245 0.626794
vt 0.226410 0.626646
vt 0.407217 0.426339
vt 0.106783 0.427082
vt 0.106802 0.067827
vt 0.407239 0.068614
vt 0.389109 0.547221
vt 0.892407 0.550310
vt 0.892356 0.924636
vt 0.389066 0.927614
vt 0.390007 0.546587
vt 0.892531 0.549955
vt 0.892527 0.924504
vt 0.389992 0.927842
vt 0.320916 0.490654
vt 0.961703 0.495697
vt 0.900999 0.538552
vt 0.380748 0.535078
vt 0.911988 0.429100
vt 0.513529 0.426985
vt 0.911922 0.427893
vt 0.513421 0.430114
vt 0.513446 0.056480
vt 0.911966 0.058762
vt 0.462388 0.009846
vt 0.962839 0.007088
vt 0.062776 0.020333
vt 0.449856 0.019194
vt 0.415811 0.062414
vt 0.097077 0.063277
vt 0.449888 0.479117
vt 0.415791 0.435920
vt 0.062804 0.478016
vt 0.097063 0.435044
vt 0.920537 0.046293
vt 0.504988 0.048404
vt 0.962884 0.477587
vt 0.920511 0.438457
vt 0.450784 0.476381
vt 0.063770 0.477459
vt 0.097850 0.434253
vt 0.416438 0.433385
vt 0.462432 0.474925
vt 0.504956 0.436283
vt 0.963032 0.475738
vt 0.462630 0.478638
vt 0.063738 0.017491
vt 0.097871 0.060681
vt 0.450757 0.018533
vt 0.416451 0.061550
vt 0.961762 0.979119
vt 0.900976 0.936401
vt 0.320981 0.984322
vt 0.380710 0.939786
vt 0.321259 0.491531
vt 0.961009 0.495590
vt 0.901011 0.538158
vt 0.381592 0.534828
vt 0.961033 0.978818
vt 0.900986 0.936293
vt 0.321282 0.982938
vt 0.381578 0.939578
vt 0.504922 0.439441
vt 0.920583 0.437133
vt 0.462578 0.008036
vt 0.504960 0.047134
vt 0.962988 0.010831
vt 0.920594 0.049510
vt 0.043291 0.255005
vt 0.043309 0.369730
vt 0.020707 0.369727
vt 0.020763 0.255002
vt 0.027785 0.939147
vt 0.027257 0.563917
vt 0.294357 0.939526
vt 0.293829 0.564295
vt 0.023155 0.938041
vt 0.023725 0.566151
vt 0.297889 0.937293
vt 0.298459 0.565405
vt 0.044458 0.016603
vt 0.019656 0.016600
vt 0.043365 0.132965
vt 0.020722 0.132963
vt 0.043104 0.492965
vt 0.020891 0.492963
vn 0.000000 0.000000 1.000000
vn 0.000000 0.000000 1.000000
vn 0.000000 0.000000 1.000000
vn 0.000000 0.000000 1.000000
vn 0.000000 1.000000 0.000000
vn 0.000000 1.000000 0.000000
vn 0.000000 1.000000 0.000000
vn 0.000000 1.000000 0.000000
vn 0.000000 0.000000 -1.000000
vn 0.000000 0.000000 -1.000000
vn 0.000000 0.000000 -1.000000
vn 0.000000 0.000000 -1.000000
vn 0.000000 -1.000000 0.000000
vn 0.000000 -1.000000 0.000000
vn 0.000000 -1.000000 0.000000
vn 0.000000 -1.000000 0.000000
vn 1.000000 0.000000 0.000000
vn 1.000000 0.000000 0.000000
vn 1.000000 0.000000 0.000000
vn 1.000000 0.000000 0.000000
vn -1.000000 0.000000 0.000000
vn -1.000000 0.000000 0.000000
vn -1.000000 0.000000 0.000000
vn -1.000000 0.000000 0.000000
vn 1.000000 -0.000000 0.000000
vn 1.000000 -0.000000 0.000000
vn 1.000000 -0.000000 0.000000
vn 1.000000 -0.000000 0.000000
vn 1.000000 0.000000 0.000000
vn 1.000000 0.000000 0.000000
vn 1.000000 0.000000 0.000000
vn 1.000000 0.000000 0.000000
vn -1.000000 -0.000000 0.000000
vn -1.000000 -0.000000 0.000000
vn -1.000000 -0.000000 0.000000
vn -1.000000 -0.000000 0.000000
vn -1.000000 0.000000 0.000000
vn -1.000000 0.000000 0.000000
vn -1.000000 0.000000 0.000000
vn -1.000000 0.000000 0.000000
vn -0.000000 0.000000 1.000000
vn 0.000000 0.000000 1.000000
vn 0.000000 0.000000 1.000000
vn -0.000000 0.000000 1.000000
vn 0.000000 0.000000 1.000000
vn 0.000000 0.000000 1.000000
vn -0.000000 0.000000 1.000000
vn -0.000000 0.000000 1.000000
vn 0.000000 0.000000 -1.000000
vn -0.000000 0.000000 -1.000000
vn -0.000000 0.000000 -1.000000
vn 0.000000 0.000000 -1.000000
vn -0.000000 0.000000 -1.000000
vn -0.000000 0.000000 -1.000000
vn 0.000000 0.000000 -1.000000
vn 0.000000 0.000000 -1.000000
vn 0.000000 1.000000 -0.000000
vn 0.000000 1.000000 -0.000000
vn 0.000000 1.000000 -0.000000
vn 0.000000 1.000000 -0.000000
vn 0.000000 1.000000 0.000000
vn 0.000000 1.000000 0.000000
vn 0.000000 1.000000 0.000000
vn 0.000000 1.000000 0.000000
vn 0.000000 -1.000000 0.000000
vn 0.000000 -1.000000 0.000000
vn 0.000000 -1.000000 0.000000
vn 0.000000 -1.000000 0.000000
vn 0.000000 -1.000000 -0.000000
vn 0.000000 -1.000000 -0.000000
vn 0.000000 -1.000000 -0.000000
vn 0.000000 -1.000000 -0.000000
vn 0.000000 1.000000 0.000000
vn 0.000000 1.000000 0.000000
vn 0.000000 1.000000 0.000000
vn 0.000000 1.000000 0.000000
vn -1.000000 0.000000 0.000000
vn -1.000000 0.000000 0.000000
vn -1.000000 0.000000 0.000000
vn -1.000000 0.000000 0.000000
vn 0.000000 -1.000000 0.000000
vn 0.000000 -1.000000 0.000000
vn 0.000000 -1.000000 0.000000
vn 0.000000 -1.000000 0.000000
vn 1.000000 0.000000 0.000000
vn 1.000000 0.000000 0.000000
vn 1.000000 0.000000 0.000000
vn 1.000000 0.000000 0.000000
vn 0.000000 0.000000 -1.000000
vn 0.000000 0.000000 -1.000000
vn 0.000000 0.000000 -1.000000
vn 0.000000 0.000000 -1.000000
vn -1.000000 0.000000 0.000000
vn -1.000000 0.000000 0.000000
vn -1.000000 0.000000 0.000000
vn -1.000000 0.000000 0.000000
vn 0.000000 0.000000 1.000000
vn 0.000000 0.000000 1.000000
vn 0.000000 0.000000 1.000000
vn 0.000000 0.000000 1.000000
vn 1.000000 0.000000 0.000000
vn 1.000000 0.000000 0.000000
vn 1.000000 0.000000 0.000000
vn 1.000000 0.000000 0.000000
vn 0.000000 -1.000000 0.000000
vn 0.000000 -1.000000 0.000000
vn 0.000000 -1.000000 0.000000
vn 0.000000 -1.000000 0.000000
vn -1.000000 0.000000 0.000000
vn -1.000000 0.000000 0.000000
vn -1.000000 0.000000 0.000000
vn -1.000000 0.000000 0.000000
vn 0.000000 1.000000 0.000000
vn 0.000000 1.000000 0.000000
vn 0.000000 1.000000 0.000000
vn 0.000000 1.000000 0.000000
vn 1.000000 0.000000 0.000000
vn 1.000000 0.000000 0.000000
vn 1.000000 0.000000 0.000000
vn 1.000000 0.000000 0.000000
vn 0.000000 0.000000 1.000000
vn 0.000000 0.000000 1.000000
vn 0.000000 0.000000 1.000000
vn 0.000000 0.000000 1.000000
vn -1.000000 0.000000 0.000000
vn -1.000000 0.000000 0.000000
vn -1.000000 0.000000 0.000000
vn -1.000000 0.000000 0.000000
vn 0.000000 0.000000 -1.000000
vn 0.000000 0.000000 -1.000000
vn 0.000000 0.000000 -1.000000
vn 0.000000 0.000000 -1.000000
vn 1.000000 0.000000 0.000000
vn 1.000000 0.000000 0.000000
vn 1.000000 0.000000 0.000000
vn 1.000000 0.000000 0.000000
vn 0.000000 1.000000 0.000000
vn 0.000000 1.000000 0.000000
vn 0.000000 1.000000 0.000000
vn 0.000000 1.000000 0.000000
vn 0.000000 0.000000 1.000000
vn 0.000000 0.000000 1.000000
vn 0.000000 0.000000 1.000000
vn 0.000000 0.000000 1.000000
vn 0.000000 -1.000000 0.000000
vn 0.000000 -1.000000 0.000000
vn 0.000000 -1.000000 0.000000
vn 0.000000 -1.000000 0.000000
vn 0.000000 0.000000 -1.000000
vn 0.000000 0.000000 -1.000000
vn 0.000000 0.000000 -1.000000
vn 0.000000 0.000000 -1.000000
vn 0.000000 1.000000 0.000000
vn 0.000000 1.000000 0.000000
vn 0.000000 1.000000 0.000000
vn 0.000000 1.000000 0.000000
vn 0.000000 0.000000 -1.000000
vn 0.000000 0.000000 -1.000000
vn 0.000000 0.000000 -1.000000
vn 0.000000 0.000000 -1.000000
vn 0.000000 -1.000000 0.000000
vn 0.000000 -1.000000 0.000000
vn 0.000000 -1.000000 0.000000
vn 0.000000 -1.000000 0.000000
vn 0.000000 0.000000 1.000000
vn 0.000000 0.000000 1.000000
vn 0.000000 0.000000 1.000000
vn 0.000000 0.000000 1.000000
vn -0.999953 -0.009651 0.000000
vn -0.999953 -0.009651 0.000000
vn -0.999953 -0.009651 0.000000
vn -0.999953 -0.009651 0.000000
vn 0.000000 -0.009650 -0.999953
vn 0.000000 -0.009650 -0.999953
vn 0.000000 -0.009650 -0.999953
vn 0.000000 -0.009650 -0.999953
vn 0.999953 -0.009651 0.000000
vn 0.999953 -0.009651 0.000000
vn 0.999953 -0.009651 0.000000
vn 0.999953 -0.009651 0.000000
vn 0.000000 -0.009651 0.999953
vn 0.000000 -0.009651 0.999953
vn 0.000000 -0.009651 0.999953
vn 0.000000 -0.009651 0.999953
vn 0.000000 -1.000000 -0.000000
vn 0.000000 -1.000000 0.000000
vn 0.000000 -1.000000 0.000000
vn 0.000000 -1.000000 -0.000000
vn 0.000000 -1.000000 -0.000000
vn 0.000000 -1.000000 -0.000000
vn 0.000000 -1.000000 0.000000
vn 0.000000 -1.000000 0.000000
s off
g pCube7
usemtl initialShadingGroup
f 33/1/1 34/2/2 35/23/3 36/24/4
f 57/3/5 58/4/6 59/5/7 60/6/8
f 37/25/9 38/26/10 39/27/11 40/28/12
f 41/7/13 42/8/14 43/9/15 44/10/16
f 46/11/17 45/12/18 47/13/19 48/14/20
f 49/15/21 50/16/22 51/17/23 52/18/24
s 1
f 2/19/25 8/20/26 9/21/27 10/22/28
f 8/20/26 6/55/29 11/56/30 9/21/27
f 6/55/29 4/57/31 12/58/32 11/56/30
f 4/57/31 2/19/25 10/22/28 12/58/32
s 2
f 7/59/33 1/60/34 14/61/35 13/62/36
f 1/60/34 3/63/37 15/64/38 14/61/35
f 3/63/37 5/65/39 16/66/40 15/64/38
f 5/65/39 7/59/33 13/62/36 16/66/40
s 3
f 1/29/41 2/30/42 18/39/43 17/40/44
f 2/30/42 4/41/45 19/42/46 18/39/43
f 4/41/45 3/47/47 20/48/48 19/42/46
f 3/47/47 1/29/41 17/40/44 20/48/48
s 4
f 5/49/49 6/50/50 22/67/51 21/68/52
f 6/50/50 8/69/53 23/70/54 22/67/51
f 8/69/53 7/71/55 24/72/56 23/70/54
f 7/71/55 5/49/49 21/68/52 24/72/56
s 5
f 3/31/57 4/32/58 26/33/59 25/34/60
f 4/32/58 6/35/61 27/36/62 26/33/59
f 6/35/61 5/37/63 28/38/64 27/36/62
f 5/37/63 3/31/57 25/34/60 28/38/64
s 6
f 7/43/65 8/44/66 30/45/67 29/46/68
f 8/44/66 2/51/69 31/52/70 30/45/67
f 2/51/69 1/53/71 32/54/72 31/52/70
f 1/53/71 7/43/65 29/46/68 32/54/72
s off
f 17/40/73 18/39/74 34/2/75 33/1/76
f 18/39/77 19/42/78 35/23/79 34/2/80
f 19/42/81 20/48/82 36/24/83 35/23/84
f 20/48/85 17/40/86 33/1/87 36/24/88
f 25/73/89 26/74/90 54/75/91 55/76/92
f 26/74/93 27/89/94 53/90/95 54/75/96
f 27/85/97 28/87/98 56/88/99 53/86/100
f 28/87/101 25/73/102 55/76/103 56/88/104
f 21/68/105 22/67/106 38/26/107 37/25/108
f 22/67/109 23/70/110 39/27/111 38/26/112
f 23/70/113 24/72/114 40/28/115 39/27/116
f 24/72/117 21/68/118 37/25/119 40/28/120
f 29/46/121 30/45/122 42/8/123 41/7/124
f 30/45/125 31/52/126 43/9/127 42/8/128
f 31/52/129 32/54/130 44/10/131 43/9/132
f 32/54/133 29/46/134 41/7/135 44/10/136
f 10/22/137 9/21/138 45/12/139 46/11/140
f 9/21/141 11/56/142 47/13/143 45/12/144
f 11/56/145 12/58/146 48/14/147 47/13/148
f 12/58/149 10/22/150 46/11/151 48/14/152
f 13/62/153 14/61/154 50/16/155 49/15/156
f 14/61/157 15/64/158 51/17/159 50/16/160
f 15/64/161 16/66/162 52/18/163 51/17/164
f 16/66/165 13/62/166 49/15/167 52/18/168
f 62/77/169 61/78/170 59/5/171 58/4/172
f 63/79/173 62/77/174 58/4/175 57/3/176
f 64/80/177 63/79/178 57/3/179 60/6/180
f 61/78/181 64/80/182 60/6/183 59/5/184
s 7
f 54/81/185 53/82/186 61/78/187 62/77/188
f 55/83/189 54/81/185 62/77/188 63/79/190
f 56/84/191 55/83/189 63/79/190 64/80/192
f 53/82/186 56/84/191 64/80/192 61/78/187
