# This file uses centimeters as units for non-parametric coordinates.

mtllib Ducky 01.mtl
g default
v -0.248164 0.754100 0.517179
v -0.248164 1.342976 0.517179
v -0.248164 1.342976 0.020850
v -0.248164 0.742053 0.063024
v -0.000000 1.429833 0.604036
v -0.335022 1.429833 0.269014
v -0.000000 1.429833 -0.066007
v -0.335022 1.094812 -0.066007
v 0.000000 0.742019 -0.032065
v -0.335022 0.759790 0.269014
v 0.000000 0.759790 0.604036
v -0.335022 1.094812 0.604036
v -0.000000 1.541507 0.269014
v 0.000000 1.094812 -0.177681
v -0.446696 1.094812 0.269014
v -0.344962 -0.074637 0.573050
v -0.299609 0.697157 0.487895
v -0.241413 0.574952 -0.615516
v -0.344962 -0.074637 -0.520398
v -0.322763 0.633965 0.190534
v -0.000000 0.633965 -0.627991
v -0.465699 0.182386 -0.795450
v 0.000000 -0.195374 -0.711752
v -0.465699 -0.195374 0.026326
v 0.000000 -0.195374 0.764403
v -0.465699 0.270325 0.764403
v 0.000000 0.270325 1.010429
v 0.000000 0.104546 -1.050425
v 0.000000 -0.350607 0.026326
v -0.620931 0.270325 0.026326
v -0.000000 0.739374 -0.781638
v -0.000000 0.550437 -0.940028
v 0.000000 1.177683 0.650649
v -0.157915 1.036696 0.650649
v 0.000000 0.813839 0.650649
v -0.090644 1.023520 0.775156
v -0.000000 0.847025 0.732114
v 0.000000 1.129444 0.754180
v -0.098572 1.068294 0.937910
v 0.000000 1.089931 1.016563
v 0.000000 1.170726 0.909730
v -0.101825 0.994168 0.747874
v -0.066479 0.934879 0.900730
v -0.000000 0.915432 0.943736
v 0.000000 1.087341 0.897700
v 0.000000 1.042567 0.734947
v 0.000000 1.036696 0.650649
v -0.000000 0.990420 0.710848
v -0.000000 0.931131 0.863704
v 0.098572 1.068294 0.937910
v 0.248164 1.342976 0.517179
v 0.335022 1.429833 0.269014
v 0.248164 1.342976 0.020850
v 0.335022 1.094812 -0.066007
v 0.248164 0.742053 0.063024
v 0.335022 0.759790 0.269014
v 0.446696 1.094812 0.269014
v 0.248164 0.754100 0.517179
v 0.335022 1.094812 0.604036
v 0.344962 -0.074637 0.573050
v 0.465699 0.270325 0.764403
v 0.299609 0.697157 0.487895
v 0.322763 0.633965 0.190534
v 0.241413 0.574952 -0.615516
v 0.465699 0.182386 -0.795450
v 0.344962 -0.074637 -0.520398
v 0.465699 -0.195374 0.026326
v 0.620931 0.270325 0.026326
v 0.157915 1.036696 0.650649
v 0.090644 1.023520 0.775156
v 0.101825 0.994168 0.747874
v 0.066479 0.934879 0.900730
v 0.348543 0.924456 0.560607
v -0.348543 0.924456 0.560607
vt 0.624401 0.861034
vt 0.705211 0.900989
vt 0.885660 0.802934
vt 0.622389 0.989901
vt 0.542678 0.898187
vt 0.535005 0.658457
vt 0.468253 0.896599
vt 0.390936 0.985637
vt 0.310671 0.899715
vt 0.388918 0.861930
vt 0.278472 0.785615
vt 0.386206 0.776586
vt 0.309134 0.657134
vt 0.398127 0.658784
vt 0.470589 0.665705
vt 0.495770 0.780586
vt 0.725752 0.671604
vt 0.714255 0.650529
vt 0.722851 0.843458
vt 0.116039 0.247150
vt 0.738036 0.080785
vt 0.885501 0.031833
vt 0.324962 0.207233
vt 0.324130 0.380059
vt 0.598470 0.036801
vt 0.255550 0.899766
vt 0.148411 0.969740
vt 0.101687 0.888306
vt 0.256243 0.714422
vt 0.052069 0.720556
vt 0.091424 0.552929
vt 0.525698 0.047827
vt 0.592527 0.181029
vt 0.320608 0.197947
vt 0.320608 0.020584
vt 0.030210 0.363408
vt 0.533577 0.249870
vt 0.587631 0.391567
vt 0.494145 0.563137
vt 0.385406 0.546019
vt 0.085187 0.533151
vt 0.510176 0.587979
vt 0.415517 0.590396
vt 0.248073 0.564101
vt 0.217359 0.986493
vt 0.623620 0.656676
vt 0.630135 0.773520
vt 0.515021 0.777634
vt 0.770181 0.568130
vt 0.862542 0.747307
vt 0.936448 0.757554
vt 0.824554 0.617324
vt 0.871502 0.675536
vt 0.659911 0.570137
vt 0.670043 0.536061
vt 0.737643 0.526547
vt 0.683554 0.447218
vt 0.710858 0.465649
vt 0.772719 0.676806
vt 0.736905 0.610538
vt 0.573494 0.570035
vt 0.609263 0.521607
vt 0.753360 0.766314
vt 0.821084 0.809381
vt 0.934730 0.679946
vt 0.947384 0.617294
vt 0.617166 0.446192
vt 0.648055 0.424841
vt 0.820978 0.766148
vt 0.820759 0.676688
vt 0.820398 0.610334
vt 0.646045 0.570949
vt 0.646832 0.522080
vt 0.647782 0.446577
vt 0.744662 0.236021
vt 0.887569 0.455052
vt 0.765683 0.436422
vt 0.788544 0.457264
vt 0.942523 0.221830
vt 0.334503 0.587740
vt 0.686746 0.753735
vt 0.732395 0.124836
vt 0.717193 0.362994
vt 0.619351 0.356177
vt 0.670524 0.040328
vt 0.048689 0.181029
vt 0.115518 0.047827
vt 0.862542 0.747307
vt 0.936448 0.757554
vt 0.885660 0.802934
vt 0.624401 0.861034
vt 0.705211 0.900989
vt 0.622389 0.989901
vt 0.542678 0.898187
vt 0.468253 0.896599
vt 0.390936 0.985637
vt 0.310671 0.899715
vt 0.388918 0.861930
vt 0.278472 0.785615
vt 0.386206 0.776586
vt 0.309134 0.657134
vt 0.398127 0.658784
vt 0.470589 0.665705
vt 0.495770 0.780586
vt 0.535005 0.658457
vt 0.623620 0.656676
vt 0.630135 0.773520
vt 0.515021 0.777634
vt 0.738036 0.080785
vt 0.885501 0.031833
vt 0.744662 0.236021
vt 0.887569 0.455052
vt 0.765683 0.436422
vt 0.598470 0.036801
vt 0.732395 0.124836
vt 0.717193 0.362994
vt 0.619351 0.356177
vt 0.255550 0.899766
vt 0.148411 0.969740
vt 0.101687 0.888306
vt 0.256243 0.714422
vt 0.052069 0.720556
vt 0.091424 0.552929
vt 0.248073 0.564101
vt 0.525698 0.047827
vt 0.592527 0.181029
vt 0.320608 0.197947
vt 0.320608 0.020584
vt 0.048689 0.181029
vt 0.115518 0.047827
vt 0.116039 0.247150
vt 0.324962 0.207233
vt 0.324130 0.380059
vt 0.030210 0.363408
vt 0.533577 0.249870
vt 0.587631 0.391567
vt 0.494145 0.563137
vt 0.385406 0.546019
vt 0.085187 0.533151
vt 0.788544 0.457264
vt 0.510176 0.587979
vt 0.415517 0.590396
vt 0.670524 0.040328
vt 0.217359 0.986493
vt 0.942523 0.221830
vt 0.686746 0.753735
vt 0.722851 0.843458
vt 0.714255 0.650529
vt 0.725752 0.671604
vt 0.824554 0.617324
vt 0.934730 0.679946
vt 0.871502 0.675536
vt 0.770181 0.568130
vt 0.659911 0.570137
vt 0.670043 0.536061
vt 0.737643 0.526547
vt 0.683554 0.447218
vt 0.710858 0.465649
vt 0.947384 0.617294
vt 0.753360 0.766314
vt 0.820978 0.766148
vt 0.821084 0.809381
vt 0.772719 0.676806
vt 0.820759 0.676688
vt 0.736905 0.610538
vt 0.820398 0.610334
vt 0.573494 0.570035
vt 0.609263 0.521607
vt 0.646832 0.522080
vt 0.646045 0.570949
vt 0.617166 0.446192
vt 0.647782 0.446577
vt 0.648055 0.424841
vt 0.334503 0.587740
vt 0.626877 0.715098
vt 0.626877 0.715098
vn -0.000000 0.993454 -0.114229
vn -0.741815 0.667271 -0.066785
vn -0.000000 0.797591 0.603199
vn -0.631169 0.631169 0.450835
vn 0.000000 0.772273 0.635291
vn 0.000000 1.000000 -0.000000
vn -0.707107 0.707107 0.000000
vn -0.000000 0.707107 -0.707107
vn -0.577350 0.577350 -0.577350
vn -0.000000 0.064985 -0.997886
vn -0.740725 0.033347 -0.670980
vn 0.000000 0.924829 -0.380382
vn -0.720619 -0.402104 -0.564820
vn -0.941175 -0.321822 -0.103061
vn -0.997130 0.039529 -0.064566
vn -0.750743 -0.413811 0.514923
vn -0.826969 -0.351798 0.438589
vn -0.721011 0.246322 0.647664
vn -0.675333 -0.675333 0.296394
vn -0.000000 -0.877760 0.479100
vn -0.849789 0.024391 0.526559
vn -0.000000 0.401550 0.915837
vn -0.747962 0.552087 0.368447
vn -0.707597 0.688095 -0.160720
vn 0.000000 0.998226 -0.059541
vn -0.655620 0.726437 -0.206039
vn -0.000000 0.877275 -0.479989
vn -0.000000 0.491877 -0.870665
vn -0.875413 0.088347 -0.475234
vn 0.000000 -0.468892 -0.883256
vn 0.000000 -0.899792 -0.436319
vn -0.459505 -0.820355 -0.340402
vn -0.000000 -1.000000 0.000000
vn -0.679600 -0.732550 0.038923
vn -0.980063 0.196415 -0.029960
vn 0.000000 0.144807 0.989460
vn -0.000000 -0.432694 0.901541
vn -0.229833 0.048586 0.972017
vn -0.000000 0.875809 0.482657
vn -0.734056 0.678827 0.018864
vn -0.000000 0.996581 -0.082623
vn -0.794057 -0.566782 0.219619
vn 0.000000 -0.932447 0.361308
vn -0.000000 -0.961453 0.274971
vn -0.807764 -0.570443 0.148704
vn 0.000000 -0.951523 0.307578
vn -0.661024 -0.739898 0.124889
vn -0.609868 0.683094 0.401800
vn 0.274205 -0.939628 0.204721
vn -0.000000 -0.974159 0.225865
vn 0.000000 -0.999763 0.021784
vn 0.206443 -0.969302 0.133552
vn -0.000000 -0.996572 0.082725
vn 0.067197 -0.996139 -0.056499
vn -0.000000 -0.998395 -0.056627
vn 0.079436 0.880071 0.468151
vn 0.138540 0.906396 0.399064
vn -0.000000 0.910580 0.413333
vn -0.000000 0.882861 0.469635
vn 0.185421 0.930098 0.317074
vn 0.000000 0.944401 0.328795
vn -0.000000 0.981299 0.192490
vn 0.741815 0.667271 -0.066785
vn 0.631169 0.631169 0.450835
vn 0.707107 0.707107 -0.000000
vn 0.577350 0.577350 -0.577350
vn 0.740725 0.033347 -0.670980
vn 0.720619 -0.402104 -0.564820
vn 0.997130 0.039529 -0.064566
vn 0.941175 -0.321822 -0.103061
vn 0.826969 -0.351798 0.438589
vn 0.721011 0.246322 0.647664
vn 0.675333 -0.675333 0.296394
vn 0.849789 0.024391 0.526559
vn 0.747962 0.552087 0.368447
vn 0.707597 0.688095 -0.160720
vn 0.655620 0.726437 -0.206039
vn 0.875413 0.088347 -0.475234
vn 0.459505 -0.820355 -0.340402
vn 0.679600 -0.732550 0.038923
vn 0.980063 0.196415 -0.029960
vn 0.750743 -0.413811 0.514923
vn 0.229833 0.048586 0.972017
vn 0.734056 0.678827 0.018864
vn 0.794057 -0.566782 0.219619
vn 0.807763 -0.570443 0.148704
vn 0.661024 -0.739898 0.124889
vn 0.609868 0.683094 0.401800
vn -0.274205 -0.939628 0.204721
vn -0.206443 -0.969302 0.133552
vn -0.067197 -0.996139 -0.056499
vn -0.079436 0.880071 0.468151
vn -0.138540 0.906396 0.399064
vn -0.185421 0.930098 0.317074
vn -0.000000 0.190164 0.981752
s 1
g Rubber_Duck_01
usemtl lambert2SG
f 41/50/1 39/51/2 40/3/3
s 2
f 2/1/4 5/2/5 13/4/6 6/5/7
f 6/7/7 13/8/6 7/9/8 3/10/9
f 3/10/9 7/9/8 14/11/10 8/12/11
f 8/12/11 14/11/10 9/13/12
f 4/14/13 10/15/14 15/16/15 8/12/11
f 10/6/14 1/46/16 74/176/17 15/48/15
f 15/48/15 12/47/18 2/1/4 6/5/7
f 8/12/11 15/16/15 6/7/7 3/10/9
f 16/21/19 25/22/20 26/75/21
f 26/75/21 11/76/22 17/77/23
f 20/25/24 9/82/12 21/83/25 18/84/26
f 18/26/26 31/27/27 32/28/28
f 22/29/29 28/30/30 23/31/31 19/44/32
f 19/32/32 23/33/31 29/34/33 24/35/34
f 24/35/34 29/34/33 25/86/20 16/87/19
f 22/36/29 24/23/34 30/24/35
f 24/23/34 16/37/19 26/38/21 30/24/35
f 30/24/35 26/38/21 17/39/23
f 22/36/29 30/24/35 20/40/24 18/41/26
f 11/76/22 1/78/16 17/77/23
f 1/42/16 10/43/14 17/39/23
f 10/43/14 20/40/24 17/39/23
f 4/85/13 9/82/12 20/25/24
f 22/29/29 32/28/28 28/30/30
f 18/26/26 21/45/25 31/27/27
f 22/29/29 18/26/26 32/28/28
f 8/12/11 9/13/12 4/14/13
f 26/75/21 25/22/20 27/79/36
f 26/75/21 27/79/36 11/76/22
f 12/47/18 5/2/5 2/1/4
f 74/176/17 35/17/37 34/81/38
s 1
f 33/52/39 36/65/40 38/53/41
f 38/53/41 36/65/40 39/51/2 41/50/1
s 9
f 34/49/42 35/54/43 37/55/44 42/56/45
f 37/55/44 44/57/46 43/58/47
s 1
f 33/52/39 34/66/48 36/65/40
s 9
f 37/55/44 43/58/47 42/56/45
s 11
f 39/63/49 45/69/50 40/64/51
f 39/63/49 36/59/52 46/70/53 45/69/50
f 36/59/52 34/60/54 47/71/55 46/70/53
s 12
f 34/61/56 42/62/57 48/73/58 47/72/59
f 42/62/57 43/67/60 49/74/61 48/73/58
f 44/68/62 49/74/61 43/67/60
s 2
f 10/43/14 4/80/13 20/40/24
f 30/24/35 17/39/23 20/40/24
s 1
f 41/88/1 40/90/3 50/89/63
s 2
f 51/91/64 52/94/65 13/93/6 5/92/5
f 52/95/65 53/98/66 7/97/8 13/96/6
f 53/98/66 54/100/67 14/99/10 7/97/8
f 54/100/67 9/101/12 14/99/10
f 55/102/68 54/100/67 57/104/69 56/103/70
f 73/175/71 57/108/69 59/107/72
f 57/108/69 52/94/65 51/91/64 59/107/72
f 54/100/67 53/98/66 52/95/65 57/104/69
f 60/109/73 61/111/74 25/110/20
f 61/111/74 62/113/75 11/112/22
f 63/114/76 64/117/77 21/116/25 9/115/12
f 64/118/77 32/120/28 31/119/27
f 65/121/78 66/124/79 23/123/31 28/122/30
f 66/125/79 67/128/80 29/127/33 23/126/31
f 67/128/80 60/130/73 25/129/20 29/127/33
f 67/132/80 65/134/78 68/133/81
f 67/132/80 68/133/81 61/136/74 60/135/73
f 68/133/81 62/137/75 61/136/74
f 65/134/78 64/139/77 63/138/76 68/133/81
f 11/112/22 62/113/75 58/140/82
f 58/141/82 62/137/75 56/142/70
f 56/142/70 62/137/75 63/138/76
f 55/143/68 63/114/76 9/115/12
f 65/121/78 28/122/30 32/120/28
f 64/118/77 31/119/27 21/144/25
f 65/121/78 32/120/28 64/118/77
f 54/100/67 55/102/68 9/101/12
f 61/111/74 27/145/36 25/110/20
f 61/111/74 11/112/22 27/145/36
f 59/107/72 51/91/64 5/92/5
f 69/146/83 73/175/71 59/107/72
s 1
f 33/150/39 38/152/41 70/151/84
f 38/152/41 41/88/1 50/89/63 70/151/84
s 9
f 69/153/85 71/156/86 37/155/44 35/154/43
f 37/155/44 72/158/87 44/157/46
s 1
f 33/150/39 70/151/84 69/159/88
s 9
f 37/155/44 71/156/86 72/158/87
s 11
f 50/160/89 40/162/51 45/161/50
f 50/160/89 45/161/50 46/164/53 70/163/90
f 70/163/90 46/164/53 47/166/55 69/165/91
s 12
f 69/167/92 47/170/59 48/169/58 71/168/93
f 71/168/93 48/169/58 49/172/61 72/171/94
f 44/173/62 72/171/94 49/172/61
s 2
f 56/142/70 63/138/76 55/174/68
f 68/133/81 63/138/76 62/137/75
f 12/47/18 34/81/38 33/19/95 5/2/5
f 59/107/72 5/92/5 33/147/95 69/146/83
f 35/149/37 73/175/71 69/146/83
f 56/105/70 57/108/69 73/175/71 58/106/82
f 74/176/17 34/81/38 12/47/18
f 15/48/15 74/176/17 12/47/18
f 1/46/16 11/18/22 35/17/37 74/176/17
f 58/106/82 73/175/71 35/149/37 11/148/22
f 66/131/79 65/134/78 67/132/80
f 19/20/32 24/23/34 22/36/29
