# This file uses centimeters as units for non-parametric coordinates.

mtllib leaf pile.mtl
g default
v -0.500000 -0.000000 0.500000
v 0.500000 -0.000000 0.500000
v -0.500000 0.000000 -0.500000
v 0.500000 0.000000 -0.500000
v -0.690937 0.000000 -0.000000
v 0.690937 0.000000 -0.000000
v -0.000000 0.000000 0.690937
v 0.000000 -0.000000 -0.690937
v -0.345300 0.126021 -0.000000
v 0.000000 0.165733 0.000000
v 0.000000 0.126021 -0.345300
v -0.249878 0.126021 -0.249878
v -0.249878 0.126021 0.249878
v -0.000000 0.126021 0.345300
v 0.249878 0.126021 0.249878
v 0.345300 0.126021 -0.000000
v 0.249878 0.126021 -0.249878
vt 0.250122 0.500000
vt 0.500000 0.500000
vt 0.500000 0.749878
vt 0.319175 0.680825
vt 0.319175 0.319174
vt 0.500000 0.250122
vt 0.680825 0.319174
vt 0.749878 0.500000
vt 0.680825 0.680825
vt 0.500000 1.000000
vt 0.138173 0.861827
vt 0.000000 0.500000
vt 0.138173 0.138173
vt 0.500000 -0.000000
vt 0.861827 0.138173
vt 1.000000 0.500000
vt 0.861827 0.861827
vn -0.269779 0.962922 -0.000000
vn 0.000000 1.000000 0.000000
vn -0.000000 0.962922 -0.269779
vn -0.195623 0.960970 -0.195623
vn -0.195623 0.960970 0.195623
vn 0.000000 0.962922 0.269779
vn 0.195623 0.960970 0.195623
vn 0.269779 0.962922 -0.000000
vn 0.195623 0.960970 -0.195623
vn -0.000000 0.939501 -0.342546
vn -0.237308 0.942003 -0.237308
vn -0.342546 0.939501 -0.000000
vn -0.237308 0.942003 0.237308
vn 0.000000 0.939501 0.342546
vn 0.237308 0.942003 0.237308
vn 0.342546 0.939501 -0.000000
vn 0.237308 0.942003 -0.237308
s 1
g pPlane1
usemtl lambert2SG
f 9/1/1 10/2/2 11/3/3 12/4/4
f 13/5/5 14/6/6 10/2/2 9/1/1
f 14/6/6 15/7/7 16/8/8 10/2/2
f 11/3/3 10/2/2 16/8/8 17/9/9
f 8/10/10 3/11/11 12/4/4 11/3/3
f 3/11/11 5/12/12 9/1/1 12/4/4
f 1/13/13 7/14/14 14/6/6 13/5/5
f 5/12/12 1/13/13 13/5/5 9/1/1
f 7/14/14 2/15/15 15/7/7 14/6/6
f 2/15/15 6/16/16 16/8/8 15/7/7
f 6/16/16 4/17/17 17/9/9 16/8/8
f 4/17/17 8/10/10 11/3/3 17/9/9
g default
v -0.054071 0.134121 -0.199252
v 0.102420 0.156300 -0.065386
v 0.068080 0.200075 -0.352976
v 0.224571 0.222254 -0.219109
v 0.002378 0.182371 -0.273237
v 0.158870 0.204550 -0.139370
vt 0.000000 0.000000
vt 1.000000 0.000000
vt 0.000000 1.000000
vt 1.000000 1.000000
vt 0.000000 0.500000
vt 1.000000 0.500000
vn -0.285269 0.941881 0.177431
vn -0.285269 0.941881 0.177431
vn -0.190610 0.979800 0.060491
vn -0.190610 0.979800 0.060491
vn -0.373061 0.881288 0.290100
vn -0.373061 0.881288 0.290100
s 1
g pPlane3
usemtl lambert3SG
f 22/22/18 23/23/19 21/21/20 20/20/21
f 18/18/22 19/19/23 23/23/19 22/22/18
