# This file uses centimeters as units for non-parametric coordinates.

mtllib LogSpike_Mesh.mtl
g default
v 830.039543 -239.975579 -626.147720
v 836.439110 -239.975562 -634.395984
v 829.349112 -115.857272 -626.989778
v 835.062853 -115.857278 -634.353923
v 821.992077 -115.857271 -632.708905
v 827.705677 -115.857282 -640.073159
v 821.799190 -239.975553 -632.553552
v 828.198786 -239.975566 -640.801794
v 838.579533 -124.864440 -634.774921
v 833.082333 -112.888575 -629.952206
v 824.902441 -112.888550 -628.922702
v 832.053990 -112.888590 -638.139952
v 823.873926 -112.888558 -637.110581
v 818.815568 -124.864421 -632.287687
v 827.455086 -124.864419 -643.422809
v 823.663736 -239.975583 -637.798739
v 824.906329 -239.975581 -627.907225
v 833.545818 -239.975550 -639.042369
v 834.788298 -239.975552 -629.150943
v 819.086442 -239.976515 -632.287658
v 827.725992 -239.976512 -643.422937
v 830.211005 -239.976515 -623.639861
v 838.850482 -239.976515 -634.775106
v 829.940103 -124.864438 -623.639912
v 836.113940 -124.864428 -627.766125
v 828.296900 -96.809963 -633.425271
v 821.281218 -124.864447 -639.296438
v 829.126014 -239.975569 -633.474800
v 834.457246 -124.864426 -640.954857
v 822.937886 -124.864434 -626.107908
v 821.552151 -239.976523 -639.296545
v 823.208803 -239.976495 -626.107936
v 836.384930 -239.976501 -627.766188
v 834.728164 -239.976502 -640.954885
vt 0.980809 0.653650
vt 0.986711 0.840390
vt 0.872786 0.787922
vt 0.858974 0.698989
vt 0.866458 0.503473
vt 0.811675 0.622075
vt 0.745257 0.731853
vt 0.723308 0.640513
vt 0.795695 0.835194
vt 0.707253 0.849348
vt 0.664059 0.770859
vt 0.646867 0.684081
vt 0.524436 0.822901
vt 0.520494 0.626037
vt 0.652123 0.970062
vt 0.904039 0.174271
vt 0.906878 0.311291
vt 0.743368 0.259478
vt 0.791908 0.094487
vt 0.828675 0.419992
vt 0.690229 0.426246
vt 0.583017 0.344562
vt 0.575221 0.209389
vt 0.658375 0.098838
vt 0.841736 0.959241
vt 0.672781 0.502174
vt 0.144805 0.955581
vt 0.084023 0.033338
vt 0.083906 0.955207
vt 0.509742 0.034338
vt 0.023099 0.954989
vt 0.449130 0.034292
vt 0.968610 0.327392
vt 0.862456 0.476251
vt 0.964193 0.144437
vt 0.815251 0.038189
vt 0.632521 0.042563
vt 0.526381 0.191440
vt 0.530766 0.374379
vt 0.679715 0.480602
vt 0.023234 0.033136
vt 0.509844 0.953590
vt 0.327677 0.034502
vt 0.327715 0.955171
vt 0.266797 0.034281
vt 0.266794 0.955815
vt 0.205792 0.034113
vt 0.205746 0.955811
vt 0.144889 0.033698
vt 0.449224 0.953902
vt 0.388541 0.954476
vt 0.388472 0.034380
vn 0.809165 0.022015 0.587169
vn 0.993117 0.022226 -0.114996
vn 0.935158 0.334491 -0.116599
vn 0.728279 0.376450 0.572621
vn 0.196316 0.018218 0.980371
vn 0.124419 0.321070 0.938847
vn 0.092845 0.995497 0.019141
vn -0.583764 0.358752 0.728366
vn 0.556449 0.376920 -0.740470
vn -0.112248 0.321382 -0.940273
vn -0.740181 0.359156 -0.568453
vn -0.944199 0.307011 0.119300
vn -0.771424 0.015218 -0.636140
vn -0.991034 0.013200 0.132955
vn -0.054040 0.017078 -0.998393
vn -0.201549 -0.014587 -0.979370
vn -0.810948 -0.018174 -0.584835
vn -0.993287 -0.018202 0.114238
vn 0.000151 -1.000000 -0.000019
vn 0.000115 -1.000000 0.000090
vn 0.000001 -1.000000 -0.000001
vn 0.000087 -1.000000 -0.000117
vn 0.000020 -1.000000 0.000153
vn -0.000096 -1.000000 0.000120
vn -0.000160 -1.000000 0.000019
vn -0.000124 -1.000000 -0.000096
vn -0.000020 -1.000000 -0.000156
vn 0.645523 0.021252 -0.763445
vn -0.582668 0.015966 0.812553
vn -0.648395 -0.016948 0.761115
vn 0.048932 -0.012852 0.998719
vn 0.769928 -0.010918 0.638037
vn 0.991002 -0.009259 -0.133527
vn 0.580119 -0.012168 -0.814441
s 1
g pCube230 group3
usemtl lambert5SG
f 25/1/1 9/2/2 4/3/3 10/4/4
f 24/5/5 25/1/1 10/4/4 3/6/6
f 3/6/6 10/4/4 26/7/7 11/8/8
f 10/4/4 4/3/3 12/9/9 26/7/7
f 26/7/7 12/9/9 6/10/10 13/11/11
f 11/8/8 26/7/7 13/11/11 5/12/12
f 5/12/12 13/11/11 27/13/13 14/14/14
f 13/11/11 6/10/10 15/15/15 27/13/13
f 27/50/13 15/51/15 21/52/16 31/32/17
f 14/42/14 27/50/13 31/32/17 20/30/18
f 7/16/19 16/17/20 28/18/21 17/19/22
f 16/17/20 8/20/23 18/21/24 28/18/21
f 28/18/21 18/21/24 2/22/25 19/23/26
f 17/19/22 28/18/21 19/23/26 1/24/27
f 29/25/28 15/15/15 6/10/10 12/9/9
f 9/2/2 29/25/28 12/9/9 4/3/3
f 30/26/29 24/5/5 3/6/6 11/8/8
f 14/14/14 30/26/29 11/8/8 5/12/12
f 30/29/29 14/31/14 20/41/18 32/28/30
f 24/27/5 30/29/29 32/28/30 22/49/31
f 25/48/1 24/27/5 22/49/31 33/47/32
f 9/46/2 25/48/1 33/47/32 23/45/33
f 29/44/28 9/46/2 23/45/33 34/43/34
f 21/52/16 15/51/15 29/44/28 34/43/34
f 31/33/17 21/34/16 8/20/23 16/17/20
f 20/35/18 31/33/17 16/17/20 7/16/19
f 7/16/19 17/19/22 32/36/30 20/35/18
f 17/19/22 1/24/27 22/37/31 32/36/30
f 1/24/27 19/23/26 33/38/32 22/37/31
f 19/23/26 2/22/25 23/39/33 33/38/32
f 2/22/25 18/21/24 34/40/34 23/39/33
f 18/21/24 8/20/23 21/34/16 34/40/34
