# This file uses centimeters as units for non-parametric coordinates.

mtllib Planks .mtl
g default
v 19.097549 -0.853553 3.862607
v 19.177261 1.166015 3.855714
v -19.571047 -1.062810 7.147788
v -19.491341 0.956758 7.140896
v -19.177261 -1.166015 2.283984
v -19.097549 0.853553 2.277092
v 19.491341 -0.956758 -1.001197
v 19.571047 1.062810 -1.008089
v 0.028802 0.854309 5.374113
v -0.047330 -0.769689 5.380695
v 0.328781 -0.852680 0.735207
v 0.404913 0.771319 0.728624
vt 0.442183 0.927521
vt 0.442359 0.979147
vt 0.402789 0.987648
vt 0.355080 0.989633
vt 0.566692 0.976508
vt 0.566516 0.924882
vt 0.566516 0.924882
vt 0.566692 0.976508
vt 0.355080 0.512701
vt 0.402789 0.510804
vt 0.402789 0.510363
vt 0.355080 0.512259
vt 0.442359 0.979147
vt 0.442183 0.927521
vt 0.166054 0.972915
vt 0.047913 0.993152
vt 0.047913 0.513838
vt 0.355080 0.989631
vt 0.402789 0.987646
vt 0.166054 0.494486
vt 0.205392 0.991177
vt 0.323533 0.970905
vt 0.323532 0.492580
vt 0.205391 0.511941
vt 0.323532 0.004317
vt 0.205391 0.024588
vt 0.047913 0.026588
vt 0.166054 0.006308
vt 0.355080 0.026506
vt 0.402789 0.024522
vt 0.402789 0.024525
vt 0.355080 0.026511
vn 0.079045 0.000306 0.996871
vn 0.079045 0.000306 0.996871
vn 0.084540 0.000069 0.996420
vn 0.084762 0.000060 0.996401
vn -0.995912 0.039029 -0.081460
vn -0.995912 0.039029 -0.081460
vn -0.995912 0.039029 -0.081460
vn -0.995912 0.039029 -0.081460
vn -0.084542 -0.000069 -0.996420
vn -0.084764 -0.000059 -0.996401
vn -0.090245 0.000177 -0.995920
vn -0.090245 0.000177 -0.995920
vn 0.995912 -0.039029 0.081460
vn 0.995912 -0.039029 0.081460
vn 0.995912 -0.039029 0.081460
vn 0.995912 -0.039029 0.081460
vn -0.017521 0.999626 -0.020992
vn -0.017521 0.999626 -0.020992
vn -0.008209 0.999761 -0.020240
vn -0.006041 0.999780 -0.020065
vn -0.003264 -0.999808 0.019312
vn -0.003264 -0.999808 0.019312
vn 0.008205 -0.999762 0.020240
vn 0.006040 -0.999780 0.020065
vn 0.084762 0.000060 0.996401
vn 0.084540 0.000069 0.996420
vn 0.090143 -0.000172 0.995929
vn 0.090143 -0.000172 0.995929
vn 0.006040 -0.999780 0.020065
vn 0.008205 -0.999762 0.020240
vn 0.017315 -0.999630 0.020975
vn 0.017315 -0.999630 0.020975
vn -0.079148 -0.000301 -0.996863
vn -0.079148 -0.000301 -0.996863
vn -0.084764 -0.000059 -0.996401
vn -0.084542 -0.000069 -0.996420
vn -0.006041 0.999780 -0.020065
vn -0.008209 0.999761 -0.020240
vn 0.003090 0.999808 -0.019326
vn 0.003090 0.999808 -0.019326
s off
g pCube279
usemtl lambert2SG
f 1/3/1 2/4/2 9/9/3 10/10/4
f 3/1/5 4/2/6 6/5/7 5/6/8
f 11/11/9 12/12/10 8/18/11 7/19/12
f 7/7/13 8/8/14 2/13/15 1/14/16
f 2/15/17 8/16/18 12/17/19 9/20/20
f 7/21/21 1/22/22 10/23/23 11/24/24
f 10/10/25 9/9/26 4/29/27 3/30/28
f 11/24/29 10/23/30 3/25/31 5/26/32
f 5/31/33 6/32/34 12/12/35 11/11/36
f 9/20/37 12/17/38 6/27/39 4/28/40
g default
v 19.097549 -0.853553 -2.991616
v 19.177261 1.166015 -2.998509
v -19.571047 -1.062810 0.293565
v -19.491341 0.956758 0.286673
v -19.177261 -1.166015 -4.570239
v -19.097549 0.853553 -4.577131
v 19.491341 -0.956758 -7.855420
v 19.571047 1.062810 -7.862312
v 0.028802 0.854309 -1.480110
v -0.047330 -0.769689 -1.473528
v 0.328781 -0.852680 -6.119016
v 0.404913 0.771319 -6.125599
vt 0.442183 0.927521
vt 0.442359 0.979147
vt 0.402789 0.987648
vt 0.355080 0.989633
vt 0.566692 0.976508
vt 0.566516 0.924882
vt 0.566516 0.924882
vt 0.566692 0.976508
vt 0.355080 0.512701
vt 0.402789 0.510804
vt 0.402789 0.510363
vt 0.355080 0.512259
vt 0.442359 0.979147
vt 0.442183 0.927521
vt 0.166054 0.972915
vt 0.047913 0.993152
vt 0.047913 0.513838
vt 0.355080 0.989631
vt 0.402789 0.987646
vt 0.166054 0.494486
vt 0.205392 0.991177
vt 0.323533 0.970905
vt 0.323532 0.492580
vt 0.205391 0.511941
vt 0.323532 0.004317
vt 0.205391 0.024588
vt 0.047913 0.026588
vt 0.166054 0.006308
vt 0.355080 0.026506
vt 0.402789 0.024522
vt 0.402789 0.024525
vt 0.355080 0.026511
vn 0.079045 0.000306 0.996871
vn 0.079045 0.000306 0.996871
vn 0.084540 0.000069 0.996420
vn 0.084762 0.000060 0.996401
vn -0.995912 0.039029 -0.081460
vn -0.995912 0.039029 -0.081460
vn -0.995912 0.039029 -0.081460
vn -0.995912 0.039029 -0.081460
vn -0.084542 -0.000069 -0.996420
vn -0.084764 -0.000059 -0.996401
vn -0.090245 0.000177 -0.995920
vn -0.090245 0.000177 -0.995920
vn 0.995912 -0.039029 0.081460
vn 0.995912 -0.039029 0.081460
vn 0.995912 -0.039029 0.081460
vn 0.995912 -0.039029 0.081460
vn -0.017521 0.999626 -0.020992
vn -0.017521 0.999626 -0.020992
vn -0.008209 0.999761 -0.020240
vn -0.006041 0.999780 -0.020065
vn -0.003264 -0.999808 0.019312
vn -0.003264 -0.999808 0.019312
vn 0.008205 -0.999762 0.020240
vn 0.006040 -0.999780 0.020065
vn 0.084762 0.000060 0.996401
vn 0.084540 0.000069 0.996420
vn 0.090143 -0.000172 0.995929
vn 0.090143 -0.000172 0.995929
vn 0.006040 -0.999780 0.020065
vn 0.008205 -0.999762 0.020240
vn 0.017315 -0.999630 0.020975
vn 0.017315 -0.999630 0.020975
vn -0.079148 -0.000301 -0.996863
vn -0.079148 -0.000301 -0.996863
vn -0.084764 -0.000059 -0.996401
vn -0.084542 -0.000069 -0.996420
vn -0.006041 0.999780 -0.020065
vn -0.008209 0.999761 -0.020240
vn 0.003090 0.999808 -0.019326
vn 0.003090 0.999808 -0.019326
s off
g pCube280
usemtl lambert3SG
f 13/35/41 14/36/42 21/41/43 22/42/44
f 15/33/45 16/34/46 18/37/47 17/38/48
f 23/43/49 24/44/50 20/50/51 19/51/52
f 19/39/53 20/40/54 14/45/55 13/46/56
f 14/47/57 20/48/58 24/49/59 21/52/60
f 19/53/61 13/54/62 22/55/63 23/56/64
f 22/42/65 21/41/66 16/61/67 15/62/68
f 23/56/69 22/55/70 15/57/71 17/58/72
f 17/63/73 18/64/74 24/44/75 23/43/76
f 21/52/77 24/49/78 18/59/79 16/60/80
