# This file uses centimeters as units for non-parametric coordinates.

mtllib RockTower_1.mtl
g default
v 21.002851 1.005713 21.860609
v 24.956146 1.005713 -21.545441
v 11.302241 78.597542 15.355823
v 13.226469 78.597542 -11.948537
v -17.645306 78.597542 11.948567
v -15.721079 78.597542 -15.355792
v -38.469322 1.005713 16.444063
v -34.516029 1.005713 -26.961988
v 43.843479 1.005718 4.583560
v 22.531977 86.043930 5.841095
v -15.179221 55.090889 -11.827388
v 21.618628 50.334015 -9.960438
v 26.543200 54.888737 7.554716
v 11.147511 51.366699 14.028790
v -17.752256 50.932652 13.710907
v -15.179221 32.626118 -11.827388
v 13.955908 34.134369 -9.775605
v 26.576065 43.040188 4.539799
v 16.831850 45.087345 12.049215
v -17.248665 36.222122 13.843539
v -22.960869 26.892460 -16.981615
v 18.260759 26.892460 -13.227273
v 32.435265 32.181431 5.383092
v 9.700191 35.346180 24.494537
v -21.137995 33.748917 21.717722
v -40.690533 0.513834 40.832325
v 18.781643 0.513834 46.248878
v 8.481527 29.322617 31.245249
v -22.193571 26.489101 33.103661
v -24.158306 20.505749 -17.774725
v 18.922428 20.505749 -13.851060
v 31.941422 18.612238 5.773150
v 16.058722 20.505749 17.591629
v 8.859486 20.102388 37.591087
v -23.175896 20.102388 33.667423
v -27.022011 20.505749 13.667964
v -25.790798 11.798580 -18.856022
v 20.034031 7.573284 -14.216269
v 36.975002 13.305404 3.654413
v 16.792320 11.798580 18.591034
v 14.970828 11.395229 38.590508
v -30.644478 11.395229 34.436001
v -28.822985 11.798580 14.436530
v -24.636606 14.801458 -14.950949
v 17.769053 13.546734 -11.766048
v -21.153099 16.647026 -10.903936
v 15.298448 13.798288 -10.403149
v 31.788395 15.815203 4.926475
v 29.185844 17.062742 5.943002
v 13.766806 11.118082 16.235447
v 13.033203 19.825247 15.236051
v 13.169981 10.821117 35.854462
v 6.930663 15.431454 33.799530
v -28.424477 13.613082 32.059776
v -21.525076 16.102154 31.291193
v -24.806553 17.867393 13.844774
v -26.607525 11.962458 14.613331
v -10.467400 62.765400 -13.531429
v 10.659589 63.044697 -13.211254
v 17.241434 72.266319 7.622884
v 7.873745 66.273758 16.850708
v -13.692814 69.931259 9.768698
v -15.481619 55.520733 -8.507144
v 12.768258 55.607315 -6.447080
v -12.372325 58.595814 -8.968718
v 10.319560 58.684044 -6.804285
v 21.449142 60.440815 3.345770
v 17.314318 64.002304 3.459561
v 11.459867 55.604267 9.086308
v 9.252917 58.680962 9.505638
v -16.813850 55.520733 6.120379
v -13.458825 58.595814 6.448464
v -4.581200 1.005713 -38.900990
v -3.010343 9.695873 -29.073227
v -4.079755 11.199032 -21.537186
v -1.926185 15.792109 -18.756367
v -2.428386 20.505749 -26.923672
v -2.151820 26.892460 -25.920918
v -0.354535 32.626118 -19.404238
v 0.721286 52.431194 -22.801819
v -1.205350 55.562386 -15.050036
v -1.369161 58.638256 -15.629517
v 0.406410 62.899757 -23.456388
v -1.080142 78.597542 -23.865324
v -3.830025 78.597542 15.154895
v -3.414509 65.493919 14.547353
v -3.204653 57.975510 8.658464
v -3.114601 55.560917 6.474708
v -2.533876 52.744701 18.452959
v -4.939080 39.805103 17.876173
v -8.342884 37.819241 31.671728
v -8.659780 28.831997 41.903637
v -8.512167 20.102388 42.761551
v -8.361242 15.630156 41.594677
v -9.356230 10.656573 44.222698
v -9.741745 11.395229 47.867977
v -13.405085 0.513834 57.982784
v -33.278362 9.364428 -26.036146
v -4.468804 8.158962 -38.175095
v 24.282932 6.942100 -20.526388
v 43.932312 10.228279 3.466068
v 20.344526 9.364428 21.119143
v 18.131626 8.874396 45.416157
v -12.970402 8.874396 56.908459
v -39.309547 8.874396 40.184586
v -37.096649 9.364428 15.887571
v -21.239273 78.597542 -2.724342
v -16.587543 66.080444 -2.752404
v -16.595488 58.595814 -1.309397
v -22.078999 55.520733 -1.740208
v -22.350618 53.167217 -0.012948
v -22.117649 34.289692 0.048409
v -30.395523 30.064371 0.921340
v -31.464172 20.505749 -3.228814
v -28.824316 17.211590 0.545228
v -31.529455 13.488089 -1.274022
v -33.174610 11.798580 -3.454334
v -41.025837 9.364428 -6.641537
v -42.325958 1.005713 -6.881628
vt 0.375000 0.000000
vt 0.625000 0.000000
vt 0.375000 0.250000
vt 0.625000 0.250000
vt 0.875000 0.000000
vt 0.875000 0.250000
vt 0.125000 0.000000
vt 0.125000 0.250000
vt 0.485572 0.000000
vt 0.485572 0.250000
vt 0.875000 0.179447
vt 0.625000 0.179447
vt 0.485572 0.179447
vt 0.375000 0.179447
vt 0.125000 0.179447
vt 0.875000 0.082515
vt 0.625000 0.082515
vt 0.485572 0.082515
vt 0.375000 0.082515
vt 0.125000 0.082515
vt 0.875000 0.057767
vt 0.625000 0.057767
vt 0.485572 0.057767
vt 0.375000 0.057767
vt 0.125000 0.057767
vt 0.125000 0.000000
vt 0.375000 0.000000
vt 0.375000 0.057767
vt 0.125000 0.057767
vt 0.875000 0.043539
vt 0.625000 0.043539
vt 0.485572 0.043539
vt 0.375000 0.043539
vt 0.375000 0.043539
vt 0.125000 0.043539
vt 0.125000 0.043539
vt 0.875000 0.024142
vt 0.625000 0.024142
vt 0.485572 0.024142
vt 0.375000 0.024142
vt 0.375000 0.024142
vt 0.125000 0.024142
vt 0.125000 0.024142
vt 0.625000 0.024142
vt 0.875000 0.024142
vt 0.875000 0.043539
vt 0.625000 0.043539
vt 0.485572 0.024142
vt 0.485572 0.043539
vt 0.375000 0.024142
vt 0.375000 0.043539
vt 0.375000 0.024142
vt 0.375000 0.043539
vt 0.125000 0.024142
vt 0.125000 0.043539
vt 0.125000 0.043539
vt 0.125000 0.024142
vt 0.875000 0.188676
vt 0.625000 0.188676
vt 0.485572 0.188676
vt 0.375000 0.188676
vt 0.125000 0.188676
vt 0.625000 0.179447
vt 0.875000 0.179447
vt 0.875000 0.188676
vt 0.625000 0.188676
vt 0.485572 0.179447
vt 0.485572 0.188676
vt 0.375000 0.179447
vt 0.375000 0.188676
vt 0.125000 0.179447
vt 0.125000 0.188676
vt 0.754733 0.000000
vt 0.754733 0.024142
vt 0.754733 0.024142
vt 0.754733 0.043539
vt 0.754733 0.043539
vt 0.754733 0.057767
vt 0.754733 0.082515
vt 0.754733 0.179447
vt 0.754733 0.179447
vt 0.754733 0.188676
vt 0.754733 0.188676
vt 0.754733 0.250000
vt 0.245267 0.250000
vt 0.245267 0.188676
vt 0.245267 0.188676
vt 0.245267 0.179447
vt 0.245267 0.179447
vt 0.245267 0.082515
vt 0.245267 0.057767
vt 0.245267 0.057767
vt 0.245267 0.043539
vt 0.245267 0.043539
vt 0.245267 0.024142
vt 0.245267 0.024142
vt 0.245267 0.000000
vt 0.875000 0.012589
vt 0.754733 0.012589
vt 0.625000 0.012589
vt 0.485572 0.012589
vt 0.375000 0.012589
vt 0.375000 0.012589
vt 0.245267 0.012589
vt 0.125000 0.012589
vt 0.125000 0.012589
vt 0.092429 0.000000
vt 0.288348 0.000000
vt 0.192651 1.000000
vt 0.000000 0.965850
vt 0.607065 0.000000
vt 0.925672 0.000000
vt 0.161225 1.000000
vt 0.000000 0.794122
vt 0.803462 0.000000
vt 1.000000 0.000000
vt 0.028711 0.803411
vt 0.000000 0.744969
vt 0.000000 0.000000
vt 0.223880 0.000000
vt 0.330285 0.823240
vt 0.248945 1.000000
vt 0.000000 0.000000
vt 0.315450 0.000000
vt 1.000000 0.639441
vt 0.919935 0.740150
vt 0.509613 0.000000
vt 1.000000 0.000000
vt 0.187315 0.943200
vt 0.000000 0.857136
vt 0.000000 0.000000
vt 0.409171 0.000000
vt 1.000000 0.648432
vt 0.881324 0.998903
vt 0.000000 0.000000
vt 0.872280 0.000000
vt 0.732652 1.000000
vt 0.161459 0.996375
vt 0.000000 0.000000
vt 0.369399 0.000000
vt 0.890806 0.313388
vt 1.000000 0.399766
vt 0.000000 0.000000
vt 0.207455 0.000000
vt 0.326421 0.948781
vt 0.125388 1.000000
vt 0.269914 0.000000
vt 1.000000 0.000000
vt 0.164053 0.778783
vt 0.000000 0.627649
vt 0.000000 0.000000
vt 0.634523 0.000000
vt 0.424671 0.881069
vt 0.069627 1.000000
vt 0.032210 0.462617
vt 0.550776 0.418505
vt 0.537442 0.407597
vt 0.058006 0.462617
vt 0.124867 0.337288
vt 0.649595 0.168410
vt 0.262491 0.438922
vt 0.074694 0.460940
vt 0.537383 0.214827
vt 0.726673 0.348456
vt 0.807686 0.462617
vt 0.563277 0.506860
vt 0.473609 0.536794
vt 0.425577 0.342405
vt 0.235755 0.460611
vt 0.281060 0.442396
vt 0.632134 0.295816
vt 0.431767 0.344635
vt 0.133779 0.537383
vt 0.326226 0.367374
vt 0.550666 0.371671
vt 0.049670 0.446818
vt 0.572026 0.462617
vt 0.244077 0.462617
vn 0.849386 0.104426 0.517338
vn 0.970888 0.096868 0.219073
vn 0.874648 0.476243 0.090462
vn 0.742521 0.450046 0.496106
vn 0.666063 0.081573 -0.741421
vn 0.045610 0.147845 -0.987958
vn 0.047265 0.635847 -0.770366
vn 0.541382 0.570249 -0.617837
vn -0.100688 0.141406 0.984818
vn 0.711896 0.118232 0.692261
vn 0.614366 0.497922 0.612068
vn -0.079622 0.578457 0.811818
vn 0.429486 0.747295 -0.507043
vn 0.157903 0.820857 -0.548872
vn 0.027990 -0.665584 -0.745798
vn 0.783182 -0.121094 -0.609887
vn 0.996118 -0.032795 0.081694
vn 0.550128 0.831709 -0.074968
vn 0.136729 0.707693 0.693164
vn 0.343043 -0.436408 0.831787
vn -0.070759 0.794463 0.603177
vn -0.198112 -0.515492 0.833678
vn 0.622826 0.098981 -0.776074
vn 0.030900 0.209009 -0.977425
vn 0.038342 0.101945 -0.994051
vn 0.732720 0.074273 -0.676466
vn 0.938425 0.289418 0.188671
vn 0.975547 0.216645 0.037046
vn 0.500634 0.315327 0.806185
vn 0.281346 0.316192 0.906017
vn -0.100506 0.648858 0.754243
vn -0.004111 0.434921 0.900459
vn 0.651166 0.268058 -0.710019
vn 0.055610 0.477573 -0.876831
vn 0.949917 0.227619 0.214120
vn 0.495213 0.588962 0.638661
vn -0.107909 0.857753 0.502609
vn -0.052797 0.564100 0.824017
vn 0.650731 0.466232 0.599313
vn -0.754988 0.654620 0.038288
vn -0.986873 0.158453 0.031223
vn -0.843790 0.173087 0.507996
vn -0.681664 0.599969 0.418775
vn 0.658750 -0.277991 -0.699121
vn 0.053945 -0.407770 -0.911490
vn 0.951908 -0.212673 0.220549
vn 0.714668 -0.192155 0.672552
vn 0.657228 0.018096 0.753474
vn -0.019011 0.006791 0.999796
vn -0.701118 0.667062 0.251917
vn -0.962551 -0.006472 0.271024
vn -0.853615 -0.008755 0.520831
vn -0.757443 0.443204 0.479427
vn 0.336335 0.779951 -0.527784
vn 0.091282 0.851192 -0.516856
vn 0.091540 -0.521977 -0.848033
vn 0.525661 -0.329520 -0.784282
vn 0.860010 -0.341279 0.379357
vn 0.421481 0.900991 -0.102806
vn 0.634806 0.614179 0.468834
vn 0.834728 -0.082081 0.544511
vn 0.332514 0.921547 0.200463
vn 0.752688 0.108465 0.649381
vn -0.050712 0.923209 0.380937
vn -0.022117 0.217678 0.975770
vn -0.975827 0.109101 0.189364
vn -0.721624 0.684621 0.102729
vn -0.446503 0.876016 0.182292
vn -0.781193 0.309282 0.542293
vn 0.226097 0.910522 -0.346165
vn 0.079285 0.967480 -0.240202
vn 0.291717 0.954933 -0.054814
vn 0.212531 0.929483 0.301482
vn 0.213783 0.965489 0.148755
vn -0.018389 0.973961 0.225968
vn -0.337243 0.940937 0.030082
vn -0.200820 0.971814 0.123487
vn 0.784548 -0.275727 -0.555391
vn 0.111025 -0.276915 -0.954459
vn 0.029737 -0.121734 -0.992117
vn 0.870810 -0.169923 -0.461320
vn 0.966415 -0.252853 -0.045909
vn 0.953880 -0.259937 0.150154
vn 0.261869 -0.270225 0.926501
vn 0.454992 -0.087341 0.886202
vn -0.213039 -0.303498 0.928711
vn -0.210295 -0.060975 0.975735
vn -0.656902 0.157067 -0.737434
vn -0.496645 0.637940 -0.588537
vn -0.120682 0.967706 -0.221318
vn -0.276028 0.867887 -0.413014
vn -0.550148 -0.328619 -0.767689
vn -0.601199 -0.379374 -0.703303
vn -0.560335 0.536405 -0.631106
vn -0.614358 0.335274 -0.714252
vn -0.660782 0.137888 -0.737803
vn -0.473107 0.710140 -0.521412
vn -0.733383 -0.065247 -0.676677
vn -0.679826 -0.326208 -0.656830
vn -0.738586 -0.258317 -0.622706
vn -0.682694 -0.313314 0.660124
vn -0.727542 -0.335693 0.598326
vn -0.673370 -0.176863 0.717839
vn -0.361832 0.833882 0.416796
vn -0.676331 0.302989 0.671397
vn -0.709061 0.571610 0.412909
vn -0.788972 0.609272 -0.079446
vn -0.981610 0.167512 -0.091547
vn -0.333707 0.941559 -0.045906
vn -0.665045 0.746073 -0.033008
vn -0.998654 -0.024443 0.045737
vn -0.985026 -0.122558 -0.121256
vn -0.869503 0.492737 0.034279
vn -0.873334 0.444095 -0.200166
vn -0.989391 0.074501 -0.124716
vn -0.716642 0.697084 -0.022318
vn -0.951718 0.306949 -0.003910
vn -0.953399 -0.281291 -0.109113
vn -0.923122 -0.374474 -0.087265
s 1
g pCube30
usemtl lambert3SG
f 1/1/1 9/9/2 101/101/3 102/102/4
f 2/2/5 73/73/6 99/99/7 100/100/8
f 97/97/9 27/27/10 103/103/11 104/104/12
f 101/101/3 9/9/2 2/2/5 100/100/8
f 64/63/13 81/81/14 82/82/15 66/66/16
f 68/68/17 67/67/18 64/63/13 66/66/16
f 69/69/19 67/67/18 68/68/17 70/70/20
f 88/88/21 69/69/19 70/70/20 87/87/22
f 17/17/23 79/79/24 80/80/25 12/12/26
f 13/13/27 18/18/28 17/17/23 12/12/26
f 19/19/29 18/18/28 13/13/27 14/14/30
f 90/90/31 19/19/29 14/14/30 89/89/32
f 22/22/33 78/78/34 79/79/24 17/17/23
f 18/18/28 23/23/35 22/22/33 17/17/23
f 24/24/36 23/23/35 18/18/28 19/19/29
f 91/91/37 24/24/36 19/19/29 90/90/31
f 1/1/1 102/102/4 103/103/11 27/27/10
f 24/24/36 91/91/37 92/92/38 28/28/39
f 106/106/40 7/7/41 26/26/42 105/105/43
f 31/31/44 77/77/45 78/78/34 22/22/33
f 23/23/35 32/32/46 31/31/44 22/22/33
f 33/33/47 32/32/46 23/23/35 24/24/36
f 34/34/48 33/33/47 24/24/36 28/28/39
f 93/93/49 34/34/48 28/28/39 92/92/38
f 25/25/50 36/36/51 35/35/52 29/29/53
f 45/44/54 75/75/55 76/76/56 47/47/57
f 49/49/58 48/48/59 45/44/54 47/47/57
f 50/50/60 48/48/59 49/49/58 51/51/61
f 52/52/62 50/50/60 51/51/61 53/53/63
f 95/95/64 52/52/62 53/53/63 94/94/65
f 56/56/66 57/57/67 54/54/68 55/55/69
f 38/38/70 74/74/71 75/75/55 45/44/54
f 77/77/45 31/31/44 47/47/57 76/76/56
f 39/39/72 38/38/70 45/44/54 48/48/59
f 31/31/44 32/32/46 49/49/58 47/47/57
f 40/40/73 39/39/72 48/48/59 50/50/60
f 32/32/46 33/33/47 51/51/61 49/49/58
f 41/41/74 40/40/73 50/50/60 52/52/62
f 33/33/47 34/34/48 53/53/63 51/51/61
f 96/96/75 41/41/74 52/52/62 95/95/64
f 34/34/48 93/93/49 94/94/65 53/53/63
f 43/43/76 42/42/77 54/54/68 57/57/67
f 35/35/52 36/36/51 56/56/66 55/55/69
f 59/59/78 83/83/79 84/84/80 4/4/81
f 10/10/82 60/60/83 59/59/78 4/4/81
f 61/61/84 60/60/83 10/10/82 3/3/85
f 86/86/86 61/61/84 3/3/85 85/85/87
f 12/12/26 80/80/25 81/81/14 64/63/13
f 83/83/79 59/59/78 66/66/16 82/82/15
f 13/13/27 12/12/26 64/63/13 67/67/18
f 59/59/78 60/60/83 68/68/17 66/66/16
f 14/14/30 13/13/27 67/67/18 69/69/19
f 60/60/83 61/61/84 70/70/20 68/68/17
f 89/89/32 14/14/30 69/69/19 88/88/21
f 61/61/84 86/86/86 87/87/22 70/70/20
f 73/73/6 8/5/88 98/98/89 99/99/7
f 75/75/55 74/74/71 37/37/90 44/45/91
f 76/76/56 75/75/55 44/45/91 46/46/92
f 30/30/93 77/77/45 76/76/56 46/46/92
f 78/78/34 77/77/45 30/30/93 21/21/94
f 79/79/24 78/78/34 21/21/94 16/16/95
f 80/80/25 79/79/24 16/16/95 11/11/96
f 81/81/14 80/80/25 11/11/96 63/64/97
f 82/82/15 81/81/14 63/64/97 65/65/98
f 58/58/99 83/83/79 82/82/15 65/65/98
f 84/84/80 83/83/79 58/58/99 6/6/100
f 62/62/101 86/86/86 85/85/87 5/8/102
f 87/87/22 86/86/86 62/62/101 72/72/103
f 71/71/104 88/88/21 87/87/22 72/72/103
f 15/15/105 89/89/32 88/88/21 71/71/104
f 20/20/106 90/90/31 89/89/32 15/15/105
f 25/25/50 91/91/37 90/90/31 20/20/106
f 92/92/38 91/91/37 25/25/50 29/29/53
f 35/35/52 93/93/49 92/92/38 29/29/53
f 94/94/65 93/93/49 35/35/52 55/55/69
f 54/54/68 95/95/64 94/94/65 55/55/69
f 42/42/77 96/96/75 95/95/64 54/54/68
f 26/26/42 97/97/9 104/104/12 105/105/43
f 99/99/7 98/98/89 37/37/90 74/74/71
f 100/100/8 99/99/7 74/74/71 38/38/70
f 39/39/72 101/101/3 100/100/8 38/38/70
f 102/102/4 101/101/3 39/39/72 40/40/73
f 103/103/11 102/102/4 40/40/73 41/41/74
f 104/104/12 103/103/11 41/41/74 96/96/75
f 105/105/43 104/104/12 96/96/75 42/42/77
f 43/43/76 106/106/40 105/105/43 42/42/77
f 118/176/107 119/178/108 7/109/41 106/110/40
f 117/174/109 118/177/107 106/113/40 43/114/76
f 116/172/110 117/175/109 43/117/76 57/118/67
f 57/119/67 56/120/66 115/170/111 116/173/110
f 114/168/112 115/171/111 56/125/66 36/126/51
f 36/127/51 25/128/50 113/166/113 114/169/112
f 25/131/50 20/132/106 112/164/114 113/167/113
f 111/162/115 112/165/114 20/137/106 15/138/105
f 15/139/105 71/140/104 110/160/116 111/163/115
f 109/158/117 110/161/116 71/145/104 72/146/103
f 72/147/103 62/148/101 108/156/118 109/159/117
f 107/155/119 108/157/118 62/153/101 5/154/102
f 6/151/100 58/152/99 108/157/118 107/155/119
f 109/159/117 108/156/118 58/149/99 65/150/98
f 65/143/98 63/144/97 110/161/116 109/158/117
f 111/163/115 110/160/116 63/141/97 11/142/96
f 11/135/96 16/136/95 112/165/114 111/162/115
f 113/167/113 112/164/114 16/133/95 21/134/94
f 114/169/112 113/166/113 21/129/94 30/130/93
f 30/123/93 46/124/92 115/171/111 114/168/112
f 116/173/110 115/170/111 46/121/92 44/122/91
f 44/115/91 37/116/90 117/175/109 116/172/110
f 37/111/90 98/112/89 118/177/107 117/174/109
f 98/107/89 8/108/88 119/178/108 118/176/107
