# This file uses centimeters as units for non-parametric coordinates.

mtllib RockTower_2.mtl
g default
v -15.998529 -3.491633 4.428345
v 17.175275 -3.013996 2.210542
v -16.949217 6.959948 6.096656
v 17.978958 7.089444 2.876528
v -22.699313 5.775283 -9.475498
v 23.619148 5.635839 -12.313342
v -19.924825 -5.762144 -10.547485
v 22.392437 -4.799304 -13.219648
v -1.856739 7.802336 2.669540
v 0.666358 -10.072204 -12.831106
v 0.443482 -1.160994 -0.898310
v 12.479833 -9.974036 -14.004747
v 9.216553 -5.561643 5.569633
v 7.305454 6.975582 5.652164
v 24.016100 6.742948 -6.526727
v 21.396981 -2.045333 -6.575086
v 13.029381 -9.271710 -8.412143
v 0.009536 -7.876239 -6.001948
v -19.165957 -5.109044 -3.901100
v -22.735309 6.271045 -0.877992
v -9.965533 -9.063151 -11.877468
v -11.548501 -10.219859 -5.099023
v -8.561052 -5.250817 5.968480
v -9.297041 7.325761 8.906279
vt 0.375000 0.000000
vt 0.625000 0.000000
vt 0.375000 0.250000
vt 0.625000 0.250000
vt 0.375000 0.750000
vt 0.625000 0.750000
vt 0.375000 1.000000
vt 0.625000 1.000000
vt 0.875000 0.000000
vt 0.875000 0.250000
vt 0.125000 0.000000
vt 0.125000 0.250000
vt 0.501824 0.250000
vt 0.501824 0.750000
vt 0.501824 0.000000
vt 0.501824 1.000000
vt 0.559066 0.750000
vt 0.559066 0.000000
vt 0.559066 1.000000
vt 0.559066 0.250000
vt 0.756146 0.250000
vt 0.625000 0.868854
vt 0.756146 0.000000
vt 0.559066 0.868854
vt 0.501824 0.868854
vt 0.243854 0.000000
vt 0.375000 0.868854
vt 0.243854 0.250000
vt 0.439271 0.750000
vt 0.439271 0.868854
vt 0.439271 0.000000
vt 0.439271 1.000000
vt 0.439271 0.250000
vn -0.554364 -0.486896 0.674991
vn 0.214912 -0.572266 0.791406
vn 0.258863 -0.191671 0.946706
vn -0.580006 -0.257921 0.772703
vn -0.791097 -0.611615 0.009604
vn -0.126511 -0.991423 0.032801
vn -0.066111 -0.956992 0.282481
vn -0.762093 -0.591083 0.264266
vn 0.796535 -0.505430 0.331773
vn 0.740305 -0.637382 0.213757
vn 0.973665 -0.200207 0.109061
vn 0.917481 -0.186770 0.351206
vn -0.895482 -0.285866 0.341163
vn -0.958523 -0.277185 0.066344
vn 0.042212 -0.931943 0.360140
vn 0.018104 -0.985598 0.168134
vn 0.220802 -0.943668 0.246449
vn 0.200507 -0.927498 0.315506
vn 0.232530 -0.215054 0.948516
vn 0.043722 -0.633403 0.772586
vn -0.002988 -0.607691 0.794168
vn -0.152889 -0.154265 0.976129
vn 0.614877 -0.454998 0.644129
vn 0.618007 -0.098137 0.780023
s 1
g pCube28
usemtl lambert3SG
f 1/1/1 23/31/2 24/33/3 3/3/4
f 7/5/5 21/29/6 22/30/7 19/27/8
f 16/23/9 8/9/10 6/10/11 15/21/12
f 7/11/5 19/26/8 20/28/13 5/12/14
f 18/25/15 10/14/16 12/17/17 17/24/18
f 9/13/19 11/15/20 13/18/21 14/20/22
f 17/24/18 12/17/17 8/6/10 16/22/9
f 14/20/22 13/18/21 2/2/23 4/4/24
f 2/2/23 16/23/9 15/21/12 4/4/24
f 13/19/21 17/24/18 16/22/9 2/8/23
f 11/16/20 18/25/15 17/24/18 13/19/21
f 19/27/8 22/30/7 23/32/2 1/7/1
f 20/28/13 19/26/8 1/1/1 3/3/4
f 21/29/6 10/14/16 18/25/15 22/30/7
f 23/32/2 22/30/7 18/25/15 11/16/20
f 24/33/3 23/31/2 11/15/20 9/13/19
g default
v -17.295546 5.940637 10.769432
v 19.578883 6.059825 6.182281
v -23.366027 4.850255 -11.413469
v 24.252943 4.777917 -14.551638
v -1.362088 6.715980 5.887425
v 8.310655 5.955025 10.136239
v 25.952424 5.740903 -7.212878
v -23.404043 5.306560 0.833880
v -9.216966 6.277338 14.771802
v -13.750264 9.030766 8.588306
v -7.214032 9.003058 9.787049
v -18.692539 8.517745 0.549630
v 16.084201 9.127201 4.876926
v 21.240919 8.869169 -5.960861
v -18.661779 8.148559 -9.359490
v 20.901854 8.044715 -12.630267
v -0.858776 9.357954 2.598853
v 6.967273 9.042415 8.076009
v -17.295546 1.786779 10.769432
v -9.216966 2.123478 14.771802
v -23.404043 1.152700 0.833880
v 19.578883 1.905965 6.182281
v 25.952424 1.587045 -7.212878
v -1.362088 2.562117 5.887425
v 8.310655 1.801167 10.136239
v -23.366027 0.696397 -11.413469
v -11.075964 9.492521 3.145899
v -5.703158 9.467921 3.818795
v -15.138531 9.037050 -1.366493
v 13.448071 9.578139 1.062570
v 17.686911 9.349051 -5.021060
v -0.479115 9.783006 -0.216192
v 5.953924 9.502863 2.858328
v -15.113247 8.709278 -6.928829
vt 0.000000 0.000000
vt 1.000000 0.000000
vt 1.000000 1.000000
vt 0.000000 1.000000
vt 0.000000 0.000000
vt 1.000000 0.000000
vt 1.000000 1.000000
vt 0.000000 1.000000
vt 0.000000 0.000000
vt 1.000000 0.000000
vt 1.000000 1.000000
vt 0.000000 1.000000
vt 0.000000 0.000000
vt 1.000000 0.000000
vt 1.000000 1.000000
vt 0.000000 1.000000
vt 0.000000 0.000000
vt 1.000000 0.000000
vt 1.000000 1.000000
vt 0.000000 1.000000
vt 0.000000 0.000000
vt 1.000000 0.000000
vt 1.000000 1.000000
vt 0.000000 1.000000
vt 0.000000 0.000000
vt 1.000000 0.000000
vt 1.000000 1.000000
vt 0.000000 1.000000
vt 0.000000 0.000000
vt 1.000000 0.000000
vt 1.000000 1.000000
vt 0.000000 1.000000
vt 0.000000 0.000000
vt 1.000000 0.000000
vt 1.000000 1.000000
vt 0.000000 1.000000
vt 0.000000 0.000000
vt 1.000000 0.000000
vt 1.000000 1.000000
vt 0.000000 1.000000
vt 0.000000 0.000000
vt 1.000000 0.000000
vt 1.000000 1.000000
vt 0.000000 1.000000
vt 0.000000 0.000000
vt 1.000000 0.000000
vt 1.000000 1.000000
vt 0.000000 1.000000
vt 0.000000 0.000000
vt 1.000000 0.000000
vt 1.000000 1.000000
vt 0.000000 1.000000
vt 0.000000 0.000000
vt 1.000000 0.000000
vt 1.000000 1.000000
vt 0.000000 1.000000
vt 0.000000 0.000000
vt 1.000000 0.000000
vt 1.000000 1.000000
vt 0.000000 1.000000
vt 0.000000 0.000000
vt 1.000000 0.000000
vt 1.000000 1.000000
vt 0.000000 1.000000
vt 0.000000 0.000000
vt 1.000000 0.000000
vt 1.000000 1.000000
vt 0.000000 1.000000
vt 0.000000 0.000000
vt 1.000000 0.000000
vt 1.000000 1.000000
vt 0.000000 1.000000
vt 0.000000 0.000000
vt 1.000000 0.000000
vt 1.000000 1.000000
vt 0.000000 1.000000
vt 0.000000 0.000000
vt 1.000000 0.000000
vt 1.000000 1.000000
vt 0.000000 1.000000
vt 0.000000 0.000000
vt 1.000000 0.000000
vt 1.000000 1.000000
vt 0.000000 1.000000
vt 0.000000 0.000000
vt 1.000000 0.000000
vt 1.000000 1.000000
vt 0.000000 1.000000
vn -0.635213 0.470798 0.612253
vn 0.200547 0.379552 0.903173
vn 0.214017 0.872887 0.438481
vn -0.276126 0.913481 0.298843
vn -0.854939 0.477973 0.201547
vn -0.443034 0.891716 0.092539
vn 0.673696 0.390402 0.627471
vn 0.826294 0.508332 0.242563
vn 0.534243 0.834732 0.133443
vn 0.331689 0.857871 0.392479
vn 0.241549 0.376914 0.894198
vn 0.015756 0.284405 0.958575
vn -0.058879 0.835010 0.547076
vn 0.016555 0.933494 0.358212
vn 0.565041 0.804094 -0.184830
vn 0.565041 0.804094 -0.184830
vn -0.892517 0.450590 -0.019558
vn -0.496031 0.867587 -0.035295
vn -0.706609 0.000000 0.707604
vn 0.276022 0.000000 0.961151
vn -0.966700 0.000000 0.255913
vn 0.702341 0.000000 0.711840
vn 0.902994 0.000000 0.429653
vn 0.248124 0.000000 0.968728
vn -0.005992 0.000000 0.999982
vn -0.999995 0.000000 -0.003104
vn 0.020801 0.995309 0.094487
vn -0.071831 0.996248 0.048277
vn -0.139756 0.990130 -0.010567
vn 0.128966 0.990713 0.043088
vn 0.066996 0.995206 0.071256
vn -0.002216 0.994807 0.101756
vn -0.001478 0.993756 0.111563
vn -0.146991 0.988112 -0.045045
s 1
g pCube29
usemtl lambert2SG
f 25/34/25 33/35/26 35/36/27 34/37/28
f 32/38/29 25/39/25 34/40/28 36/41/30
f 26/42/31 31/43/32 38/44/33 37/45/34
f 29/46/35 30/47/36 42/48/37 41/49/38
f 30/50/36 26/51/31 37/52/34 42/53/37
f 31/54/32 28/55/39 40/56/40 38/57/33
f 27/58/41 32/59/29 36/60/30 39/61/42
f 33/62/26 29/63/35 41/64/38 35/65/27
f 33/66/26 25/67/25 43/68/43 44/69/44
f 25/70/25 32/71/29 45/72/45 43/73/43
f 31/74/32 26/75/31 46/76/46 47/77/47
f 30/78/36 29/79/35 48/80/48 49/81/49
f 26/82/31 30/83/36 49/84/49 46/85/46
f 32/86/29 27/87/41 50/88/50 45/89/45
f 29/90/35 33/91/26 44/92/44 48/93/48
f 34/94/28 35/95/27 52/96/51 51/97/52
f 36/98/30 34/99/28 51/100/52 53/101/53
f 37/102/34 38/103/33 55/104/54 54/105/55
f 41/106/38 42/107/37 57/108/56 56/109/57
f 42/110/37 37/111/34 54/112/55 57/113/56
f 39/114/42 36/115/30 53/116/53 58/117/58
f 35/118/27 41/119/38 56/120/57 52/121/51
