# This file uses centimeters as units for non-parametric coordinates.

mtllib Rockcliff2.mtl
v -10.137234 34.334945 10.412247
v 12.105572 35.834590 11.086403
v -7.929559 49.657808 11.005659
v 16.957173 57.628090 9.656886
v -10.530275 52.128638 -7.295856
v 7.875162 55.200384 -4.795274
v -8.698897 37.025636 -7.444475
v 17.887004 36.365496 -9.852461
v -2.811453 53.269299 12.100741
v -2.811453 54.732144 -8.544931
v -6.000899 32.725034 -9.210773
v -6.000899 32.725034 8.559116
v 1.451251 44.374848 19.060840
v -5.874528 44.374848 12.361225
v -5.567527 48.056297 -4.476111
v -1.004470 43.072493 -6.959586
v 15.656344 43.992898 -9.600593
v 16.334415 46.308797 10.022343
v -4.886952 15.523892 -7.356227
v -4.886952 15.523892 10.103953
v 6.519291 15.523892 -7.356227
v 7.269579 14.658177 6.037845
v -8.589577 14.022124 -9.456723
v -8.589577 14.022124 16.533478
v 8.389089 14.022124 -9.456723
v 9.505915 12.733474 10.480901
v 7.328140 45.138500 19.508653
v 4.625907 33.627741 13.951606
v -0.086731 15.182048 10.659898
v -1.444238 13.513282 16.647140
v -1.885238 14.022124 -15.634609
v -0.382987 15.523892 -11.026947
v 4.317025 33.713797 -8.931902
v 4.549068 43.586758 -10.363996
v 1.408352 54.917030 -10.627990
v 1.850117 55.106781 14.294373
v -12.850590 46.185697 4.079174
v -16.168866 35.658461 1.628774
v -11.958853 31.225395 -0.855796
v -8.409713 15.523892 1.515534
v -14.295066 14.022124 3.749249
v 15.482805 13.367347 0.673865
v 11.595038 15.084013 -0.550511
v 17.419708 35.941789 3.641714
v 23.257026 46.307470 3.231295
v 15.570609 57.533587 3.372982
v -15.793935 50.873173 2.003400
v -26.661260 13.247618 -3.999324
v -14.024984 12.529921 17.218528
v -36.402896 -4.740140 1.146063
v -19.147011 -5.629695 28.673975
v -2.167389 13.006661 -30.328159
v 20.176496 12.189833 -24.988844
v 24.668763 -6.024290 -26.260428
v -3.901914 -5.049031 -33.660648
v 27.937695 11.159918 -6.350084
v 20.884017 10.661628 12.865929
v 25.710681 -8.029303 22.521219
v 34.016597 -7.352830 -2.184104
v 5.217651 11.439864 21.730242
v 5.019258 -6.993970 34.124431
v -21.438436 13.432597 -22.596434
v -28.027589 -4.549947 -23.314343
v 5.334663 8.322619 32.617413
v 24.758053 7.353476 21.687133
v 32.924301 7.981780 -1.750699
v 23.819280 9.240493 -24.549306
v -3.344194 10.193851 -31.368688
v -26.476372 10.685561 -21.705641
v -33.798377 10.487235 1.292986
v -17.807065 9.630866 27.315117
v -20.499534 28.025245 1.358948
v -9.337981 27.907820 22.083290
v -16.870761 19.322394 1.617934
v -10.765258 17.828061 16.533682
v 1.051059 30.106307 -25.814745
v 21.802211 30.409590 -17.247739
v 19.422693 13.621276 -14.639000
v 0.059435 17.985053 -18.067704
v 32.036099 28.009144 3.296445
v 25.963403 25.624671 22.457834
v 13.835644 12.726684 12.255454
v 25.128500 11.692798 -1.763268
v 6.019924 26.502272 33.019881
v 1.039400 14.707031 22.963495
v -10.795603 29.404924 -17.073549
v -11.951397 19.464094 -12.792515
v 3.190101 21.186833 29.782059
v 22.104833 19.266932 18.847776
v 27.437971 21.632515 0.957406
v 19.458197 23.285906 -15.860182
v -1.357614 24.797861 -25.455780
v -13.140342 24.850599 -16.432488
v -20.889213 24.134890 1.579074
v -11.685738 23.356589 20.994025
v 14.442524 26.072174 25.038183
v 7.233155 34.709282 10.350166
v 10.683554 45.712042 12.662327
v 7.522839 55.370079 11.693019
v 3.519222 55.055897 -9.966730
v 8.051398 44.117530 -12.886281
v 8.127983 35.876853 -13.476263
v 9.859737 29.703466 -25.589504
v 7.633236 24.056879 -23.266398
v 5.726280 17.059256 -18.167235
v 1.794025 15.523892 -11.730983
v 0.332507 14.022124 -18.456149
v 7.254981 12.606345 -30.883554
v 8.352359 9.726619 -31.381024
v 8.269496 -5.526980 -33.834231
v 13.329176 -7.501375 24.637595
v 13.237941 7.847662 23.906281
v 11.367490 11.058462 14.213894
v 1.104717 13.131108 7.775967
v 2.312795 14.925307 5.891720
v 6.210950 13.736495 15.432759
v 11.249261 20.245922 21.910102
v -10.186218 60.485154 9.335649
v -5.812454 63.609188 9.616431
v -7.132253 67.739012 0.297145
v -15.218591 61.824375 0.635659
v -0.015870 65.776825 10.338624
v 4.637563 66.361999 7.479142
v 5.831528 68.293568 -2.656776
v 0.598409 69.054948 0.099538
v 3.285205 65.411825 -11.011698
v -0.213304 65.853314 -10.850895
v -5.086894 65.308303 -9.269968
v -11.506690 63.190305 -8.262147
v 10.069607 68.050598 5.286444
v 10.883258 67.238904 -0.804606
v 7.494697 64.936108 -8.150778
vt 0.466468 0.776303
vt 0.451711 0.720511
vt 0.552908 0.824406
vt 0.496176 0.831248
vt 0.345757 0.852916
vt 0.307957 0.814359
vt 0.285216 0.721556
vt 0.360777 0.774306
vt 0.421218 0.782094
vt 0.370298 0.703466
vt 0.625057 0.756929
vt 0.690336 0.732174
vt 0.690786 0.816067
vt 0.649809 0.822728
vt 0.425626 0.849866
vt 0.904936 0.749312
vt 0.261377 0.813485
vt 0.809382 0.815248
vt 0.865397 0.722634
vt 0.614043 0.820867
vt 0.578991 0.823064
vt 0.552704 0.729662
vt 0.589567 0.750163
vt 0.527024 0.886869
vt 0.485963 0.868296
vt 0.417648 0.887600
vt 0.359050 0.896615
vt 0.305040 0.900541
vt 0.271087 0.898032
vt 0.804690 0.898590
vt 0.692856 0.884512
vt 0.662165 0.880938
vt 0.564429 0.888537
vt 0.604998 0.884326
vt 0.502383 0.653484
vt 0.383140 0.650399
vt 0.385469 0.629886
vt 0.492133 0.629539
vt 0.943565 0.623486
vt 0.880052 0.630432
vt 0.873564 0.585578
vt 0.947012 0.559126
vt 0.693983 0.654796
vt 0.628805 0.644358
vt 0.630888 0.619633
vt 0.703211 0.624805
vt 0.590113 0.613253
vt 0.593347 0.650942
vt 0.562640 0.641610
vt 0.554483 0.627429
vt 0.477842 0.532990
vt 0.396657 0.532943
vt 0.287316 0.263213
vt 0.326772 0.202430
vt 0.266992 0.505418
vt 0.562462 0.303928
vt 0.597665 0.317546
vt 0.582315 0.329301
vt 0.691607 0.505884
vt 0.497617 0.231608
vt 0.523918 0.287350
vt 0.617558 0.505129
vt 0.448169 0.185385
vt 0.516249 0.198636
vt 0.565372 0.492773
vt 0.529290 0.520246
vt 0.366886 0.191893
vt 0.404826 0.221985
vt 0.295196 0.198030
vt 0.220201 0.282029
vt 0.194653 0.251608
vt 0.275700 0.150032
vt 0.661950 0.342469
vt 0.667698 0.289294
vt 0.683759 0.280141
vt 0.687286 0.350315
vt 0.580924 0.157235
vt 0.486925 0.130755
vt 0.472521 0.086364
vt 0.575165 0.123445
vt 0.441986 0.159187
vt 0.388918 0.146955
vt 0.365923 0.098565
vt 0.419550 0.102594
vt 0.207077 0.364957
vt 0.185749 0.349469
vt 0.316866 0.519644
vt 0.291306 0.337357
vt 0.264782 0.655050
vt 0.279032 0.625105
vt 0.648846 0.222620
vt 0.655620 0.200933
vt 0.537669 0.270067
vt 0.554464 0.259313
vt 0.794694 0.656702
vt 0.789528 0.614853
vt 0.776823 0.715321
vt 0.759583 0.800638
vt 0.761755 0.890456
vt 0.340013 0.027615
vt 0.411248 0.015772
vt 0.485860 0.011328
vt 0.614433 0.059318
vt 0.719334 0.153834
vt 0.769883 0.251826
vt 0.787986 0.329847
vt 0.114221 0.358567
vt 0.129994 0.226037
vt 0.227938 0.095484
vt 0.479693 0.593545
vt 0.389037 0.595982
vt 0.218693 0.535928
vt 0.836807 0.525644
vt 0.707187 0.581596
vt 0.627074 0.563986
vt 0.577808 0.557998
vt 0.434382 0.334738
vt 0.547280 0.589617
vt 0.299432 0.587269
vt 0.766125 0.572332
vt 0.523991 0.965186
vt 0.482096 0.947357
vt 0.415879 0.957412
vt 0.619427 0.964851
vt 0.576194 0.968173
vt 0.271363 0.979108
vt 0.788607 0.972232
vt 0.308424 0.979430
vt 0.358275 0.968943
vt 0.667327 0.957887
vt 0.701522 0.956846
vt 0.755010 0.958916
vt 0.431146 0.511620
vt 0.513978 0.500382
vt 0.556762 0.469423
vt 0.332003 0.316140
vt 0.355770 0.388894
vt 0.367853 0.444577
vt 0.384670 0.481172
vt 0.469068 0.403287
vt 0.473259 0.461277
vt 0.552472 0.405441
vt 0.555834 0.347642
vt 0.393445 0.241653
vt 0.820182 0.903446
vt 0.812525 0.982017
vt 0.171635 0.609115
vt 0.153270 0.660363
vt 0.873204 0.493929
vt 0.558892 0.318951
vt 0.273176 0.742942
vt 0.236749 0.458979
vt 0.256603 0.451682
vt 0.159694 0.491039
vt 0.303034 0.387635
vt 0.837222 0.822967
vt 0.414182 0.234779
vt 0.454282 0.218065
vt 0.823886 0.472074
vt 0.766665 0.483712
vt 0.506335 0.225781
vt 0.318834 0.283717
vt 0.348539 0.236676
vt 0.325841 0.373838
vt 0.836772 0.456827
vt 0.384753 0.222531
vt 0.317509 0.338331
vt 0.824083 0.760078
vt 0.753267 0.752607
vt 0.583058 0.748893
vt 0.624019 0.737304
vt 0.684611 0.760060
vt 0.862699 0.758713
vt 0.219738 0.778354
vt 0.561919 0.754588
vt 0.413558 0.749306
vt 0.480618 0.754744
vt 0.347144 0.741046
vn -0.673371 -0.287987 0.680907
vn -0.412531 0.720978 0.556783
vn -0.357196 -0.157377 0.920676
vn -0.633089 0.001483 0.774078
vn -0.652493 0.300886 0.695500
vn -0.395382 0.606984 0.689379
vn -0.398163 0.913780 0.080449
vn -0.961630 0.268865 0.054588
vn -0.578677 -0.097623 -0.809693
vn -0.280354 0.047817 -0.958705
vn -0.319267 0.831016 -0.455501
vn -0.635121 0.219511 -0.740565
vn -0.998460 0.055068 -0.006790
vn -0.615007 0.788358 -0.016065
vn 0.364713 0.665967 0.650748
vn 0.732999 0.649925 0.200771
vn 0.962765 0.224459 -0.150673
vn 0.641108 -0.039160 0.766451
vn -0.999390 0.034189 -0.007109
vn -0.027548 0.707044 0.706633
vn 0.216666 0.678551 0.701872
vn 0.131135 0.983647 -0.123458
vn -0.074610 0.996321 0.042164
vn -0.285696 0.765217 -0.576906
vn -0.417907 -0.021763 -0.908229
vn 0.209191 0.300584 -0.930531
vn -0.029920 0.742254 -0.669450
vn 0.513194 0.036699 0.857488
vn 0.360536 -0.067653 0.930288
vn 0.040807 0.755951 0.653354
vn 0.482903 0.573936 0.661364
vn -0.357176 0.233712 0.904325
vn -0.666212 0.043428 0.744497
vn -0.970919 -0.225960 0.079106
vn -0.626589 -0.323324 -0.709117
vn -0.308941 -0.171844 -0.935428
vn -0.331718 -0.108074 -0.937168
vn 0.377793 0.173987 -0.909396
vn 0.827653 0.427862 -0.363214
vn 0.632433 0.372981 0.678907
vn 0.070677 0.402715 0.912593
vn 0.361095 0.362973 0.858989
vn -0.471766 0.735316 0.486567
vn -0.770648 0.634873 0.055114
vn -0.989264 -0.140553 0.040017
vn -0.759459 -0.256301 0.597939
vn -0.238801 0.782442 -0.575116
vn 0.273059 0.502022 -0.820617
vn 0.279949 -0.429013 -0.858823
vn -0.363317 -0.391612 -0.845365
vn 0.924425 0.380184 0.029974
vn 0.757550 0.377722 0.532394
vn 0.587610 -0.669472 0.454447
vn 0.872261 -0.479820 -0.094522
vn 0.309990 -0.704439 0.638492
vn 0.285561 0.465214 0.837873
vn 0.048192 0.684769 0.727165
vn -0.116023 -0.574866 0.809980
vn -0.602795 -0.748965 0.275118
vn -0.832440 -0.550594 -0.062373
vn -0.113932 0.992858 0.035395
vn -0.127464 0.957312 0.259435
vn -0.437291 -0.686295 -0.581184
vn -0.045221 -0.811976 -0.581936
vn 0.046632 0.994652 -0.092159
vn -0.034786 0.996064 -0.081520
vn -0.151505 -0.984953 -0.083150
vn -0.184297 -0.982343 0.032203
vn 0.149301 0.952004 0.267203
vn 0.181137 0.982302 0.047674
vn -0.155959 -0.961315 0.227049
vn -0.109810 -0.986471 0.121724
vn 0.104191 0.952066 0.287600
vn 0.285743 0.941445 0.178975
vn -0.130833 0.969397 0.207731
vn -0.238061 0.970218 0.044770
vn -0.915829 0.361649 0.174550
vn -0.534098 0.480351 0.695703
vn -0.066310 0.947202 -0.313707
vn 0.094476 0.962584 -0.253982
vn 0.252709 0.171134 -0.952287
vn -0.268428 0.185999 -0.945172
vn 0.368607 0.929584 0.001550
vn 0.242228 0.950795 0.193169
vn 0.738391 0.350471 0.576150
vn 0.965729 0.259504 -0.005093
vn 0.165797 0.949507 0.266360
vn 0.121942 0.967464 0.221685
vn 0.117187 0.479328 0.869777
vn 0.456812 0.462151 0.760091
vn -0.182374 0.954004 -0.237943
vn -0.707555 0.317214 -0.631460
vn -0.618943 -0.636693 -0.459925
vn -0.061228 0.996848 -0.050450
vn -0.514659 0.753378 -0.409327
vn -0.773340 -0.259076 -0.578640
vn 0.241840 0.951765 -0.188830
vn 0.764349 0.234118 -0.600799
vn -0.074544 -0.973885 -0.214457
vn 0.137198 0.987781 -0.073931
vn 0.746795 0.458572 -0.481673
vn 0.693416 -0.322069 -0.644551
vn 0.637053 0.675850 -0.370661
vn 0.717148 0.293324 -0.632187
vn 0.667264 0.345262 -0.659965
vn 0.381884 0.500243 -0.777124
vn -0.190492 0.672533 -0.715131
vn -0.348162 0.578479 -0.737662
vn -0.652003 0.347798 -0.673743
vn 0.129139 0.093790 0.987181
vn 0.482484 0.052582 0.874325
vn 0.796748 0.071965 0.600011
vn 0.996771 0.080150 -0.004764
vn 0.781473 0.111052 -0.613976
vn 0.251670 0.144671 -0.956939
vn -0.266025 0.149115 -0.952363
vn -0.729559 0.158632 -0.665267
vn -0.973337 0.150670 0.172957
vn -0.616882 0.127603 0.776642
vn -0.550516 -0.749600 0.367467
vn -0.709573 -0.704601 0.006606
vn -0.230116 -0.777051 -0.585866
vn 0.074034 -0.788044 -0.611151
vn 0.693740 -0.719538 -0.031458
vn 0.188107 -0.942679 0.275630
vn 0.125142 -0.940248 0.316658
vn -0.135000 -0.865685 0.482042
vn -0.534171 -0.750531 -0.389055
vn 0.444342 -0.751270 -0.488011
vn 0.396199 0.729445 0.557616
vn 0.804908 0.466219 -0.367101
vn 0.746135 0.159770 -0.646340
s 1
usemtl lambert3SG
f 1/1/1 12/177/2 13/3/3 14/4/4
f 118/60/5 119/61/6 120/117/7 121/144/8
f 15/5/9 16/6/10 11/178/11 7/8/12
f 38/9/13 39/176/14 12/177/2 1/1/1
f 2/11/15 44/172/16 45/13/17 18/14/18
f 38/9/13 1/1/1 14/4/4 37/15/19
f 122/143/20 123/142/21 124/141/22 125/140/23
f 33/173/24 34/156/25 101/18/26 102/168/27
f 98/20/28 27/21/29 28/175/30 97/23/31
f 14/4/4 13/3/3 9/24/32 3/25/33
f 47/26/34 37/15/19 14/4/4 3/25/33
f 5/27/35 10/28/36 16/6/10 15/5/9
f 101/18/26 34/156/25 35/145/37 100/30/38
f 18/14/18 45/13/17 46/31/39 4/32/40
f 36/33/41 27/21/29 98/20/28 99/34/42
f 73/35/43 72/36/44 94/37/45 95/38/46
f 76/39/47 103/40/48 104/41/49 92/42/50
f 80/43/51 81/44/52 89/45/53 90/46/54
f 117/47/55 96/48/56 84/49/57 88/50/58
f 20/163/59 40/162/60 41/53/61 24/54/62
f 32/150/63 106/56/64 107/57/65 31/58/66
f 43/161/67 22/158/68 26/63/69 42/64/70
f 115/157/71 29/166/72 30/67/73 114/68/74
f 49/69/75 48/70/76 70/71/77 71/72/78
f 52/73/79 108/74/80 109/75/81 68/76/82
f 56/77/83 57/78/84 65/79/85 66/80/86
f 113/81/87 60/82/88 64/83/89 112/84/90
f 27/21/29 13/3/3 12/177/2 28/175/30
f 95/38/46 88/50/58 84/49/57 73/35/43
f 30/67/73 29/166/72 20/163/59 24/54/62
f 71/72/78 64/83/89 60/82/88 49/69/75
f 62/85/91 52/153/79 68/152/82 69/86/92
f 19/167/93 32/164/63 31/155/66 23/88/94
f 86/89/95 76/148/47 92/147/50 93/90/96
f 11/178/11 16/6/10 34/17/25 33/151/24
f 35/29/37 34/17/25 16/6/10 10/28/36
f 119/61/6 122/143/20 125/140/23 120/117/7
f 9/24/32 13/3/3 27/21/29 36/33/41
f 7/8/12 38/9/13 37/15/19 15/5/9
f 7/8/12 11/178/11 39/176/14 38/9/13
f 94/37/45 72/36/44 86/89/95 93/90/96
f 41/53/61 40/162/60 19/167/93 23/88/94
f 70/71/77 48/70/76 62/85/91 69/86/92
f 53/91/97 56/77/83 66/80/86 67/92/98
f 21/93/99 43/161/67 42/64/70 25/94/100
f 77/95/101 80/43/51 90/46/54 91/96/102
f 45/13/17 44/172/16 8/169/103 17/98/104
f 46/31/39 45/13/17 17/98/104 6/99/105
f 125/140/23 124/141/22 126/139/106 127/138/107
f 120/117/7 125/140/23 127/138/107 128/137/108
f 121/144/8 120/117/7 128/137/108 129/136/109
f 15/5/9 37/15/19 47/26/34 5/27/35
f 24/54/62 41/53/61 48/70/76 49/69/75
f 31/58/66 107/57/65 108/74/80 52/73/79
f 42/64/70 26/63/69 57/78/84 56/77/83
f 114/68/74 30/67/73 60/82/88 113/81/87
f 30/67/73 24/54/62 49/69/75 60/82/88
f 23/88/94 31/155/66 52/153/79 62/85/91
f 41/53/61 23/88/94 62/85/91 48/70/76
f 25/94/100 42/64/70 56/77/83 53/91/97
f 112/84/90 64/83/89 61/100/110 111/101/111
f 66/80/86 65/79/85 58/102/112 59/103/113
f 67/92/98 66/80/86 59/103/113 54/104/114
f 68/76/82 109/75/81 110/105/115 55/106/116
f 69/86/92 68/152/82 55/154/116 63/107/117
f 50/108/118 70/71/77 69/86/92 63/107/117
f 71/72/78 70/71/77 50/108/118 51/109/119
f 61/100/110 64/83/89 71/72/78 51/109/119
f 12/2/2 39/10/14 72/36/44 73/35/43
f 40/52/60 20/51/59 75/110/120 74/111/121
f 33/16/24 102/19/27 103/40/48 76/39/47
f 106/159/64 32/165/63 79/149/122 105/113/123
f 44/12/16 2/171/15 81/44/52 80/43/51
f 22/62/68 43/59/67 83/114/124 82/115/125
f 97/170/31 28/22/30 84/49/57 96/48/56
f 29/66/72 115/65/71 116/116/126 85/118/127
f 28/22/30 12/2/2 73/35/43 84/49/57
f 20/51/59 29/66/72 85/118/127 75/110/120
f 11/7/11 33/174/24 76/148/47 86/89/95
f 32/55/63 19/87/93 87/119/128 79/112/122
f 39/10/14 11/7/11 86/89/95 72/36/44
f 19/87/93 40/52/60 74/111/121 87/119/128
f 8/97/103 44/12/16 80/43/51 77/95/101
f 43/59/67 21/160/99 78/120/129 83/114/124
f 117/47/55 88/50/58 85/118/127 116/116/126
f 90/46/54 89/45/53 82/115/125 83/114/124
f 91/96/102 90/46/54 83/114/124 78/120/129
f 92/42/50 104/41/49 105/113/123 79/149/122
f 93/90/96 92/147/50 79/112/122 87/119/128
f 74/111/121 94/37/45 93/90/96 87/119/128
f 95/38/46 94/37/45 74/111/121 75/110/120
f 85/118/127 88/50/58 95/38/46 75/110/120
f 2/171/15 97/170/31 96/48/56 81/44/52
f 18/14/18 98/20/28 97/23/31 2/11/15
f 99/34/42 98/20/28 18/14/18 4/32/40
f 124/141/22 123/142/21 130/135/130 131/134/131
f 126/139/106 124/141/22 131/134/131 132/133/132
f 17/98/104 101/18/26 100/30/38 6/99/105
f 102/168/27 101/18/26 17/98/104 8/169/103
f 103/40/48 102/19/27 8/97/103 77/95/101
f 104/41/49 103/40/48 77/95/101 91/96/102
f 105/113/123 104/41/49 91/96/102 78/120/129
f 21/160/99 106/159/64 105/113/123 78/120/129
f 107/57/65 106/56/64 21/93/99 25/94/100
f 108/74/80 107/57/65 25/94/100 53/91/97
f 109/75/81 108/74/80 53/91/97 67/92/98
f 110/105/115 109/75/81 67/92/98 54/104/114
f 65/79/85 112/84/90 111/101/111 58/102/112
f 57/78/84 113/81/87 112/84/90 65/79/85
f 26/63/69 114/68/74 113/81/87 57/78/84
f 22/158/68 115/157/71 114/68/74 26/63/69
f 116/116/126 115/65/71 22/62/68 82/115/125
f 89/45/53 117/47/55 116/116/126 82/115/125
f 81/44/52 96/48/56 117/47/55 89/45/53
f 3/25/33 9/24/32 119/121/6 118/122/5
f 47/26/34 3/25/33 118/122/5 121/123/8
f 36/33/41 99/34/42 123/124/21 122/125/20
f 9/24/32 36/33/41 122/125/20 119/121/6
f 100/30/38 35/145/37 127/146/107 126/127/106
f 35/29/37 10/28/36 128/128/108 127/126/107
f 10/28/36 5/27/35 129/129/109 128/128/108
f 5/27/35 47/26/34 121/123/8 129/129/109
f 99/34/42 4/32/40 130/130/130 123/124/21
f 4/32/40 46/31/39 131/131/131 130/130/130
f 46/31/39 6/99/105 132/132/132 131/131/131
f 6/99/105 100/30/38 126/127/106 132/132/132
