# This file uses centimeters as units for non-parametric coordinates.

mtllib RockCliff.mtl
v -19.031326 4.104958 12.716795
v 17.843102 4.224152 8.129644
v -25.101805 3.014580 -9.466103
v 22.716465 3.513557 -13.277493
v -3.097870 4.880310 7.834791
v 6.574875 4.119347 12.083607
v 24.216640 3.905243 -5.265511
v -25.139824 3.470886 2.781244
v -10.952747 4.441673 16.719164
v -15.486046 7.195091 10.535669
v -8.949814 7.167381 11.734415
v -20.428320 6.682068 2.496998
v 14.348419 7.291527 6.824293
v 19.505138 7.033493 -4.013494
v -20.397560 6.312889 -7.412123
v 19.166073 6.209045 -10.682900
v -2.594551 7.522293 4.546217
v 5.231491 7.206741 10.023375
v -19.031326 -0.048882 12.716795
v -10.952747 0.287804 16.719164
v -25.139824 -0.682976 2.781244
v 17.843102 0.070297 8.129644
v 24.216640 -0.248634 -5.265511
v -3.097870 0.726440 7.834791
v 6.574875 -0.034508 12.083607
v -25.101805 -1.139282 -9.466103
v -12.811745 7.656853 5.093266
v -7.438934 7.632248 5.766163
v -16.874311 7.201378 0.580875
v 11.712292 7.742462 3.009935
v 15.951130 7.513374 -3.073693
v -2.214897 7.947327 1.731176
v 4.218143 7.667191 4.805693
v -16.849028 6.873619 -4.981462
v 22.915768 -0.248634 -13.236941
v -17.100517 -4.977028 9.560106
v 16.073284 -4.560608 6.567547
v -18.051207 4.135025 11.811220
v 16.876965 4.247917 7.466187
v -23.801300 3.102188 -9.200851
v 22.517155 2.980621 -13.030057
v -21.026815 -6.956528 -10.647324
v 21.290447 -6.117104 -14.252969
v -2.958729 4.869446 7.186890
v -0.435631 -10.714188 -13.728695
v -0.658508 -2.945091 2.372660
v 11.377846 -10.628601 -15.312330
v 8.114563 -6.781731 11.100088
v 6.203468 4.148651 11.211452
v 22.914104 3.945831 -5.221968
v 20.294994 -3.716095 -5.287220
v 11.927391 -10.016289 -7.766026
v -1.092449 -8.799675 -4.513865
v -20.267944 -6.387131 -1.679113
v -23.837299 3.534416 2.400074
v -11.067524 -9.834457 -12.441916
v -12.650490 -10.842918 -3.295515
v -9.663044 -6.510742 11.638269
v -10.399029 4.453941 15.602343
vt 0.246598 0.215016
vt 0.331748 0.184792
vt 0.364919 0.241778
vt 0.288755 0.256578
vt 0.142191 0.303634
vt 0.205109 0.336370
vt 0.734763 0.266513
vt 0.878317 0.379784
vt 0.808559 0.408211
vt 0.691274 0.304319
vt 0.460522 0.251287
vt 0.600021 0.228829
vt 0.579390 0.270637
vt 0.463312 0.315536
vt 0.943223 0.462793
vt 0.872789 0.479589
vt 0.061669 0.439260
vt 0.143613 0.452827
vt 0.220189 0.173194
vt 0.333925 0.140939
vt 0.100960 0.271401
vt 0.759001 0.221639
vt 0.915694 0.341475
vt 0.469605 0.196261
vt 0.606205 0.178192
vt 0.012915 0.411450
vt 0.394678 0.313555
vt 0.315435 0.329844
vt 0.240535 0.377843
vt 0.757946 0.416556
vt 0.668508 0.360157
vt 0.558668 0.335322
vt 0.466740 0.355004
vt 0.203377 0.446560
vt 0.984232 0.430401
vt 0.706653 0.539849
vt 0.629165 0.521620
vt 0.650038 0.390228
vt 0.765839 0.440546
vt 0.768906 0.795346
vt 0.612946 0.823020
vt 0.636369 0.698328
vt 0.749128 0.671646
vt 0.173623 0.658115
vt 0.142096 0.783144
vt 0.035313 0.702123
vt 0.081207 0.597991
vt 0.865519 0.568593
vt 0.913130 0.732459
vt 0.478744 0.694952
vt 0.458008 0.827474
vt 0.291839 0.830324
vt 0.301178 0.725003
vt 0.498108 0.435080
vt 0.474458 0.568407
vt 0.347114 0.522161
vt 0.363783 0.421785
vt 0.266375 0.545333
vt 0.213414 0.458555
vn -0.635213 0.470798 0.612253
vn 0.200548 0.379552 0.903173
vn 0.214016 0.872887 0.438481
vn -0.276126 0.913481 0.298843
vn -0.854939 0.477973 0.201547
vn -0.443034 0.891716 0.092539
vn 0.673696 0.390402 0.627471
vn 0.813312 0.522812 0.255326
vn 0.523778 0.839859 0.142453
vn 0.331688 0.857872 0.392479
vn 0.241549 0.376914 0.894198
vn 0.015756 0.284405 0.958575
vn -0.058879 0.835009 0.547076
vn 0.016555 0.933494 0.358211
vn 0.527877 0.838429 -0.135582
vn 0.527877 0.838429 -0.135582
vn -0.892517 0.450590 -0.019558
vn -0.496032 0.867587 -0.035294
vn -0.706609 0.000000 0.707604
vn 0.276023 0.000000 0.961151
vn -0.966700 0.000000 0.255912
vn 0.702342 0.000000 0.711840
vn 0.902994 0.000000 0.429653
vn 0.248125 0.000000 0.968728
vn -0.005993 0.000000 0.999982
vn -0.999995 0.000000 -0.003104
vn 0.020800 0.995309 0.094487
vn -0.071831 0.996248 0.048278
vn -0.139758 0.990129 -0.010566
vn 0.128965 0.990713 0.043088
vn 0.066996 0.995206 0.071256
vn -0.002215 0.994807 0.101755
vn -0.001477 0.993757 0.111561
vn -0.146993 0.988111 -0.045044
vn 0.984608 0.023903 -0.173136
vn 0.984608 0.023903 -0.173136
vn 0.984608 0.023903 -0.173136
vn 0.984608 0.023903 -0.173136
vn -0.597443 -0.600298 0.531700
vn 0.249886 -0.683283 0.686062
vn 0.316976 -0.284204 0.904851
vn -0.660083 -0.340671 0.669503
vn -0.740843 -0.671656 0.005546
vn -0.110013 -0.993701 0.021353
vn -0.048083 -0.980797 0.189012
vn -0.733611 -0.653615 0.186016
vn 0.769657 -0.591022 0.241497
vn 0.714371 -0.683704 0.149074
vn 0.970135 -0.228806 0.080532
vn 0.939383 -0.219374 0.263505
vn -0.903666 -0.332993 0.269264
vn -0.948027 -0.314452 0.048629
vn 0.029594 -0.970168 0.240623
vn 0.015766 -0.993836 0.109730
vn 0.203680 -0.965299 0.163442
vn 0.175724 -0.961647 0.210608
vn 0.299801 -0.315730 0.900241
vn 0.043406 -0.823871 0.565114
vn -0.000107 -0.720178 0.693790
vn -0.204925 -0.233817 0.950440
vn 0.660950 -0.558393 0.501341
vn 0.720447 -0.130535 0.681114
s 1
usemtl lambert2SG
f 1/1/1 9/2/2 11/3/3 10/4/4
f 8/5/5 1/1/1 10/4/4 12/6/6
f 2/7/7 7/8/8 14/9/9 13/10/10
f 5/11/11 6/12/12 18/13/13 17/14/14
f 6/12/12 2/7/7 13/10/10 18/13/13
f 7/8/8 4/15/15 16/16/16 14/9/9
f 3/17/17 8/5/5 12/6/6 15/18/18
f 9/2/2 5/11/11 17/14/14 11/3/3
f 9/2/2 1/1/1 19/19/19 20/20/20
f 1/1/1 8/5/5 21/21/21 19/19/19
f 7/8/8 2/7/7 22/22/22 23/23/23
f 6/12/12 5/11/11 24/24/24 25/25/25
f 2/7/7 6/12/12 25/25/25 22/22/22
f 8/5/5 3/17/17 26/26/26 21/21/21
f 5/11/11 9/2/2 20/20/20 24/24/24
f 10/4/4 11/3/3 28/27/27 27/28/28
f 12/6/6 10/4/4 27/28/28 29/29/29
f 13/10/10 14/9/9 31/30/30 30/31/31
f 17/14/14 18/13/13 33/32/32 32/33/33
f 18/13/13 13/10/10 30/31/31 33/32/32
f 15/18/18 12/6/6 29/29/29 34/34/34
f 11/3/3 17/14/14 32/33/33 28/27/27
s off
f 7/8/35 23/23/36 35/35/37 4/15/38
s 4
usemtl lambert3SG
f 36/36/39 58/37/40 59/38/41 38/39/42
f 42/40/43 56/41/44 57/42/45 54/43/46
f 51/44/47 43/45/48 41/46/49 50/47/50
f 42/40/43 54/43/46 55/48/51 40/49/52
f 53/50/53 45/51/54 47/52/55 52/53/56
f 44/54/57 46/55/58 48/56/59 49/57/60
f 52/53/56 47/52/55 43/45/48 51/44/47
f 49/57/60 48/56/59 37/58/61 39/59/62
f 37/58/61 51/44/47 50/47/50 39/59/62
f 48/56/59 52/53/56 51/44/47 37/58/61
f 46/55/58 53/50/53 52/53/56 48/56/59
f 54/43/46 57/42/45 58/37/40 36/36/39
f 55/48/51 54/43/46 36/36/39 38/39/42
f 56/41/44 45/51/54 53/50/53 57/42/45
f 58/37/40 57/42/45 53/50/53 46/55/58
f 59/38/41 58/37/40 46/55/58 44/54/57
