# This file uses centimeters as units for non-parametric coordinates.

mtllib RockWall1_Mesh.mtl
g default
v -441.529911 -112.053849 -475.104210
v -323.929371 -112.053849 -475.104210
v -419.076539 90.975583 -497.557613
v -313.034150 90.975576 -480.208282
v -419.076539 90.975576 -570.251440
v -319.660374 97.464846 -564.370788
v -314.012044 -118.659896 -575.325906
v -350.737561 31.773127 -491.838279
v -382.729719 122.817037 -484.836197
v -431.797924 122.817037 -533.904589
v -297.801768 122.817037 -533.904589
v -382.729719 122.817037 -582.972857
v -303.349364 -125.392922 -533.904589
v -382.729719 -125.392922 -454.524235
v -434.869869 31.773127 -491.838279
v -392.803747 31.773127 -477.816239
v -382.729719 136.022479 -533.904589
v -336.715489 31.773127 -533.904589
v -307.960308 50.538072 -550.720831
v -323.403612 56.636236 -572.399150
v -426.901249 35.018091 -489.732903
v -382.729719 47.274423 -474.775864
v -323.908625 37.224810 -489.559668
v -348.394747 -57.455050 -533.904589
v -359.665951 -45.608079 -500.766856
v -392.803747 -57.455050 -489.495590
v -425.941418 -45.608079 -500.766856
v -359.665951 -45.608079 -567.042292
v -319.723704 8.473699 -543.499217
v -341.439241 18.994673 -482.540084
v -392.803747 15.768197 -465.357187
v -444.168159 18.994675 -482.540084
v -349.593139 9.430165 -580.794886
v -334.733247 -43.185182 -531.245190
v -348.596060 -34.372236 -489.696996
v -392.803747 -47.892618 -474.703893
v -437.011309 -34.372232 -489.696996
v -308.548149 -61.826239 -522.965132
v -328.426259 -63.694325 -479.601130
v -382.729719 -64.677308 -461.053000
v -437.033022 -49.103064 -479.601130
v -317.709204 -67.705004 -571.107979
v -419.076539 90.975576 -666.481854
v -382.729719 122.817037 -679.203208
v -389.955669 57.020705 -702.800877
v -426.901249 35.018087 -674.306564
v -293.188578 98.230352 -664.154388
v -304.519649 62.488285 -672.290504
v -382.729719 -64.677308 -702.986498
v -311.560134 -63.694325 -684.438337
v -307.063214 -112.053849 -688.935288
v -382.729719 -125.392922 -709.515294
v -437.033022 -49.103064 -684.438337
v -441.529911 -112.053849 -688.935288
v -331.853536 37.625170 -675.862034
v -392.803747 31.773127 -686.223228
v -434.869869 31.773127 -672.201156
v -437.011309 -34.372236 -674.342565
v -392.803747 -47.892618 -689.335667
v -392.803747 -57.455050 -674.543909
v -425.941418 -45.608079 -663.272518
v -336.512773 -21.898707 -677.338827
v -359.665951 -45.608079 -663.272518
v -392.803747 15.768197 -698.682405
v -444.168159 18.994673 -681.499477
v -324.822784 14.275151 -683.611435
v -309.312657 96.669664 -589.812186
v -382.729719 122.817037 -591.185281
v -419.076539 90.975576 -578.463864
v -307.063214 -112.053849 -600.917174
v -311.560134 -63.694325 -596.420285
v -359.665951 -45.608079 -595.194938
v -331.267411 -19.963896 -607.732731
v -332.019503 14.681057 -599.794028
v -336.705506 33.513276 -599.946892
v -318.129331 60.773321 -589.537405
v -331.000180 114.090514 -590.898645
v -345.031673 116.621414 -577.512425
v -330.102774 136.496077 -530.765197
v -339.917026 110.421852 -475.513325
v -346.923476 43.990655 -477.303551
v -368.449930 33.952889 -480.051611
v -362.459059 18.982467 -468.816003
v -367.070222 -42.199746 -477.361764
v -374.202520 -53.464282 -490.720624
v -349.834197 -68.157420 -465.110763
v -346.936828 -124.873590 -459.465054
v -336.069904 -124.873590 -704.574288
v -338.967272 -68.157420 -698.928797
v -374.202520 -53.464278 -673.318936
v -359.284945 -34.163062 -688.608096
v -348.224381 14.358967 -696.429000
v -356.282974 37.723358 -686.346643
v -337.472916 64.370565 -691.023787
v -327.130564 115.096079 -675.848370
v -291.216568 104.017671 -626.755020
v -326.295614 122.291753 -633.691496
v -383.564263 131.049403 -635.668435
v -422.322219 97.095811 -622.103146
v -302.878543 -119.401381 -646.045851
v -314.181817 -58.966338 -644.157574
v -358.970700 -48.548003 -629.082798
v -334.281611 -23.265911 -633.680265
v -322.935161 12.688050 -640.112102
v -332.580889 40.206445 -637.149158
v -300.166358 66.718835 -628.297076
v -319.335990 31.773127 -572.355350
v -320.419423 32.939256 -548.203564
v -320.130728 51.718273 -568.760859
v -317.504366 45.656274 -556.071825
v -324.411361 15.971027 -573.623499
v -318.609605 20.930190 -552.779318
v -322.625377 33.425574 -588.833044
v -316.646642 50.972464 -581.148158
v -323.039046 19.006687 -585.005139
v -376.348951 -26.878801 -580.187111
v -369.019521 -34.582627 -558.638382
v -370.246645 -14.341734 -580.375851
v -360.135743 -25.303243 -556.909083
v -369.737202 8.645090 -582.618649
v -351.812883 0.692451 -562.132358
v -376.348951 -26.878801 -598.494183
v -357.881964 -10.202951 -606.647270
v -360.174552 2.196885 -591.346006
vt 0.015545 0.088164
vt 0.140828 0.038342
vt 0.161649 0.169202
vt 0.044815 0.218999
vt 0.215423 0.029672
vt 0.274106 0.053088
vt 0.276680 0.152170
vt 0.226692 0.150407
vt 0.227430 0.519222
vt 0.279000 0.526898
vt 0.271250 0.639402
vt 0.201553 0.668211
vt 0.045375 0.455512
vt 0.146110 0.501894
vt 0.256543 0.807935
vt 0.239712 0.918357
vt 0.366862 0.831893
vt 0.346962 0.944243
vt 0.380374 0.676642
vt 0.372941 0.726225
vt 0.459314 0.652975
vt 0.482285 0.744173
vt 0.486088 0.842370
vt 0.455489 0.956298
vt 0.990599 0.564774
vt 0.709241 0.865516
vt 0.886521 0.501922
vt 0.969493 0.434653
vt 0.716285 0.736064
vt 0.697078 0.647282
vt 0.709287 0.565934
vt 0.783668 0.543016
vt 0.748964 0.131530
vt 0.696821 0.122596
vt 0.696928 0.034875
vt 0.764037 0.016787
vt 0.946392 0.205790
vt 0.832232 0.159267
vt 0.855677 0.032054
vt 0.975461 0.080815
vt 0.398484 0.030323
vt 0.369225 0.155943
vt 0.481356 0.050732
vt 0.472749 0.161094
vt 0.412990 0.541283
vt 0.474782 0.546963
vt 0.407861 0.488969
vt 0.469484 0.483005
vt 0.465255 0.532881
vt 0.432024 0.520385
vt 0.733718 0.483201
vt 0.803731 0.470931
vt 0.886786 0.441630
vt 0.986179 0.423422
vt 0.027807 0.445801
vt 0.128914 0.461126
vt 0.190533 0.475382
vt 0.251584 0.475644
vt 0.358208 0.478625
vt 0.268061 0.254073
vt 0.377448 0.249168
vt 0.363368 0.297106
vt 0.259624 0.307198
vt 0.207072 0.241866
vt 0.210218 0.289669
vt 0.067504 0.260218
vt 0.150188 0.238866
vt 0.154624 0.277519
vt 0.050557 0.294904
vt 0.946943 0.274396
vt 0.842964 0.265746
vt 0.844421 0.227514
vt 0.926166 0.243691
vt 0.777197 0.305107
vt 0.731689 0.343812
vt 0.723695 0.247241
vt 0.786691 0.233205
vt 0.456401 0.296974
vt 0.494195 0.311607
vt 0.491651 0.335255
vt 0.444551 0.318429
vt 0.249396 0.433496
vt 0.397157 0.424548
vt 0.199722 0.429820
vt 0.020850 0.406346
vt 0.137938 0.416354
vt 0.873353 0.399907
vt 0.989105 0.381949
vt 0.734975 0.425266
vt 0.783455 0.416094
vt 0.419582 0.457546
vt 0.471445 0.442506
vt 0.496302 0.364451
vt 0.457801 0.372109
vt 0.469307 0.268248
vt 0.506382 0.843853
vt 0.473236 0.956516
vt 0.529602 0.646619
vt 0.520807 0.715054
vt 0.520577 0.551493
vt 0.532024 0.059796
vt 0.532505 0.157342
vt 0.510497 0.481931
vt 0.496497 0.528563
vt 0.518312 0.313351
vt 0.536646 0.347234
vt 0.500232 0.448826
vt 0.510395 0.366006
vt 0.539172 0.273144
vt 0.620963 0.728175
vt 0.619145 0.650451
vt 0.610586 0.853462
vt 0.570492 0.963432
vt 0.615027 0.032403
vt 0.632274 0.152869
vt 0.624209 0.258092
vt 0.583297 0.349651
vt 0.637792 0.337757
vt 0.543565 0.425884
vt 0.645437 0.422214
vt 0.549272 0.472498
vt 0.636472 0.486689
vt 0.618281 0.577548
vt 0.494677 0.390739
vt 0.785844 0.662618
vt 0.253123 0.708798
vt 0.912157 0.648154
vt 0.673497 0.976599
vt 0.097637 0.672563
vt 0.028011 0.582345
vn -0.303537 0.095559 0.948016
vn -0.136304 0.101776 0.985425
vn -0.132103 0.300218 0.944679
vn -0.203088 0.368094 0.907338
vn 0.270810 0.111979 0.956098
vn 0.827769 0.084034 0.554740
vn 0.759076 0.440047 0.479753
vn 0.257891 0.357258 0.897696
vn 0.077015 -0.113856 0.990508
vn 0.809199 -0.442593 0.386406
vn 0.845758 0.038651 0.532165
vn 0.168642 0.527445 0.832683
vn -0.376650 0.124400 0.917965
vn -0.222118 0.074515 0.972168
vn -0.206806 0.630371 0.748240
vn -0.448923 0.388605 0.804646
vn -0.208417 0.977903 0.016369
vn -0.526744 0.850024 0.000000
vn 0.948269 0.313387 0.050738
vn 0.306788 0.949806 0.061239
vn 0.707759 0.312065 -0.633792
vn 0.215645 0.875075 -0.433291
vn -0.203843 0.882873 -0.423063
vn -0.466043 0.752069 -0.466043
vn -0.614092 0.267538 -0.742506
vn -0.122728 0.306885 -0.943801
vn -0.227094 0.147470 -0.962643
vn -0.552502 0.025178 -0.833131
vn 0.238623 0.243187 -0.940170
vn 0.440331 0.129166 -0.888496
vn 0.443527 0.030649 -0.895737
vn 0.254051 0.094197 -0.962593
vn 0.199766 0.367310 -0.908393
vn 0.347967 0.391803 -0.851710
vn 0.439769 0.116900 -0.890471
vn 0.216524 0.110505 -0.970003
vn -0.203088 0.368095 -0.907337
vn -0.118612 0.305267 -0.944851
vn -0.120808 0.102030 -0.987419
vn -0.303538 0.095560 -0.948016
vn 0.994634 0.087031 0.055939
vn 0.888524 0.446270 0.106622
vn 0.971307 0.103773 -0.213995
vn 0.855401 0.491924 -0.162172
vn 0.968242 -0.246001 -0.044628
vn 0.807664 0.030081 -0.588875
vn 0.993760 -0.085107 -0.072088
vn 0.993580 -0.086021 -0.073478
vn 0.996135 -0.071366 -0.051203
vn 0.996135 -0.071366 -0.051203
vn 0.438952 -0.103681 -0.892509
vn 0.229088 -0.070784 -0.970829
vn -0.088600 0.124538 -0.988251
vn -0.253344 0.543256 -0.800431
vn -0.236142 0.597588 0.766241
vn -0.167024 0.438010 0.883318
vn 0.182442 0.158349 0.970382
vn 0.866481 -0.223017 0.446624
vn 0.883754 -0.446303 0.140683
vn 0.633013 0.623561 0.458766
vn 0.427753 0.901688 0.063137
vn 0.878702 -0.297715 0.373160
vn 0.816833 -0.268372 0.510647
vn 0.237941 0.637872 0.732464
vn 0.333713 -0.292322 0.896205
vn -0.159980 0.473082 0.866371
vn 0.093621 0.748209 0.656824
vn -0.179950 -0.311319 0.933112
vn -0.359628 -0.233154 0.903497
vn -0.359629 -0.233155 -0.903497
vn -0.174470 -0.325232 -0.929400
vn 0.116094 0.722282 -0.681785
vn -0.159983 0.473079 -0.866372
vn 0.253356 -0.339312 -0.905913
vn 0.536037 -0.372375 -0.757629
vn 0.451633 0.430223 -0.781624
vn 0.265781 0.594339 -0.759027
vn 0.737772 -0.472761 -0.481861
vn 0.737772 -0.472761 -0.481861
vn 0.769096 -0.294492 -0.567244
vn 0.765231 -0.331672 -0.551738
vn 0.857346 0.040456 0.513149
vn 0.939637 -0.023922 0.341337
vn 0.334045 0.035257 0.941898
vn -0.333857 0.020082 0.942410
vn -0.165669 0.011124 0.986119
vn -0.167399 0.025074 -0.985570
vn -0.333858 0.020083 -0.942409
vn 0.489562 0.011887 -0.871888
vn 0.235732 0.014429 -0.971711
vn 0.991113 -0.097321 -0.090681
vn 0.991113 -0.097321 -0.090681
vn 0.772793 -0.229535 -0.591697
vn 0.772793 -0.229535 -0.591697
vn 0.308420 0.951219 -0.007685
vn -0.658950 0.752187 0.000000
vn -0.658950 0.752187 0.000000
vn -0.625099 0.768383 0.137253
vn -0.629367 0.767384 0.122557
vn 0.538725 0.798082 0.269890
vn 0.538725 0.798082 0.269890
vn 0.493736 0.819587 0.290691
vn 0.322439 0.918108 0.230458
vn 0.927255 -0.184706 0.325702
vn 0.927255 -0.184706 0.325702
vn 0.909856 -0.206559 0.359855
vn 0.905540 -0.211602 0.367727
vn 0.963976 0.056731 0.259871
vn 0.963976 0.056731 0.259871
vn 0.988807 0.115634 0.094282
vn 0.988680 0.114865 0.096532
vn 0.990477 -0.137661 0.002357
vn 0.990477 -0.137661 0.002357
vn 0.990477 -0.137661 0.002357
vn 0.990477 -0.137661 0.002357
vn 0.777475 -0.608441 0.159158
vn 0.777475 -0.608441 0.159158
vn 0.777475 -0.608441 0.159158
vn 0.777475 -0.608441 0.159158
vn 0.977611 -0.185912 -0.098557
vn 0.977611 -0.185912 -0.098557
vn 0.977611 -0.185912 -0.098557
vn 0.977611 -0.185912 -0.098557
vn 0.832657 -0.154309 0.531856
vn 0.832657 -0.154309 0.531856
vn 0.832657 -0.154309 0.531856
vn 0.832657 -0.154309 0.531856
vn 0.410377 0.904628 0.115059
vn 0.410377 0.904628 0.115059
vn 0.339991 0.938972 0.052322
vn 0.344171 0.937237 0.055979
vn 0.286331 0.957954 0.018401
vn 0.492663 0.868142 0.060111
vn -0.663935 0.747323 -0.026421
vn -0.653918 0.756173 0.024350
vn 0.989616 0.143736 -0.000251
vn 0.989621 0.143701 0.000369
vn 0.291140 0.956676 -0.002898
vn 0.292658 0.956213 0.002855
vn 0.699397 -0.713167 0.047291
vn 0.699397 -0.713167 0.047291
vn 0.701463 -0.712648 -0.009086
vn 0.701552 -0.712457 -0.015138
vn 0.983442 -0.149758 0.102053
vn 0.983442 -0.149758 0.102053
vn 0.970479 -0.240668 0.015779
vn 0.966878 -0.255235 0.001584
vn 0.943151 0.280849 0.177735
vn 0.943151 0.280849 0.177735
vn 0.951104 0.301942 0.065049
vn 0.950817 0.299643 0.078494
vn 0.706708 -0.701923 0.088704
vn 0.706708 -0.701923 0.088704
vn 0.675042 -0.735422 0.058929
vn 0.678692 -0.731778 0.062275
vn 0.951480 -0.248485 0.181498
vn 0.952393 -0.248983 0.175943
vn 0.165101 0.986242 -0.008309
vn 0.165101 0.986242 -0.008309
vn 0.154345 0.975490 0.156836
vn 0.153558 0.988138 0.002031
vn 0.267366 0.948198 -0.171570
vn 0.481497 0.862147 -0.157684
vn 0.150331 0.972992 -0.175179
vn -0.680560 0.717442 -0.148714
vn -0.680560 0.717442 -0.148714
vn 0.989403 0.144515 -0.014042
vn 0.989403 0.144515 -0.014042
vn 0.287765 0.957575 -0.015548
vn 0.287765 0.957575 -0.015548
vn 0.701292 -0.709846 -0.065636
vn 0.701292 -0.709846 -0.065636
vn 0.948261 -0.312618 -0.055408
vn 0.948261 -0.312618 -0.055408
vn 0.949020 0.314745 -0.017200
vn 0.949021 0.314745 -0.017200
vn 0.647484 -0.761306 0.034316
vn 0.647484 -0.761306 0.034316
vn 0.964112 -0.262045 -0.042672
vn 0.964112 -0.262045 -0.042672
vn 0.752026 -0.388138 -0.532735
vn 0.752026 -0.388138 -0.532735
vn 0.752026 -0.388138 -0.532735
vn 0.752026 -0.388138 -0.532735
vn 0.783837 -0.502795 0.364412
vn 0.783837 -0.502795 0.364412
vn 0.783837 -0.502795 0.364412
vn 0.783837 -0.502795 0.364412
vn 0.547029 -0.788419 -0.281345
vn 0.547029 -0.788419 -0.281345
vn 0.547029 -0.788419 -0.281345
vn 0.547029 -0.788419 -0.281345
vn 0.754254 0.144600 0.640462
vn 0.754254 0.144600 0.640462
vn 0.754254 0.144600 0.640462
vn 0.754254 0.144600 0.640462
vn 0.738709 -0.138436 -0.659655
vn 0.738709 -0.138436 -0.659655
vn 0.738709 -0.138436 -0.659655
vn 0.738709 -0.138436 -0.659655
vn 0.809746 0.505334 0.298243
vn 0.809746 0.505334 0.298243
vn 0.809746 0.505334 0.298243
vn 0.809746 0.505334 0.298243
vn 0.331801 -0.942022 -0.050026
vn 0.331801 -0.942022 -0.050026
vn 0.331801 -0.942022 -0.050026
vn 0.331801 -0.942022 -0.050026
vn 0.745496 0.016016 -0.666318
vn 0.745496 0.016016 -0.666318
vn 0.745496 0.016016 -0.666318
vn 0.745496 0.016016 -0.666318
vn 0.754104 0.656392 -0.021830
vn 0.754104 0.656392 -0.021830
vn 0.754104 0.656392 -0.021830
vn 0.754104 0.656392 -0.021830
vn 0.525700 -0.359617 -0.770918
vn 0.525700 -0.359617 -0.770918
vn 0.525700 -0.359617 -0.770918
vn 0.525700 -0.359617 -0.770918
vn 0.291780 -0.879102 -0.376887
vn 0.291780 -0.879102 -0.376887
vn 0.291780 -0.879102 -0.376887
vn 0.291780 -0.879102 -0.376887
vn 0.537246 -0.335577 -0.773793
vn 0.537246 -0.335577 -0.773793
vn 0.537246 -0.335577 -0.773793
vn 0.537246 -0.335577 -0.773793
vn 0.746721 0.665137 0.000000
vn 0.746721 0.665137 0.000000
vn 0.746721 0.665137 0.000000
vn 0.746721 0.665137 0.000000
vn 0.147632 0.297651 0.943191
vn 0.147632 0.297651 0.943191
vn 0.147632 0.297651 0.943191
vn 0.147632 0.297651 0.943191
vn 0.175637 -0.426857 0.887099
vn 0.175637 -0.426857 0.887099
vn 0.175637 -0.426857 0.887099
vn 0.175637 -0.426857 0.887099
vn 0.291698 -0.899840 0.324346
vn 0.291698 -0.899840 0.324346
vn 0.291698 -0.899840 0.324346
vn 0.291698 -0.899840 0.324346
s 1
g pCube3
usemtl lambert7SG
f 1/1/1 14/2/2 40/3/3 41/4/4
f 87/5/5 2/6/6 39/7/7 86/8/8
f 81/9/9 23/10/10 4/11/11 80/12/12
f 21/13/13 22/14/14 9/129/15 3/130/16
f 3/16/16 9/15/15 17/17/17 10/18/18
f 80/126/12 4/11/11 11/19/19 79/20/20
f 79/20/20 11/19/19 6/21/21 78/22/22
f 10/18/18 17/17/17 12/23/23 5/24/24
s 5
f 43/25/25 44/127/26 45/27/27 46/28/28
f 95/125/29 47/30/30 48/31/31 94/32/32
f 89/33/33 50/34/34 51/35/35 88/36/36
f 53/37/37 49/38/38 52/39/39 54/40/40
s 1
f 2/6/6 13/41/41 38/42/42 39/7/7
f 13/41/41 7/43/43 42/44/44 38/42/42
f 19/45/45 20/46/46 6/21/21 11/19/19
f 23/10/10 19/45/45 11/19/19 4/11/11
s 9
f 108/47/47 107/48/48 109/49/49 110/50/50
s 5
f 94/32/32 48/31/31 55/51/51 93/52/52
f 46/28/28 45/27/27 56/53/53 57/54/54
s 1
f 15/55/55 16/56/56 22/14/14 21/13/13
f 82/57/57 8/58/58 23/10/10 81/9/9
f 8/58/58 18/59/59 19/45/45 23/10/10
f 25/60/60 24/61/61 34/62/62 35/63/63
f 85/64/64 25/60/60 35/63/63 84/65/65
f 27/66/66 26/67/67 36/68/68 37/69/69
s 5
f 58/70/70 59/71/71 60/72/72 61/73/73
f 91/74/74 62/75/75 63/76/76 90/77/77
s 12
f 117/78/78 116/79/79 118/80/80 119/81/81
s 1
f 30/82/82 29/83/83 18/59/59 8/58/58
f 83/84/84 30/82/82 8/58/58 82/57/57
f 32/85/85 31/86/86 16/56/56 15/55/55
s 5
f 57/54/54 56/53/53 64/87/87 65/88/88
f 93/52/52 55/51/51 66/89/89 92/90/90
s 9
f 112/91/91 111/92/92 107/48/48 108/47/47
s 1
f 35/63/63 34/62/62 29/83/83 30/82/82
f 84/65/65 35/63/63 30/82/82 83/84/84
f 37/69/69 36/68/68 31/86/86 32/85/85
s 5
f 65/88/88 64/87/87 59/71/71 58/70/70
f 92/90/90 66/89/89 62/75/75 91/74/74
s 12
f 119/81/81 118/80/80 120/93/93 121/94/94
s 1
f 39/7/7 38/42/42 24/61/61 25/60/60
f 86/8/8 39/7/7 25/60/60 85/64/64
f 41/4/4 40/3/3 26/67/67 27/66/66
s 5
f 61/73/73 60/72/72 49/38/38 53/37/37
f 90/77/77 63/76/76 50/34/34 89/33/33
s 1
f 38/42/42 42/44/44 28/95/95 24/61/61
s 13
f 5/24/96 12/23/97 68/96/98 69/97/99
s 14
f 78/22/100 6/21/101 67/98/102 77/99/103
s 15
f 6/21/104 20/46/105 76/100/106 67/98/107
s 16
f 42/44/108 7/43/109 70/101/110 71/102/111
s off
f 109/49/112 107/48/113 113/103/114 114/104/115
f 118/80/116 116/79/117 122/105/118 123/106/119
f 107/48/120 111/92/121 115/107/122 113/103/123
f 120/93/124 118/80/125 123/106/126 124/108/127
s 17
f 28/95/128 42/44/129 71/102/130 72/109/131
s 14
f 97/110/132 77/99/103 67/98/102 96/111/133
s 13
f 69/97/99 68/96/98 98/112/134 99/113/135
s 16
f 71/102/111 70/101/110 100/114/136 101/115/137
s 17
f 72/109/131 71/102/130 101/115/138 102/116/139
s 18
f 73/117/140 72/109/141 102/116/142 103/118/143
s 19
f 74/119/144 73/117/145 103/118/146 104/120/147
s 20
f 75/121/148 74/119/149 104/120/150 105/122/151
s 21
f 76/100/152 75/121/153 105/122/154 106/123/155
s 15
f 67/98/107 76/100/106 106/123/156 96/111/157
s 14
f 12/23/158 78/22/159 77/99/103 68/96/160
s 1
f 17/17/17 79/20/20 78/22/22 12/23/23
f 9/15/15 80/126/12 79/20/20 17/17/17
f 22/14/14 81/9/9 80/12/12 9/129/15
f 16/56/56 82/57/57 81/9/9 22/14/14
f 31/86/86 83/84/84 82/57/57 16/56/56
f 36/68/68 84/65/65 83/84/84 31/86/86
f 26/67/67 85/64/64 84/65/65 36/68/68
f 40/3/3 86/8/8 85/64/64 26/67/67
f 14/2/2 87/5/5 86/8/8 40/3/3
s 5
f 49/38/38 89/33/33 88/36/36 52/39/39
f 60/72/72 90/77/77 89/33/33 49/38/38
f 59/71/71 91/74/74 90/77/77 60/72/72
f 64/87/87 92/90/90 91/74/74 59/71/71
f 56/53/53 93/52/52 92/90/90 64/87/87
f 45/27/27 94/32/32 93/52/52 56/53/53
f 44/127/26 95/125/29 94/32/32 45/27/27
s 14
f 68/96/160 77/99/103 97/110/132 98/112/161
f 95/29/162 97/110/132 96/111/133 47/30/163
f 98/112/161 97/110/132 95/29/162 44/26/164
s 13
f 99/113/135 98/112/134 44/26/165 43/128/166
s 16
f 101/115/137 100/114/136 51/35/167 50/34/168
s 17
f 102/116/139 101/115/138 50/34/169 63/76/170
s 18
f 103/118/143 102/116/142 63/76/171 62/75/172
s 19
f 104/120/147 103/118/146 62/75/173 66/89/174
s 20
f 105/122/151 104/120/150 66/89/175 55/51/176
s 21
f 106/123/155 105/122/154 55/51/177 48/31/178
s 15
f 96/111/157 106/123/156 48/31/179 47/30/180
s off
f 20/46/181 19/45/182 110/50/183 109/49/184
f 19/45/185 18/59/186 108/47/187 110/50/188
f 29/83/189 33/124/190 111/92/191 112/91/192
f 18/59/193 29/83/194 112/91/195 108/47/196
f 75/121/197 76/100/198 114/104/199 113/103/200
f 76/100/201 20/46/202 109/49/203 114/104/204
f 33/124/205 74/119/206 115/107/207 111/92/208
f 74/119/209 75/121/210 113/103/211 115/107/212
f 24/61/213 28/95/214 116/79/215 117/78/216
f 34/62/217 24/61/218 117/78/219 119/81/220
f 33/124/221 29/83/222 121/94/223 120/93/224
f 29/83/225 34/62/226 119/81/227 121/94/228
f 28/95/229 72/109/230 122/105/231 116/79/232
f 72/109/233 73/117/234 123/106/235 122/105/236
f 73/117/237 74/119/238 124/108/239 123/106/240
f 74/119/241 33/124/242 120/93/243 124/108/244
