# This file uses centimeters as units for non-parametric coordinates.

mtllib TreeRoot_fixed.mtl
v 0.762207 0.055092 -1.376465
v 4.583130 0.451912 -1.226135
v -0.663330 -0.486504 0.275269
v 2.654541 -0.591446 1.021362
v -0.807495 1.679157 0.861023
v 2.447144 2.129742 1.828735
v 0.618164 2.220745 -0.790649
v 4.375977 3.195545 -0.419189
v 10.348511 3.527046 0.090698
v 10.520508 0.942047 -0.608521
v 8.646851 2.880569 2.062195
v 8.818848 0.295578 1.363037
v 17.748291 -1.369705 0.644409
v 17.861572 -3.096695 0.183838
v 16.627441 -1.689369 1.942993
v 16.740723 -3.439117 1.482483
v 21.353394 -4.943283 1.941467
v 21.396240 -5.587143 1.767273
v 20.929565 -5.104309 2.432556
v 20.972412 -5.748169 2.258423
v 3.713989 -0.432526 -0.338989
v 0.096069 -1.014618 0.967651
v -1.288086 0.548019 0.610779
v 2.286621 0.620422 1.703308
v -0.098389 1.909012 1.758423
v -0.422974 2.375416 -0.108765
v 3.424194 3.161777 0.759949
v 1.826172 2.643124 -0.471375
v 0.636597 1.279186 -1.619019
v 4.880493 2.048409 -1.331177
v 21.839478 -5.641922 1.969910
v 21.631470 -6.081192 2.142883
v 21.584717 -5.378418 2.332947
v 21.376831 -5.817673 2.505920
v 7.670410 0.937660 -1.450012
v 7.462158 3.815956 -0.656189
v 10.718140 2.342293 -0.587524
v 5.606934 2.935860 1.500854
v 9.468994 3.634644 1.192993
v 5.816528 0.283134 0.704651
v 8.449219 1.480331 2.041199
v 9.698364 0.187981 0.260742
v 14.298584 -0.742195 -0.253601
v 14.151855 1.589523 0.343079
v 17.991821 -2.174362 0.197693
v 12.699707 1.180855 2.025513
v 17.168945 -1.239708 1.370422
v 12.846436 -1.009796 1.428894
v 16.497192 -2.606079 1.929199
v 17.320068 -3.567245 0.756409
v 20.296387 -4.667892 1.127747
v 20.221924 -3.549026 1.430359
v 19.485352 -3.828842 2.283691
v 19.559814 -4.947723 1.981079
v 2.020752 -0.255310 -1.262146
v -0.228516 -0.548210 -0.899536
v 1.161743 -1.089012 -0.398560
v -0.250977 0.372623 1.615173
v 0.902344 2.809162 0.655823
v 2.315186 1.375652 -1.357910
v 22.180542 -6.223618 2.415283
v -0.715576 0.973358 -0.820923
v 7.871094 2.532707 -1.405273
v 6.489014 3.779099 0.572754
v 5.380981 1.418694 1.498535
v 6.793213 0.240417 -0.530151
v 14.467285 0.451851 -0.235657
v 13.401367 1.817726 1.283752
v 12.531006 -0.020691 2.007568
v 13.597046 -1.197563 0.488220
v 20.381836 -4.061829 1.136841
v 19.841187 -3.502457 1.907471
v 19.399780 -4.434921 2.274658
v 19.940430 -4.994278 1.503967
vt 0.729744 0.746188
vt 0.646031 0.703318
vt 0.759280 0.634680
vt 0.799377 0.728292
vt 0.375509 0.886518
vt 0.450690 0.791907
vt 0.468793 0.859431
vt 0.393288 0.952439
vt 0.030212 0.549977
vt 0.127442 0.479732
vt 0.127439 0.561429
vt 0.027783 0.631167
vt 0.908435 0.656604
vt 0.873218 0.728136
vt 0.979982 0.779557
vt 0.891512 0.794018
vt 0.153590 0.629634
vt 0.057537 0.698907
vt 0.198316 0.682595
vt 0.107039 0.752964
vt 0.956104 0.918575
vt 0.897880 0.862155
vt 0.823672 0.992159
vt 0.828317 0.888433
vt 0.269104 0.701640
vt 0.185433 0.778955
vt 0.333973 0.708565
vt 0.254423 0.792229
vt 0.693198 0.967148
vt 0.756127 0.895847
vt 0.617851 0.845116
vt 0.730076 0.823299
vt 0.400015 0.736466
vt 0.324955 0.826655
vt 0.953461 0.108936
vt 0.950890 0.087263
vt 0.961922 0.052968
vt 0.974096 0.083344
vt 0.921251 0.111505
vt 0.928137 0.084539
vt 0.896899 0.092426
vt 0.921950 0.062737
vt 0.931727 0.041276
vt 0.900303 0.060629
vt 0.812521 0.808466
vt 0.496692 0.646789
vt 0.546530 0.687516
vt 0.437335 0.625120
vt 0.533125 0.523668
vt 0.596061 0.549614
vt 0.650437 0.591110
vt 0.371817 0.611338
vt 0.308124 0.583630
vt 0.412135 0.478050
vt 0.469585 0.505839
vt 0.262161 0.525175
vt 0.239157 0.451650
vt 0.361947 0.365507
vt 0.376425 0.426494
vt 0.231169 0.375085
vt 0.571084 0.750790
vt 0.682746 0.651260
vt 0.362913 0.300173
vt 0.708789 0.414317
vt 0.755490 0.442951
vt 0.658028 0.400444
vt 0.774893 0.282379
vt 0.813753 0.286737
vt 0.852510 0.298679
vt 0.606680 0.390711
vt 0.558885 0.367213
vt 0.704348 0.247218
vt 0.737282 0.271446
vt 0.530740 0.320209
vt 0.521585 0.264144
vt 0.688066 0.161490
vt 0.689358 0.206638
vt 0.527825 0.206450
vt 0.785673 0.491737
vt 0.884158 0.328504
vt 0.690155 0.116236
vt 0.897647 0.176027
vt 0.925793 0.176843
vt 0.870248 0.175379
vt 0.845307 0.164460
vt 0.826466 0.144302
vt 0.822614 0.116472
vt 0.826778 0.087717
vt 0.827916 0.058254
vt 0.952506 0.188913
vn -0.124535 -0.326276 -0.937035
vn 0.035392 -0.437014 -0.898758
vn -0.049481 -0.961441 -0.270522
vn -0.520190 -0.604522 -0.603287
vn 0.035392 -0.437014 -0.898758
vn -0.062236 -0.335383 -0.940024
vn -0.082589 -0.927950 -0.363439
vn -0.049481 -0.961441 -0.270522
vn -0.049481 -0.961441 -0.270522
vn -0.082589 -0.927950 -0.363439
vn -0.022153 -0.807310 0.589711
vn -0.207821 -0.802433 0.559385
vn -0.520190 -0.604522 -0.603287
vn -0.049481 -0.961441 -0.270522
vn -0.207821 -0.802433 0.559385
vn -0.751194 -0.659829 -0.018237
vn -0.751194 -0.659829 -0.018237
vn -0.207821 -0.802433 0.559385
vn -0.276662 -0.266282 0.923338
vn -0.985206 -0.104496 0.135828
vn -0.207821 -0.802433 0.559385
vn -0.022153 -0.807310 0.589711
vn 0.009390 -0.250065 0.968184
vn -0.276662 -0.266282 0.923338
vn -0.276662 -0.266282 0.923338
vn 0.009390 -0.250065 0.968184
vn 0.044671 0.363382 0.930569
vn -0.271310 0.388185 0.880740
vn -0.985206 -0.104496 0.135828
vn -0.276662 -0.266282 0.923338
vn -0.271310 0.388185 0.880740
vn -0.832664 0.477335 0.280752
vn -0.832664 0.477335 0.280752
vn -0.271310 0.388185 0.880740
vn -0.136940 0.949368 0.282750
vn -0.615967 0.749744 -0.241801
vn -0.271310 0.388185 0.880740
vn 0.044671 0.363382 0.930569
vn 0.110378 0.907292 0.405757
vn -0.136940 0.949368 0.282750
vn -0.136940 0.949368 0.282750
vn 0.110378 0.907292 0.405757
vn 0.100447 0.872924 -0.477404
vn -0.013606 0.851538 -0.524116
vn -0.615967 0.749744 -0.241801
vn -0.136940 0.949368 0.282750
vn -0.013606 0.851538 -0.524116
vn -0.202679 0.728415 -0.654471
vn -0.202679 0.728415 -0.654471
vn -0.013606 0.851538 -0.524116
vn 0.031302 0.272128 -0.961752
vn -0.182352 0.243254 -0.952667
vn -0.013606 0.851538 -0.524116
vn 0.100447 0.872924 -0.477404
vn 0.013583 0.292283 -0.956235
vn 0.031302 0.272128 -0.961752
vn 0.031302 0.272128 -0.961752
vn 0.013583 0.292283 -0.956235
vn -0.062236 -0.335383 -0.940024
vn 0.035392 -0.437014 -0.898758
vn -0.182352 0.243254 -0.952667
vn 0.031302 0.272128 -0.961752
vn 0.035392 -0.437014 -0.898758
vn -0.124535 -0.326276 -0.937035
vn 0.153239 -0.431839 -0.888838
vn 0.807624 0.190910 -0.557940
vn 0.814475 -0.288688 0.503278
vn -0.168368 -0.884025 -0.436065
vn 0.807624 0.190910 -0.557940
vn 0.763586 0.643598 0.052134
vn 0.556163 0.521843 0.646810
vn 0.814475 -0.288688 0.503278
vn 0.814475 -0.288688 0.503278
vn 0.556163 0.521843 0.646810
vn 0.155591 0.290878 0.944024
vn -0.124446 -0.280323 0.951805
vn -0.168368 -0.884025 -0.436065
vn 0.814475 -0.288688 0.503278
vn -0.124446 -0.280323 0.951805
vn -0.516247 -0.827680 0.220080
vn -0.202679 0.728415 -0.654471
vn -0.182352 0.243254 -0.952667
vn -0.770545 0.118138 -0.626341
vn -0.615967 0.749744 -0.241801
vn -0.182352 0.243254 -0.952667
vn -0.124535 -0.326276 -0.937035
vn -0.520190 -0.604522 -0.603287
vn -0.770545 0.118138 -0.626341
vn -0.770545 0.118138 -0.626341
vn -0.520190 -0.604522 -0.603287
vn -0.751194 -0.659829 -0.018237
vn -0.985206 -0.104496 0.135828
vn -0.615967 0.749744 -0.241801
vn -0.770545 0.118138 -0.626341
vn -0.985206 -0.104496 0.135828
vn -0.832664 0.477335 0.280752
vn -0.062236 -0.335383 -0.940024
vn 0.013583 0.292283 -0.956235
vn 0.192329 0.277582 -0.941253
vn 0.036911 -0.351545 -0.935443
vn 0.013583 0.292283 -0.956235
vn 0.100447 0.872924 -0.477404
vn 0.265237 0.860466 -0.435027
vn 0.192329 0.277582 -0.941253
vn 0.192329 0.277582 -0.941253
vn 0.265237 0.860466 -0.435027
vn 0.316094 0.868434 -0.381979
vn 0.227998 0.265118 -0.936872
vn 0.036911 -0.351545 -0.935443
vn 0.192329 0.277582 -0.941253
vn 0.227998 0.265118 -0.936872
vn 0.079075 -0.423181 -0.902588
vn 0.100447 0.872924 -0.477404
vn 0.110378 0.907292 0.405757
vn 0.198238 0.879669 0.432300
vn 0.265237 0.860466 -0.435027
vn 0.110378 0.907292 0.405757
vn 0.044671 0.363382 0.930569
vn 0.065976 0.364754 0.928764
vn 0.198238 0.879669 0.432300
vn 0.198238 0.879669 0.432300
vn 0.065976 0.364754 0.928764
vn 0.004797 0.341020 0.940044
vn 0.199044 0.855046 0.478830
vn 0.265237 0.860466 -0.435027
vn 0.198238 0.879669 0.432300
vn 0.199044 0.855046 0.478830
vn 0.316094 0.868434 -0.381979
vn 0.044671 0.363382 0.930569
vn 0.009390 -0.250065 0.968184
vn -0.087496 -0.268917 0.959181
vn 0.065976 0.364754 0.928764
vn 0.009390 -0.250065 0.968184
vn -0.022153 -0.807310 0.589711
vn -0.222773 -0.881435 0.416466
vn -0.087496 -0.268917 0.959181
vn -0.087496 -0.268917 0.959181
vn -0.222773 -0.881435 0.416466
vn -0.194924 -0.851089 0.487496
vn -0.145820 -0.279773 0.948928
vn 0.065976 0.364754 0.928764
vn -0.087496 -0.268917 0.959181
vn -0.145820 -0.279773 0.948928
vn 0.004797 0.341020 0.940044
vn -0.022153 -0.807310 0.589711
vn -0.082589 -0.927950 -0.363439
vn -0.163809 -0.872365 -0.460593
vn -0.222773 -0.881435 0.416466
vn -0.082589 -0.927950 -0.363439
vn -0.062236 -0.335383 -0.940024
vn 0.036911 -0.351545 -0.935443
vn -0.163809 -0.872365 -0.460593
vn -0.163809 -0.872365 -0.460593
vn 0.036911 -0.351545 -0.935443
vn 0.079075 -0.423181 -0.902588
vn -0.092531 -0.931603 -0.351503
vn -0.222773 -0.881435 0.416466
vn -0.163809 -0.872365 -0.460593
vn -0.092531 -0.931603 -0.351503
vn -0.194924 -0.851089 0.487496
vn 0.079075 -0.423181 -0.902588
vn 0.227998 0.265118 -0.936872
vn 0.182806 0.277163 -0.943272
vn 0.023069 -0.349654 -0.936595
vn 0.227998 0.265118 -0.936872
vn 0.316094 0.868434 -0.381979
vn 0.309759 0.854394 -0.417206
vn 0.182806 0.277163 -0.943272
vn 0.182806 0.277163 -0.943272
vn 0.309759 0.854394 -0.417206
vn 0.501740 0.807050 -0.311333
vn 0.343965 0.262094 -0.901662
vn 0.023069 -0.349654 -0.936595
vn 0.182806 0.277163 -0.943272
vn 0.343965 0.262094 -0.901662
vn 0.061496 -0.351230 -0.934267
vn 0.316094 0.868434 -0.381979
vn 0.199044 0.855046 0.478830
vn 0.242059 0.852805 0.462743
vn 0.309759 0.854394 -0.417206
vn 0.199044 0.855046 0.478830
vn 0.004797 0.341020 0.940044
vn 0.096442 0.347445 0.932728
vn 0.242059 0.852805 0.462743
vn 0.242059 0.852805 0.462743
vn 0.096442 0.347445 0.932728
vn 0.139433 0.333627 0.932337
vn 0.367256 0.772192 0.518501
vn 0.309759 0.854394 -0.417206
vn 0.242059 0.852805 0.462743
vn 0.367256 0.772192 0.518501
vn 0.501740 0.807050 -0.311333
vn 0.004797 0.341020 0.940044
vn -0.145820 -0.279773 0.948928
vn -0.034434 -0.255873 0.966097
vn 0.096442 0.347445 0.932728
vn -0.145820 -0.279773 0.948928
vn -0.194924 -0.851089 0.487496
vn -0.131846 -0.848543 0.512437
vn -0.034434 -0.255873 0.966097
vn -0.034434 -0.255873 0.966097
vn -0.131846 -0.848543 0.512437
vn -0.319697 -0.880666 0.349601
vn -0.118364 -0.269049 0.955826
vn 0.096442 0.347445 0.932728
vn -0.034434 -0.255873 0.966097
vn -0.118364 -0.269049 0.955826
vn 0.139433 0.333627 0.932337
vn -0.194924 -0.851089 0.487496
vn -0.092531 -0.931603 -0.351503
vn -0.122414 -0.896973 -0.424800
vn -0.131846 -0.848543 0.512437
vn -0.092531 -0.931603 -0.351503
vn 0.079075 -0.423181 -0.902588
vn 0.023069 -0.349654 -0.936595
vn -0.122414 -0.896973 -0.424800
vn -0.122414 -0.896973 -0.424800
vn 0.023069 -0.349654 -0.936595
vn 0.061496 -0.351230 -0.934267
vn -0.222842 -0.824038 -0.520867
vn -0.131846 -0.848543 0.512437
vn -0.122414 -0.896973 -0.424800
vn -0.222842 -0.824038 -0.520867
vn -0.319697 -0.880666 0.349601
vn 0.061496 -0.351230 -0.934267
vn 0.343965 0.262094 -0.901662
vn 0.543568 0.207523 -0.813307
vn 0.102404 -0.426046 -0.898888
vn 0.343965 0.262094 -0.901662
vn 0.501740 0.807050 -0.311333
vn 0.700556 0.703785 -0.117929
vn 0.543568 0.207523 -0.813307
vn 0.543568 0.207523 -0.813307
vn 0.700556 0.703785 -0.117929
vn 0.763586 0.643598 0.052134
vn 0.807624 0.190910 -0.557940
vn 0.102404 -0.426046 -0.898888
vn 0.543568 0.207523 -0.813307
vn 0.807624 0.190910 -0.557940
vn 0.153239 -0.431839 -0.888838
vn 0.501740 0.807050 -0.311333
vn 0.367256 0.772192 0.518501
vn 0.456715 0.667988 0.587540
vn 0.700556 0.703785 -0.117929
vn 0.367256 0.772192 0.518501
vn 0.139433 0.333627 0.932337
vn 0.113612 0.302393 0.946389
vn 0.456715 0.667988 0.587540
vn 0.456715 0.667988 0.587540
vn 0.113612 0.302393 0.946389
vn 0.155591 0.290878 0.944024
vn 0.556163 0.521843 0.646810
vn 0.700556 0.703785 -0.117929
vn 0.456715 0.667988 0.587540
vn 0.556163 0.521843 0.646810
vn 0.763586 0.643598 0.052134
vn 0.139433 0.333627 0.932337
vn -0.118364 -0.269049 0.955826
vn -0.286681 -0.304680 0.908286
vn 0.113612 0.302393 0.946389
vn -0.118364 -0.269049 0.955826
vn -0.319697 -0.880666 0.349601
vn -0.482414 -0.858569 0.173598
vn -0.286681 -0.304680 0.908286
vn -0.286681 -0.304680 0.908286
vn -0.482414 -0.858569 0.173598
vn -0.516247 -0.827680 0.220080
vn -0.124446 -0.280323 0.951805
vn 0.113612 0.302393 0.946389
vn -0.286681 -0.304680 0.908286
vn -0.124446 -0.280323 0.951805
vn 0.155591 0.290878 0.944024
vn -0.319697 -0.880666 0.349601
vn -0.222842 -0.824038 -0.520867
vn -0.279563 -0.795143 -0.538137
vn -0.482414 -0.858569 0.173598
vn -0.222842 -0.824038 -0.520867
vn 0.061496 -0.351230 -0.934267
vn 0.102404 -0.426046 -0.898888
vn -0.279563 -0.795143 -0.538137
vn -0.279563 -0.795143 -0.538137
vn 0.102404 -0.426046 -0.898888
vn 0.153239 -0.431839 -0.888838
vn -0.168368 -0.884025 -0.436065
vn -0.482414 -0.858569 0.173598
vn -0.279563 -0.795143 -0.538137
vn -0.168368 -0.884025 -0.436065
vn -0.516247 -0.827680 0.220080
s off
usemtl initialShadingGroup
f 1/1/1 55/2/2 57/3/3 56/4/4
f 55/5/5 2/6/6 21/7/7 57/8/8
f 57/9/9 21/10/10 4/11/11 22/12/12
f 56/4/13 57/3/14 22/13/15 3/14/16
f 3/14/17 22/13/18 58/15/19 23/16/20
f 22/12/21 4/11/22 24/17/23 58/18/24
f 58/18/25 24/17/26 6/19/27 25/20/28
f 23/16/29 58/15/30 25/21/31 5/22/32
f 5/22/33 25/21/34 59/23/35 26/24/36
f 25/20/37 6/19/38 27/25/39 59/26/40
f 59/26/41 27/25/42 8/27/43 28/28/44
f 26/24/45 59/23/46 28/29/47 7/30/48
f 7/30/49 28/29/50 60/31/51 29/32/52
f 28/28/53 8/27/54 30/33/55 60/34/56
f 60/34/57 30/33/58 2/6/59 55/5/60
f 29/32/61 60/31/62 55/2/63 1/1/64
f 18/35/65 31/36/66 61/37/67 32/38/68
f 31/36/69 17/39/70 33/40/71 61/37/72
f 61/37/73 33/40/74 19/41/75 34/42/76
f 32/43/77 61/37/78 34/42/79 20/44/80
f 7/30/81 29/32/82 62/45/83 26/24/84
f 29/32/85 1/1/86 56/4/87 62/45/88
f 62/45/89 56/4/90 3/14/91 23/16/92
f 26/24/93 62/45/94 23/16/95 5/22/96
f 2/6/97 30/33/98 63/46/99 35/47/100
f 30/33/101 8/27/102 36/48/103 63/46/104
f 63/46/105 36/48/106 9/49/107 37/50/108
f 35/47/109 63/46/110 37/50/111 10/51/112
f 8/27/113 27/25/114 64/52/115 36/48/116
f 27/25/117 6/19/118 38/53/119 64/52/120
f 64/52/121 38/53/122 11/54/123 39/55/124
f 36/48/125 64/52/126 39/55/127 9/49/128
f 6/19/129 24/17/130 65/56/131 38/53/132
f 24/17/133 4/11/134 40/57/135 65/56/136
f 65/56/137 40/57/138 12/58/139 41/59/140
f 38/53/141 65/56/142 41/59/143 11/54/144
f 4/11/145 21/10/146 66/60/147 40/57/148
f 21/7/149 2/6/150 35/47/151 66/61/152
f 66/61/153 35/47/154 10/51/155 42/62/156
f 40/57/157 66/60/158 42/63/159 12/58/160
f 10/51/161 37/50/162 67/64/163 43/65/164
f 37/50/165 9/49/166 44/66/167 67/64/168
f 67/64/169 44/66/170 13/67/171 45/68/172
f 43/65/173 67/64/174 45/68/175 14/69/176
f 9/49/177 39/55/178 68/70/179 44/66/180
f 39/55/181 11/54/182 46/71/183 68/70/184
f 68/70/185 46/71/186 15/72/187 47/73/188
f 44/66/189 68/70/190 47/73/191 13/67/192
f 11/54/193 41/59/194 69/74/195 46/71/196
f 41/59/197 12/58/198 48/75/199 69/74/200
f 69/74/201 48/75/202 16/76/203 49/77/204
f 46/71/205 69/74/206 49/77/207 15/72/208
f 12/58/209 42/63/210 70/78/211 48/75/212
f 42/62/213 10/51/214 43/65/215 70/79/216
f 70/79/217 43/65/218 14/69/219 50/80/220
f 48/75/221 70/78/222 50/81/223 16/76/224
f 14/69/225 45/68/226 71/82/227 51/83/228
f 45/68/229 13/67/230 52/84/231 71/82/232
f 71/82/233 52/84/234 17/39/235 31/36/236
f 51/83/237 71/82/238 31/36/239 18/35/240
f 13/67/241 47/73/242 72/85/243 52/84/244
f 47/73/245 15/72/246 53/86/247 72/85/248
f 72/85/249 53/86/250 19/41/251 33/40/252
f 52/84/253 72/85/254 33/40/255 17/39/256
f 15/72/257 49/77/258 73/87/259 53/86/260
f 49/77/261 16/76/262 54/88/263 73/87/264
f 73/87/265 54/88/266 20/44/267 34/42/268
f 53/86/269 73/87/270 34/42/271 19/41/272
f 16/76/273 50/81/274 74/89/275 54/88/276
f 50/80/277 14/69/278 51/83/279 74/90/280
f 74/90/281 51/83/282 18/35/283 32/38/284
f 54/88/285 74/89/286 32/43/287 20/44/288
