# This file uses centimeters as units for non-parametric coordinates.

mtllib Wall Torch 01.mtl
g default
v 0.082998 -2.504603 0.489052
v -0.084365 -2.504603 0.489052
v 0.145685 1.054121 0.426365
v -0.147052 1.054121 0.426365
v 0.145685 1.054121 0.719102
v -0.147052 1.054121 0.719102
v 0.082998 -2.504603 0.656415
v -0.084365 -2.504603 0.656415
v -0.207836 1.054121 0.572733
v 0.206469 1.054121 0.572733
v 0.117749 -2.504603 0.572733
v -0.119117 -2.504603 0.572733
v -0.000684 1.054121 0.365581
v -0.000684 1.054121 0.779886
v -0.000684 -2.504603 0.691166
v -0.000684 -2.504603 0.572733
v -0.000684 -2.504603 0.454300
v 0.106342 1.343367 0.465708
v -0.000684 1.343367 0.421262
v -0.000684 1.413337 0.572733
v 0.150788 1.343367 0.572733
v -0.000684 1.343367 0.724205
v 0.106342 1.343367 0.679759
v -0.107709 1.343367 0.465708
v -0.152155 1.343367 0.572733
v -0.107709 1.343367 0.679759
v 0.152612 -0.256579 0.419437
v -0.153980 -0.256579 0.419437
v 0.152612 0.226357 0.419437
v -0.153980 0.226357 0.419437
v 0.152612 0.226357 0.726029
v -0.153980 0.226357 0.726029
v 0.152612 -0.256579 0.726029
v -0.153980 -0.256579 0.726029
v -0.218377 0.226357 0.572733
v 0.217010 0.226357 0.572733
v 0.217010 -0.256579 0.572733
v -0.218377 -0.256579 0.572733
v -0.000684 0.226357 0.355039
v -0.000684 0.226357 0.572733
v -0.000684 0.226357 0.790427
v -0.000684 -0.256579 0.790427
v -0.000684 -0.256579 0.572733
v -0.000684 -0.256579 0.355039
v 0.087582 -0.254409 0.006822
v -0.096953 -0.254409 0.006822
v 0.087582 0.223050 0.006822
v -0.096953 0.223050 0.006822
v 0.087582 0.223050 0.447518
v -0.096953 0.223050 0.447518
v 0.087582 -0.254409 0.447518
v -0.096953 -0.254409 0.447518
vt 0.484642 0.013157
vt 0.231552 0.013157
vt 0.484642 0.912956
vt 0.231552 0.912955
vt 0.400279 0.912956
vt 0.315916 0.912955
vt 0.135729 0.597319
vt 0.092456 0.554046
vt 0.153699 0.554046
vt 0.140341 0.676782
vt 0.315916 0.013157
vt 0.400279 0.013157
vt 0.273734 0.912955
vt 0.442460 0.912956
vt 0.442460 0.013157
vt 0.092456 0.676782
vt 0.092456 0.724667
vt 0.273734 0.013157
vt 0.189371 0.912956
vt 0.126290 0.710616
vt 0.358097 0.912956
vt 0.135729 0.510773
vt 0.092456 0.492803
vt 0.189371 0.013157
vt 0.126290 0.642948
vt 0.092456 0.628897
vt 0.049183 0.597319
vt 0.031213 0.554046
vt 0.049183 0.510773
vt 0.058622 0.642948
vt 0.044571 0.676782
vt 0.058622 0.710616
vt 0.092456 0.615289
vt 0.128258 0.229515
vt 0.092307 0.229515
vt 0.127532 0.441020
vt 0.091271 0.456253
vt 0.091271 0.404760
vt 0.142764 0.404760
vt 0.142764 0.166009
vt 0.091271 0.166009
vt 0.091271 0.217502
vt 0.127532 0.202270
vt 0.091271 0.353267
vt 0.127532 0.368500
vt 0.127532 0.129749
vt 0.091271 0.114516
vt 0.092307 0.342774
vt 0.128258 0.229515
vt 0.092307 0.229515
vt 0.055011 0.441020
vt 0.092307 0.342774
vt 0.128258 0.342774
vt 0.092307 0.229515
vt 0.128258 0.229515
vt 0.128258 0.342774
vt 0.092307 0.342774
vt 0.039778 0.404760
vt 0.055011 0.368500
vt 0.055011 0.129749
vt 0.039778 0.166009
vt 0.055011 0.202270
vt 0.153624 0.905702
vt 0.153624 0.934351
vt 0.028749 0.934351
vt 0.028749 0.905702
vt 0.028749 0.757839
vt 0.028749 0.786489
vt 0.153624 0.786489
vt 0.153624 0.757839
vt 0.152792 0.797913
vt 0.029581 0.797913
vt 0.029581 0.894080
vt 0.152792 0.894080
vt 0.029581 0.797913
vt 0.152792 0.797913
vt 0.526824 0.013157
vt 0.526824 0.912956
vt 0.358097 0.013157
vt 0.526824 0.983018
vt 0.484642 0.983019
vt 0.442460 0.983018
vt 0.400279 0.983018
vt 0.358097 0.983018
vt 0.231552 0.983018
vt 0.189371 0.983018
vt 0.273734 0.983018
vt 0.315916 0.983018
vt 0.056355 0.229515
vt 0.056355 0.342774
vt 0.056355 0.229515
vt 0.056355 0.342774
vt 0.128258 0.342774
vt 0.128258 0.342774
vt 0.092307 0.342774
vt 0.092307 0.229515
vt 0.128258 0.229515
vt 0.056355 0.342774
vt 0.056355 0.229515
vt 0.056355 0.229515
vt 0.056355 0.342774
vt 0.152792 0.894080
vt 0.029581 0.894080
vn 0.706887 -0.024904 -0.706888
vn 0.000000 -0.024922 -0.999689
vn 0.000000 -0.007727 -0.999970
vn 0.707085 -0.007718 -0.707086
vn 0.671287 0.314237 -0.671288
vn -0.000000 1.000000 -0.000000
vn 0.949332 0.314274 -0.000000
vn 0.707086 -0.007718 0.707085
vn -0.000000 -0.007728 0.999970
vn -0.000000 -0.024923 0.999689
vn 0.706888 -0.024904 0.706887
vn 0.000000 -1.000000 -0.000000
vn 0.000000 -1.000000 0.000000
vn 0.000000 -1.000000 -0.000000
vn 0.000000 -1.000000 -0.000001
vn -0.706887 -0.024904 -0.706888
vn -0.999689 -0.024922 0.000000
vn -0.999970 -0.007727 0.000000
vn -0.707085 -0.007718 -0.707086
vn 0.999689 -0.024922 0.000000
vn 0.999970 -0.007727 0.000000
vn 0.671288 0.314237 0.671287
vn 0.000000 0.314274 0.949332
vn 0.000000 -1.000000 0.000001
vn 0.000000 -1.000000 0.000000
vn -0.706888 -0.024904 0.706887
vn -0.707086 -0.007718 0.707085
vn -0.671287 0.314237 -0.671289
vn -0.949333 0.314274 -0.000000
vn -0.671288 0.314237 0.671287
vn 0.000000 -1.000000 0.000000
vn 0.000000 -1.000000 0.000000
vn 0.000000 -1.000000 0.000000
vn -0.000000 0.314274 -0.949332
vn 0.707107 0.000000 -0.707106
vn 0.000000 0.000000 -1.000000
vn 0.000000 0.000000 -1.000000
vn 0.707107 0.000000 -0.707106
vn 0.000000 1.000000 -0.000000
vn 0.000000 1.000000 -0.000000
vn 0.000000 1.000000 0.000000
vn 0.000000 1.000000 0.000000
vn 0.707107 0.000000 0.707106
vn 0.000000 0.000000 1.000000
vn 0.000000 0.000000 1.000000
vn 0.707107 0.000000 0.707106
vn 0.000000 -1.000000 0.000000
vn 0.000000 -1.000000 0.000000
vn 0.000000 -1.000000 0.000000
vn 0.000000 -1.000000 0.000000
vn -0.707107 0.000000 -0.707106
vn -1.000000 0.000000 0.000000
vn -1.000000 0.000000 0.000000
vn -0.707107 0.000000 -0.707106
vn 1.000000 0.000000 0.000000
vn 1.000000 0.000000 0.000000
vn 0.000000 1.000000 0.000000
vn 0.000000 1.000000 0.000000
vn 0.000000 -1.000000 0.000000
vn 0.000000 -1.000000 0.000000
vn -0.707107 0.000000 0.707106
vn -0.707107 0.000000 0.707106
vn 0.000000 1.000000 0.000000
vn 0.000000 1.000000 0.000000
vn 0.000000 1.000000 0.000000
vn 0.000000 -1.000000 0.000000
vn 0.000000 -1.000000 0.000000
vn 0.000000 -1.000000 0.000000
vn 0.000000 1.000000 0.000000
vn 0.000000 1.000000 0.000000
vn 0.000000 1.000000 0.000000
vn 0.000000 1.000000 0.000000
vn 0.000000 -1.000000 0.000000
vn 0.000000 -1.000000 0.000000
vn 0.000000 -1.000000 0.000000
vn 0.000000 -1.000000 0.000000
vn -1.000000 0.000000 0.000000
vn -1.000000 0.000000 0.000000
vn -1.000000 0.000000 0.000000
vn -1.000000 0.000000 0.000000
vn 1.000000 0.000000 0.000000
vn 1.000000 0.000000 0.000000
vn 1.000000 0.000000 0.000000
vn 1.000000 0.000000 0.000000
s 1
g Torch_01
usemtl lambert11SG
f 1/1/1 17/77/2 13/78/3 3/3/4
f 18/7/5 20/8/6 21/9/7
f 5/5/8 14/21/9 15/79/10 7/12/11
s 4
f 11/10/12 16/16/13 17/17/14 1/20/15
s 1
f 2/2/16 12/18/17 9/13/18 4/4/19
f 11/15/20 1/1/1 3/3/4 10/14/21
f 23/22/22 20/8/6 22/23/23
f 7/12/11 11/15/20 10/14/21 5/5/8
s 4
f 7/25/24 15/26/25 16/16/13 11/10/12
s 1
f 9/13/18 12/18/17 8/11/26 6/6/27
f 20/8/6 24/27/28 25/28/29
f 22/23/23 20/8/6 26/29/30
f 15/79/10 14/21/9 6/6/27 8/11/26
s 4
f 16/16/13 15/26/25 8/30/31 12/31/32
f 17/17/14 16/16/13 12/31/32 2/32/33
s 1
f 13/19/3 17/24/2 2/2/16 4/4/19
f 3/3/4 13/78/3 19/80/34 18/81/5
f 10/14/21 3/3/4 18/81/5 21/82/7
f 14/21/9 5/5/8 23/83/22 22/84/23
f 5/5/8 10/14/21 21/82/7 23/83/22
f 13/19/3 4/4/19 24/85/28 19/86/34
f 4/4/19 9/13/18 25/87/29 24/85/28
f 9/13/18 6/6/27 26/88/30 25/87/29
f 6/6/27 14/21/9 22/84/23 26/88/30
f 18/7/5 19/33/34 20/8/6
f 26/29/30 20/8/6 25/28/29
f 21/9/7 20/8/6 23/22/22
f 19/33/34 24/27/28 20/8/6
s 7
f 27/34/35 44/35/36 39/48/37 29/93/38
s 8
f 29/36/39 39/37/40 40/38/41 36/39/42
s 7
f 31/94/43 41/95/44 42/96/45 33/97/46
s 10
f 37/40/47 43/41/48 44/42/49 27/43/50
s 7
f 28/49/51 38/50/52 35/52/53 30/53/54
f 37/54/55 27/55/35 29/56/38 36/57/56
s 8
f 36/39/42 40/38/41 41/44/57 31/45/58
s 7
f 33/89/46 37/54/55 36/57/56 31/90/43
s 10
f 33/46/59 42/47/60 43/41/48 37/40/47
s 7
f 35/52/53 38/50/52 34/91/61 32/92/62
s 8
f 39/37/40 30/51/63 35/58/64 40/38/41
f 41/44/57 40/38/41 35/58/64 32/59/65
s 7
f 42/96/45 41/95/44 32/98/62 34/99/61
s 10
f 43/41/48 42/47/60 34/60/66 38/61/67
f 44/42/49 43/41/48 38/61/67 28/62/68
s 7
f 39/48/37 44/35/36 28/100/51 30/101/54
s off
f 47/63/69 48/64/70 50/65/71 49/66/72
f 51/67/73 52/68/74 46/69/75 45/70/76
f 46/71/77 52/72/78 50/73/79 48/74/80
f 51/75/81 45/76/82 47/102/83 49/103/84
