# This file uses centimeters as units for non-parametric coordinates.

mtllib Waterfall_top_Ripple.mtl
g default
v -29.315799 -25.083554 5.435904
v 29.315799 -25.083554 5.435904
v -29.315799 0.000000 -29.315799
v 29.315799 0.000000 -29.315799
v -29.315799 -5.373563 3.889071
v 29.315799 -5.373563 3.889071
v -29.315799 0.000000 -14.657900
v 29.315799 0.000000 -14.657900
v -29.315799 -10.335342 5.287605
v 29.315799 -10.335342 5.287605
v -29.315799 0.000000 -4.556114
v 29.315799 0.000000 -4.556114
v 29.315799 -1.439003 0.195403
v -29.315799 -1.439003 0.195403
vt 1.000000 1.000000
vt 0.000000 1.000000
vt 0.000000 0.773758
vt 1.000000 0.773758
vt 1.000000 0.366219
vt 0.000000 0.366219
vt 0.000000 0.221224
vt 1.000000 0.221224
vt 0.000000 0.628158
vt 1.000000 0.628158
vt 0.000000 -0.000876
vt 1.000000 -0.000876
vt 1.000000 0.491430
vt 0.000000 0.491430
vn 0.000000 1.000000 0.000000
vn 0.000000 1.000000 0.000000
vn 0.000000 1.000000 0.000000
vn 0.000000 1.000000 0.000000
vn 0.000000 0.496770 0.867882
vn 0.000000 0.496770 0.867882
vn 0.000000 0.078239 0.996935
vn 0.000000 0.078239 0.996935
vn 0.000000 0.995340 0.096430
vn 0.000000 0.995340 0.096430
vn 0.000000 0.010055 0.999949
vn 0.000000 0.010055 0.999949
vn 0.000000 0.843691 0.536830
vn 0.000000 0.843691 0.536830
s 1
g pPlane1
usemtl lambert2SG
f 4/1/1 3/2/2 7/3/3 8/4/4
f 6/5/5 5/6/6 9/7/7 10/8/8
f 8/4/4 7/3/3 11/9/9 12/10/10
f 10/8/8 9/7/7 1/11/11 2/12/12
f 13/13/13 14/14/14 5/6/6 6/5/5
f 12/10/10 11/9/9 14/14/14 13/13/13
