# This file uses centimeters as units for non-parametric coordinates.

mtllib Y_Root.mtl
g default
v 2389.941314 -138.865160 -5.296565
v 2388.655260 -139.033251 -0.339028
v 2380.828297 -90.335558 -18.410643
v 2378.698427 -92.364772 -10.199438
v 2389.008822 -91.368594 -16.264124
v 2386.878871 -89.896260 -8.053067
v 2394.042418 -136.019865 -4.136249
v 2392.756104 -136.187983 0.821729
v 2376.996815 -116.654542 -11.354470
v 2378.331990 -92.351091 -14.680250
v 2385.291198 -89.927869 -18.774297
v 2382.415938 -90.303779 -7.689342
v 2389.375229 -91.382135 -11.783242
v 2387.340345 -115.345606 -17.211989
v 2385.520549 -115.568182 -9.022910
v 2394.117278 -135.605950 -1.454605
v 2392.216951 -137.413148 -5.583876
v 2390.480872 -137.640070 1.108634
v 2388.580812 -139.447188 -3.020566
v 2379.172412 -116.029201 -19.889987
v 2377.272424 -115.970368 -16.545179
v 2388.068063 -115.296802 -12.955197
v 2397.409677 -150.043955 2.016788
v 2380.856430 -115.993488 -8.712992
v 2383.299200 -116.089829 -19.933052
v 2385.457193 -125.962948 -14.280628
v 2388.478323 -124.700967 -12.169279
v 2388.678960 -124.489047 -8.325912
v 2386.640854 -124.941086 -5.085900
v 2383.025788 -125.939755 -4.772677
v 2380.280439 -127.722707 -6.562540
v 2380.046646 -124.625617 -13.815836
v 2383.677991 -128.657605 -12.898330
v 2382.682357 -103.233366 -19.294914
v 2378.618133 -103.604321 -18.989183
v 2376.367128 -103.843528 -15.579967
v 2376.674732 -103.858387 -11.499045
v 2380.073240 -103.574461 -9.235465
v 2384.137399 -103.203573 -9.540925
v 2386.388417 -102.964243 -12.950787
v 2386.080248 -102.949579 -17.031717
v 2385.916205 -119.583777 -16.153063
v 2387.105386 -119.524293 -14.657325
v 2387.315902 -119.456585 -11.205822
v 2385.457197 -119.739824 -8.302507
v 2382.096385 -120.288525 -8.052398
v 2379.289226 -120.764986 -9.937289
v 2378.956042 -120.991294 -15.163152
v 2378.945568 -134.368293 -19.317265
v 2381.706007 -136.028211 -18.706202
v 2376.775296 -131.546109 -20.406231
v 2383.309220 -134.870600 -20.531796
v 2383.786331 -131.205799 -22.850126
v 2379.057425 -128.239278 -24.538073
v 2381.961092 -128.035187 -24.600924
v 2377.290686 -128.180576 -22.411915
v 2378.863844 -141.342808 -27.569729
v 2380.078618 -141.752164 -29.418494
v 2376.522142 -139.169663 -29.023924
v 2380.487481 -142.923701 -42.113896
v 2381.975958 -140.335081 -29.813553
v 2382.334895 -138.029623 -31.339284
v 2378.226201 -136.295429 -32.441429
v 2380.778857 -136.251907 -32.440228
v 2376.918905 -137.068704 -30.323749
vt 0.695234 0.288310
vt 0.729853 0.307153
vt 0.510423 0.507068
vt 0.544752 0.426513
vt 0.759035 0.326160
vt 0.624694 0.491392
vt 0.464616 0.782099
vt 0.511024 0.786564
vt 0.509002 0.914166
vt 0.460770 0.909392
vt 0.420643 0.787225
vt 0.692629 0.968175
vt 0.516005 0.142265
vt 0.413330 0.927847
vt 0.642055 0.969548
vt 0.651387 0.827569
vt 0.342604 0.812695
vt 0.590465 0.977235
vt 0.605178 0.815225
vt 0.759497 0.584292
vt 0.718217 0.540568
vt 0.117930 0.721616
vt 0.821349 0.360068
vt 0.851084 0.383307
vt 0.791034 0.339001
vt 0.901018 0.159897
vt 0.669040 0.259590
vt 0.669106 0.516480
vt 0.557664 0.800042
vt 0.880230 0.406025
vt 0.921479 0.412844
vt 0.546573 0.953544
vt 0.532724 0.414384
vt 0.379916 0.800966
vt 0.369873 0.940018
vt 0.722324 0.669842
vt 0.673458 0.638868
vt 0.619956 0.612761
vt 0.564449 0.592082
vt 0.479992 0.571175
vt 0.350414 0.173124
vt 0.351844 0.209819
vt 0.308671 0.238321
vt 0.158574 0.021109
vt 0.382239 0.145382
vt 0.126221 0.262333
vt 0.332076 0.684308
vt 0.388754 0.662207
vt 0.447555 0.656828
vt 0.849668 0.678727
vt 0.523100 0.657690
vt 0.588575 0.673201
vt 0.650612 0.695252
vt 0.698269 0.726607
vt 0.225242 0.245125
vt 0.178267 0.257164
vt 0.271050 0.256599
vt 0.428806 0.362422
vt 0.466472 0.333250
vt 0.389548 0.405860
vt 0.492139 0.308987
vt 0.622961 0.179363
vt 0.239085 0.697818
vt 0.752143 0.706288
vt 0.295058 0.727852
vt 0.166175 0.481328
vt 0.243101 0.481788
vt 0.294410 0.455596
vt 0.346184 0.456281
vt 0.528895 0.301899
vt 0.391813 0.087306
vt 0.483500 0.252790
vt 0.474463 0.191136
vt 0.631925 0.240951
vt 0.590639 0.293433
vt 0.578067 0.133891
vt 0.222158 0.725762
vt 0.692160 0.833928
vt 0.732244 0.749747
vt 0.323241 0.932499
vt 0.070724 0.265947
vt 0.085172 0.476129
vt 0.135122 0.654947
vt 0.795554 0.635516
vn -0.205107 -0.648294 -0.733243
vn -0.704617 -0.662791 -0.253423
vn -0.853885 -0.439793 0.278320
vn -0.216121 -0.898271 -0.382623
vn -0.751330 -0.276127 0.599380
vn -0.898736 -0.407658 0.161519
vn -0.976237 0.053629 -0.209967
vn -0.918408 0.038376 0.393770
vn -0.775488 0.296380 0.557474
vn -0.907077 0.386450 -0.166936
vn -0.597972 0.087583 -0.796718
vn -0.369173 0.500917 -0.782811
vn 0.936830 0.210280 -0.279522
vn 0.961033 0.177977 0.211519
vn 0.962207 -0.078907 0.260638
vn 0.796334 -0.033620 -0.603923
vn 0.599928 0.462624 0.652737
vn 0.431474 -0.058142 0.900250
vn 0.851476 0.486220 0.196414
vn 0.252434 0.549801 0.796239
vn 0.398887 0.423089 0.813563
vn 0.908274 0.378727 0.177778
vn 0.831924 -0.034237 -0.553832
vn 0.931890 0.201489 -0.301635
vn 0.466847 -0.543209 0.697838
vn 0.412083 -0.385849 -0.825414
vn -0.395155 0.039912 0.917747
vn -0.441650 0.204012 0.873685
vn -0.338874 -0.000036 0.940832
vn -0.114663 0.452048 0.884593
vn 0.801260 -0.408023 -0.437606
vn 0.188760 0.049085 -0.980796
vn 0.397595 0.498340 -0.770438
vn 0.909694 -0.181073 -0.373723
vn 0.865689 -0.202530 -0.457781
vn 0.950457 0.187483 0.247954
vn 0.359565 0.417914 0.834302
vn -0.302210 0.309340 0.901653
vn -0.919660 -0.126131 0.371910
vn -0.915897 -0.239041 0.322477
vn 0.086498 -0.979174 0.183673
vn -0.598204 -0.699580 0.390818
vn -0.948845 -0.313667 0.036142
vn 0.408210 -0.280132 -0.868845
vn 0.915810 -0.399176 0.044163
vn 0.961562 0.001565 -0.274585
vn 0.511441 0.137629 -0.848226
vn -0.502055 0.201106 -0.841128
vn -0.989984 -0.030490 -0.137850
vn -0.930206 -0.140601 0.339041
vn -0.321748 0.021942 0.946571
vn 0.533337 0.097808 0.840230
vn 0.982666 0.062298 0.174603
vn 0.828047 0.017055 -0.560399
vn -0.534340 0.564594 -0.629058
vn 0.360088 0.695526 -0.621756
vn -0.891671 0.271600 -0.362155
vn -0.656572 -0.433655 0.617136
vn 0.063361 -0.679393 0.731034
vn -0.916611 -0.211747 0.339100
vn 0.937746 -0.341480 0.063436
vn 0.945209 0.015230 -0.326111
vn 0.467588 0.429583 -0.772542
vn -0.424734 0.508216 -0.749211
vn -0.946371 0.188721 -0.262234
s 1
g pCube350
usemtl lambert36SG
f 1/1/1 19/2/2 32/3/3 33/4/4
f 19/2/2 2/5/5 31/6/6 32/3/3
f 36/7/7 37/8/8 4/9/9 10/10/10
f 35/11/11 36/7/7 10/10/10 3/14/12
f 5/12/13 13/15/14 40/16/15 41/78/16
f 13/15/14 6/18/17 39/19/18 40/16/15
f 28/20/19 29/21/20 8/23/21 16/24/22
f 27/84/23 28/20/19 16/24/22 7/30/24
f 7/30/24 16/24/22 23/26/25 17/31/26
f 16/24/22 8/23/21 18/25/27 23/26/25
f 23/26/25 18/25/27 2/5/5 19/2/2
f 17/27/26 23/26/25 19/2/2 1/1/1
f 2/5/5 18/25/27 30/28/28 31/6/6
f 18/25/27 8/23/21 29/21/20 30/28/28
f 38/29/29 39/19/18 6/18/17 12/32/30
f 37/8/8 38/29/29 12/32/30 4/9/9
f 7/30/24 17/31/26 26/50/31 27/84/23
f 17/27/26 1/1/1 33/4/4 26/33/31
f 34/34/32 35/11/11 3/14/12 11/35/33
f 41/17/16 34/34/32 11/35/33 5/80/13
f 27/22/23 26/83/31 42/63/34 43/77/35
f 43/64/35 44/36/36 28/20/19 27/84/23
f 44/36/36 45/37/37 29/21/20 28/20/19
f 30/28/28 29/21/20 45/37/37 46/38/38
f 31/6/6 30/28/28 46/38/38 47/39/39
f 32/3/3 31/6/6 47/39/39 48/40/40
f 58/41/41 57/42/42 59/43/43 60/44/44
f 61/45/45 58/41/41 60/44/44 62/71/46
f 25/47/47 20/48/48 35/11/11 34/34/32
f 20/48/48 21/49/49 36/7/7 35/11/11
f 21/49/49 9/51/50 37/8/8 36/7/7
f 9/51/50 24/52/51 38/29/29 37/8/8
f 24/52/51 15/53/52 39/19/18 38/29/29
f 40/16/15 39/19/18 15/53/52 22/54/53
f 41/78/16 40/16/15 22/54/53 14/79/54
f 14/65/54 25/47/47 34/34/32 41/17/16
f 62/46/46 60/44/44 63/55/55 64/56/56
f 43/77/35 42/63/34 25/47/47 14/65/54
f 14/79/54 22/54/53 44/36/36 43/64/35
f 22/54/53 15/53/52 45/37/37 44/36/36
f 46/38/38 45/37/37 15/53/52 24/52/51
f 47/39/39 46/38/38 24/52/51 9/51/50
f 48/40/40 47/39/39 9/51/50 21/49/49
f 60/44/44 59/43/43 65/57/57 63/55/55
f 33/4/4 32/3/3 49/58/58 50/59/59
f 32/3/3 48/40/40 51/60/60 49/58/58
f 26/33/31 33/4/4 50/59/59 52/61/61
f 42/63/34 26/83/31 52/82/61 53/66/62
f 20/48/48 25/47/47 55/67/63 54/68/64
f 25/47/47 42/63/34 53/66/62 55/67/63
f 48/40/40 21/49/49 56/69/65 51/60/60
f 21/49/49 20/48/48 54/68/64 56/69/65
f 50/59/59 49/58/58 57/42/42 58/41/41
f 49/58/58 51/60/60 59/43/43 57/42/42
f 52/61/61 50/59/59 58/41/41 61/45/45
f 53/66/62 52/82/61 61/81/45 62/46/46
f 54/68/64 55/67/63 64/56/56 63/55/55
f 55/67/63 53/66/62 62/46/46 64/56/56
f 51/60/60 56/69/65 65/57/57 59/43/43
f 56/69/65 54/68/64 63/55/55 65/57/57
f 12/72/30 6/73/17 11/62/33 3/74/12
f 13/13/14 5/76/13 11/62/33 6/73/17
f 12/72/30 3/74/12 10/75/10 4/70/9
