# This file uses centimeters as units for non-parametric coordinates.

mtllib RockBoulder.mtl
g default
v -11.580569 -12.963822 -10.897500
v -5.393585 -16.079138 17.403097
v -6.295121 14.853060 -11.241508
v -6.138160 12.633299 9.740643
v 10.096352 12.633299 -11.768727
v 15.900956 16.831108 6.307708
v 13.075815 -12.963822 -16.500525
v 18.678844 -12.963822 8.155849
v -9.508784 0.507513 15.093682
v -10.475249 19.620949 -1.381503
v 1.503579 19.620949 -16.132248
v 6.148342 17.401239 10.067125
v 11.230334 14.632225 -2.675698
v 13.466981 0.507513 -17.121763
v 20.057562 4.620722 7.363770
v 17.647833 -18.282232 -3.938759
v 0.884007 -24.073534 -12.662047
v 14.833213 -17.106039 17.531597
v -13.004817 -19.369061 8.623346
v -12.933368 2.360557 -14.151404
v -17.449236 1.037343 0.364956
v 0.346033 20.996845 -3.399952
v 18.874760 6.239960 -5.228685
v 10.496604 -29.148006 2.619834
v 4.989470 2.115061 16.987192
v -1.705005 3.682048 -18.007528
vt 0.810650 0.439829
vt 0.780981 0.275988
vt 0.987899 0.326441
vt 0.918337 0.571971
vt 0.735046 0.206110
vt 0.850336 0.094092
vt 0.007623 0.714530
vt 0.108369 0.507286
vt 0.196113 0.625318
vt 0.191252 0.741099
vt 0.069274 0.910777
vt 0.196977 0.839304
vt 0.270616 0.759998
vt 0.273428 0.845741
vt 0.317546 0.642466
vt 0.340767 0.421084
vt 0.367149 0.216295
vt 0.536671 0.262862
vt 0.574669 0.366235
vt 0.500477 0.590630
vt 0.587441 0.487658
vt 0.640388 0.317978
vt 0.692344 0.402649
vt 0.603112 0.224301
vt 0.609961 0.045432
vt 0.745481 0.660866
vt 0.403379 0.672483
vt 0.385400 0.761969
vt 0.366443 0.855188
vt 0.506606 0.795129
vt 0.440938 0.986896
vt 0.508090 0.614573
vt 0.309621 0.472402
vt 0.223796 0.979691
vn -0.700566 -0.495223 -0.513771
vn -0.713670 -0.647442 0.267384
vn -0.993473 0.079093 0.082188
vn -0.761298 0.002625 -0.648397
vn -0.325831 -0.404964 0.854306
vn -0.544363 0.174530 0.820492
vn -0.489336 0.554494 0.673117
vn -0.720548 0.683938 0.114191
vn -0.668920 0.504311 -0.546091
vn 0.022044 0.998807 0.043581
vn 0.098319 0.665961 -0.739479
vn 0.159501 0.700381 0.695720
vn 0.644649 0.640943 0.416677
vn 0.622270 0.753495 -0.212194
vn 0.565311 0.544451 -0.619675
vn 0.943513 0.179002 -0.278823
vn 0.524007 0.012496 -0.851623
vn 0.896817 0.193947 0.397623
vn 0.944646 -0.115382 0.307133
vn 0.861046 -0.422304 -0.283299
vn 0.475296 -0.291252 -0.830220
vn 0.078649 -0.994446 0.069934
vn -0.230606 -0.775506 -0.587717
vn 0.350416 -0.394308 0.849546
vn 0.168088 0.218842 0.961173
vn -0.151348 0.009064 -0.988439
s 1
g pCube9
usemtl lambert9SG
f 1/1/1 19/2/2 21/3/3 20/4/4
f 19/2/2 2/5/5 9/6/6 21/3/3
f 21/7/3 9/8/6 4/9/7 10/10/8
f 20/11/4 21/7/3 10/10/8 3/12/9
f 3/12/9 10/10/8 22/13/10 11/14/11
f 10/10/8 4/9/7 12/15/12 22/13/10
f 22/13/10 12/15/12 6/27/13 13/28/14
f 11/14/11 22/13/10 13/28/14 5/29/15
f 5/29/15 13/28/14 23/30/16 14/31/17
f 13/28/14 6/27/13 15/32/18 23/30/16
f 23/16/16 15/17/18 8/18/19 16/19/20
f 14/20/17 23/16/16 16/19/20 7/21/21
f 7/21/21 16/19/20 24/22/22 17/23/23
f 16/19/20 8/18/19 18/24/24 24/22/22
f 24/22/22 18/24/24 2/5/5 19/2/2
f 17/23/23 24/22/22 19/2/2 1/1/1
f 2/5/5 18/24/24 25/25/25 9/6/6
f 18/24/24 8/18/19 15/17/18 25/25/25
f 25/33/25 15/32/18 6/27/13 12/15/12
f 9/8/6 25/33/25 12/15/12 4/9/7
f 7/21/21 17/23/23 26/26/26 14/20/17
f 17/23/23 1/1/1 20/4/4 26/26/26
f 26/34/26 20/11/4 3/12/9 11/14/11
f 14/31/17 26/34/26 11/14/11 5/29/15
