# This file uses centimeters as units for non-parametric coordinates.

mtllib Flower Lavender 01.mtl
g default
v -0.220919 2.145528 -0.002995
v 0.249832 2.145528 -0.002995
v -0.220919 3.659927 -0.002995
v 0.249832 3.659927 -0.002995
v -0.014971 0.015414 0.017866
v 0.034647 0.015414 0.017866
v -0.014971 2.175407 0.017866
v 0.034647 2.175407 0.017866
v -0.014971 2.175407 -0.031751
v 0.034647 2.175407 -0.031751
v -0.014971 0.015414 -0.031751
v 0.034647 0.015414 -0.031751
v 0.014456 2.145528 0.232380
v 0.014456 2.145528 -0.238370
v 0.014456 3.659927 0.232380
v 0.014456 3.659927 -0.238370
vt 0.041314 0.034761
vt 0.170023 0.034761
vt 0.170023 0.448816
vt 0.041314 0.448816
vt 0.927874 0.205876
vt 0.950845 0.205876
vt 0.950845 0.664875
vt 0.927874 0.664875
vt 0.950845 0.664875
vt 0.927874 0.664875
vt 0.950845 0.205876
vt 0.927874 0.205876
vt 0.041314 0.034761
vt 0.170023 0.034761
vt 0.170023 0.448816
vt 0.041314 0.448816
vn 0.000000 0.000000 1.000000
vn 0.000000 0.000000 1.000000
vn 0.000000 0.000000 1.000000
vn 0.000000 0.000000 1.000000
vn -0.707014 -0.016241 0.707014
vn 0.707014 -0.016241 0.707014
vn 0.707014 0.016241 0.707014
vn -0.707014 0.016241 0.707014
vn 0.707014 0.016241 -0.707014
vn -0.707014 0.016241 -0.707014
vn 0.707014 -0.016241 -0.707014
vn -0.707014 -0.016241 -0.707014
vn 1.000000 0.000000 0.000000
vn 1.000000 0.000000 0.000000
vn 1.000000 0.000000 0.000000
vn 1.000000 0.000000 0.000000
s off
g Lavender_Flower_03
usemtl grass_flowers_01:lambert4SG
f 1/1/1 2/2/2 4/3/3 3/4/4
s 1
f 5/5/5 6/6/6 8/7/7 7/8/8
f 7/8/8 8/7/7 10/9/9 9/10/10
f 9/10/10 10/9/9 12/11/11 11/12/12
f 11/12/12 12/11/11 6/6/6 5/5/5
f 6/6/6 12/11/11 10/9/9 8/7/7
f 11/12/12 5/5/5 7/8/8 9/10/10
s off
f 13/13/13 14/14/14 16/15/15 15/16/16
