# This file uses centimeters as units for non-parametric coordinates.

mtllib Dandelion 01.mtl
g default
v -0.453049 2.438194 0.412402
v 0.449797 2.438194 0.412402
v -0.453049 2.438194 -0.490443
v 0.449797 2.438194 -0.490443
v -0.001627 2.173562 -0.039020
v -0.001627 2.438194 -0.674430
v -0.001627 2.438194 0.596389
v -0.637035 2.438194 -0.039020
v 0.633783 2.438194 -0.039020
v -0.170409 2.665961 -0.533029
v -0.495606 2.665961 0.129736
v 0.492355 2.665961 -0.207789
v 0.167158 2.665961 0.454976
v -0.001625 2.173562 -0.039022
v 0.464809 2.665961 0.189869
v -0.468061 2.665961 -0.267916
v 0.227275 2.665961 -0.505467
v -0.230523 2.665961 0.427423
v -0.026234 0.015414 -0.012174
v 0.023384 0.015414 -0.012174
v -0.026234 2.175407 -0.012174
v 0.023384 2.175407 -0.012174
v -0.026234 2.175407 -0.061792
v 0.023384 2.175407 -0.061792
v -0.026234 0.015414 -0.061792
v 0.023384 0.015414 -0.061792
v -0.301628 0.004693 -0.260078
v 0.157368 0.004693 0.292163
v 1.349536 -0.009587 -1.632445
v 1.808532 -0.009587 -1.080204
v 0.611504 0.309561 -1.019028
v 1.070499 0.309561 -0.466788
v 0.061117 0.314321 -0.561573
v 0.520111 0.314321 -0.009332
v -0.298553 0.004693 -0.095986
v 0.353369 0.004693 0.048535
v 0.195859 0.050038 -2.326229
v 0.847779 0.050038 -2.181709
v -0.024849 0.306419 -1.330636
v 0.627072 0.306419 -1.186115
v -0.189653 0.291304 -0.587222
v 0.462267 0.291304 -0.442701
vt 0.634479 0.958895
vt 0.634479 0.849815
vt 0.711974 0.927311
vt 0.743559 0.849815
vt 0.525399 0.849815
vt 0.556983 0.927311
vt 0.711974 0.772320
vt 0.634479 0.740735
vt 0.556983 0.772320
vt 0.848330 0.965050
vt 0.848330 0.855970
vt 0.925825 0.933466
vt 0.957410 0.855970
vt 0.739250 0.855970
vt 0.770835 0.933466
vt 0.925825 0.778475
vt 0.848330 0.746890
vt 0.770835 0.778475
vt 0.927874 0.205876
vt 0.950845 0.205876
vt 0.950845 0.664875
vt 0.927874 0.664875
vt 0.950845 0.664875
vt 0.927874 0.664875
vt 0.950845 0.205876
vt 0.927874 0.205876
vt 0.027454 0.666667
vt 0.319705 0.666667
vt 0.319705 1.000000
vt 0.027454 1.000000
vt 0.027454 0.333333
vt 0.319705 0.333333
vt 0.027454 0.000000
vt 0.319705 0.000000
vt 0.370402 0.666667
vt 0.662653 0.666667
vt 0.662653 1.000000
vt 0.370402 1.000000
vt 0.370402 0.333333
vt 0.662653 0.333333
vt 0.370402 0.000000
vt 0.662653 0.000000
vn -0.000000 0.923140 0.384464
vn 0.000000 1.000000 0.000000
vn -0.270768 0.923780 0.270768
vn -0.384464 0.923140 -0.000000
vn 0.384465 0.923140 -0.000000
vn 0.270768 0.923780 0.270768
vn -0.270768 0.923780 -0.270768
vn -0.000000 0.923140 -0.384464
vn 0.270768 0.923780 -0.270768
vn -0.617539 0.725830 -0.303012
vn 0.000001 1.000000 -0.000001
vn -0.221831 0.727455 -0.649308
vn 0.303034 0.725838 -0.617519
vn -0.303032 0.725839 0.617518
vn -0.649327 0.727441 0.221821
vn 0.649328 0.727439 -0.221822
vn 0.617536 0.725833 0.303013
vn 0.221825 0.727461 0.649303
vn -0.707010 -0.016241 0.707017
vn 0.707010 -0.016241 0.707017
vn 0.707010 0.016241 0.707017
vn -0.707010 0.016241 0.707017
vn 0.707010 0.016241 -0.707017
vn -0.707010 0.016241 -0.707017
vn 0.707010 -0.016241 -0.707017
vn -0.707010 -0.016241 -0.707017
vn 0.145983 0.981818 -0.121334
vn 0.145983 0.981818 -0.121334
vn 0.242685 0.948903 -0.201709
vn 0.242685 0.948903 -0.201709
vn -0.191258 0.968582 0.158964
vn -0.191258 0.968582 0.158964
vn -0.422026 0.835977 0.350767
vn -0.422026 0.835977 0.350767
vn 0.029050 0.990951 -0.131042
vn 0.029050 0.990951 -0.131042
vn 0.052771 0.969820 -0.238045
vn 0.052771 0.969820 -0.238045
vn -0.050228 0.972698 0.226574
vn -0.050228 0.972698 0.226574
vn -0.107123 0.868919 0.483222
vn -0.107123 0.868919 0.483222
s 1
g Grass_Dandelion_02
usemtl grass_flowers_01:lambert4SG
f 6/1/1 5/2/2 4/3/3
f 5/2/2 9/4/4 4/3/3
f 8/5/5 5/2/2 3/6/6
f 2/7/7 5/2/2 7/8/8
f 3/6/6 5/2/2 6/1/1
f 7/8/8 5/2/2 1/9/9
f 1/9/9 5/2/2 8/5/5
f 2/7/7 9/4/4 5/2/2
s 3
f 15/10/10 14/11/11 13/12/12
f 14/11/11 18/13/13 13/12/12
f 17/14/14 14/11/11 12/15/15
f 11/16/16 14/11/11 16/17/17
f 12/15/15 14/11/11 15/10/10
f 16/17/17 14/11/11 10/18/18
f 10/18/18 14/11/11 17/14/14
f 11/16/16 18/13/13 14/11/11
s 5
f 19/19/19 20/20/20 22/21/21 21/22/22
f 21/22/22 22/21/21 24/23/23 23/24/24
f 23/24/24 24/23/23 26/25/25 25/26/26
f 25/26/26 26/25/25 20/20/20 19/19/19
f 20/20/20 26/25/25 24/23/23 22/21/21
f 25/26/26 19/19/19 21/22/22 23/24/24
s 6
usemtl lambert3SG
f 31/27/27 32/28/28 30/29/29 29/30/30
f 33/31/31 34/32/32 32/28/28 31/27/27
f 27/33/33 28/34/34 34/32/32 33/31/31
s 7
f 39/35/35 40/36/36 38/37/37 37/38/38
f 41/39/39 42/40/40 40/36/36 39/35/35
f 35/41/41 36/42/42 42/40/40 41/39/39
